<svg width="12" height="7" viewBox="0 0 12 7" fill="none" xmlns="http://www.w3.org/2000/svg">
<path d="M0.646253 5.64625L5.64625 0.64625C5.69269 0.599761 5.74783 0.562882 5.80853 0.53772C5.86923 0.512558 5.9343 0.499607 6 0.499607C6.06571 0.499607 6.13077 0.512558 6.19147 0.53772C6.25217 0.562882 6.30732 0.599761 6.35375 0.64625L11.3538 5.64625C11.4238 5.71618 11.4714 5.8053 11.4908 5.90235C11.5101 5.99939 11.5002 6.09998 11.4623 6.1914C11.4244 6.28281 11.3603 6.36092 11.278 6.41586C11.1957 6.4708 11.099 6.50008 11 6.5L1 6.5C0.901055 6.50008 0.804309 6.4708 0.722012 6.41586C0.639714 6.36092 0.575568 6.28281 0.537692 6.1914C0.499816 6.09998 0.489913 5.99939 0.509238 5.90235C0.528563 5.8053 0.576247 5.71618 0.646253 5.64625Z" fill="#D5E2FF"/>
</svg>
