<svg width="16" height="12" viewBox="0 0 16 12" fill="none" xmlns="http://www.w3.org/2000/svg">
<path d="M15.3 6.89995C15.2475 6.93935 15.1877 6.96801 15.1241 6.98431C15.0605 7.0006 14.9943 7.00421 14.9293 6.99492C14.8643 6.98564 14.8018 6.96364 14.7453 6.93019C14.6888 6.89673 14.6394 6.85248 14.6 6.79995C14.2986 6.39486 13.9064 6.06619 13.4548 5.8404C13.0032 5.6146 12.5049 5.49799 12 5.49995C11.9017 5.49994 11.8055 5.47094 11.7236 5.41658C11.6417 5.36222 11.5776 5.28491 11.5394 5.19432C11.5134 5.13281 11.5001 5.06672 11.5001 4.99995C11.5001 4.93318 11.5134 4.86709 11.5394 4.80557C11.5776 4.71498 11.6417 4.63768 11.7236 4.58332C11.8055 4.52896 11.9017 4.49996 12 4.49995C12.2806 4.49992 12.5555 4.42122 12.7935 4.27279C13.0316 4.12435 13.2232 3.91213 13.3467 3.66022C13.4702 3.40832 13.5206 3.12683 13.4921 2.84774C13.4637 2.56864 13.3575 2.30312 13.1857 2.08134C13.0139 1.85956 12.7833 1.6904 12.5202 1.59308C12.2571 1.49577 11.9719 1.4742 11.6972 1.53081C11.4224 1.58743 11.169 1.71997 10.9658 1.91338C10.7626 2.10679 10.6176 2.35331 10.5475 2.62495C10.5311 2.68856 10.5023 2.74831 10.4628 2.8008C10.4233 2.85328 10.3738 2.89747 10.3172 2.93084C10.2607 2.96421 10.1981 2.98611 10.133 2.99529C10.068 3.00446 10.0017 3.00074 9.93813 2.98432C9.87452 2.96791 9.81477 2.93913 9.76228 2.89962C9.7098 2.86011 9.66561 2.81065 9.63224 2.75407C9.59887 2.69748 9.57697 2.63487 9.56779 2.56983C9.55861 2.50478 9.56234 2.43856 9.57875 2.37495C9.6761 1.99827 9.86002 1.64951 10.1159 1.35642C10.3717 1.06333 10.6925 0.833994 11.0525 0.686668C11.4126 0.539341 11.8021 0.478088 12.19 0.50778C12.578 0.537473 12.9536 0.657293 13.2871 0.857706C13.6205 1.05812 13.9026 1.33359 14.1109 1.66221C14.3191 1.99083 14.4478 2.36352 14.4867 2.75062C14.5256 3.13773 14.4736 3.52857 14.3349 3.89204C14.1961 4.25552 13.9744 4.58159 13.6875 4.84432C14.3674 5.1387 14.9584 5.60583 15.4019 6.19932C15.4413 6.25199 15.4699 6.3119 15.4861 6.37564C15.5023 6.43938 15.5058 6.50569 15.4963 6.57077C15.4868 6.63585 15.4646 6.69843 15.4309 6.75492C15.3973 6.8114 15.3528 6.86069 15.3 6.89995ZM11.9325 10.7499C11.9687 10.8069 11.993 10.8705 12.0039 10.937C12.0149 11.0036 12.0122 11.0716 11.9962 11.1371C11.9801 11.2026 11.951 11.2642 11.9106 11.3182C11.8701 11.3721 11.8192 11.4173 11.7608 11.4511C11.7024 11.4848 11.6378 11.5064 11.5708 11.5145C11.5039 11.5227 11.436 11.5172 11.3712 11.4984C11.3065 11.4796 11.2462 11.4479 11.194 11.4052C11.1418 11.3625 11.0988 11.3097 11.0675 11.2499C10.7525 10.7166 10.304 10.2746 9.76602 9.96758C9.22809 9.66053 8.6194 9.49904 8 9.49904C7.38061 9.49904 6.77192 9.66053 6.23399 9.96758C5.69606 10.2746 5.24748 10.7166 4.9325 11.2499C4.90125 11.3097 4.85823 11.3625 4.80603 11.4052C4.75383 11.4479 4.69354 11.4796 4.62877 11.4984C4.56401 11.5172 4.49611 11.5227 4.42917 11.5145C4.36223 11.5064 4.29762 11.4848 4.23924 11.4511C4.18086 11.4173 4.1299 11.3721 4.08945 11.3182C4.04899 11.2642 4.01986 11.2026 4.00382 11.1371C3.98778 11.0716 3.98515 11.0036 3.99609 10.937C4.00704 10.8705 4.03133 10.8069 4.0675 10.7499C4.55225 9.91706 5.29138 9.26162 6.17625 8.87995C5.67833 8.49872 5.3124 7.97105 5.12988 7.37109C4.94736 6.77114 4.95744 6.12907 5.1587 5.53514C5.35996 4.94121 5.74228 4.42528 6.25192 4.05987C6.76156 3.69446 7.3729 3.49795 8 3.49795C8.62711 3.49795 9.23845 3.69446 9.74809 4.05987C10.2577 4.42528 10.64 4.94121 10.8413 5.53514C11.0426 6.12907 11.0526 6.77114 10.8701 7.37109C10.6876 7.97105 10.3217 8.49872 9.82375 8.87995C10.7086 9.26162 11.4478 9.91706 11.9325 10.7499ZM8 8.49995C8.39557 8.49995 8.78225 8.38265 9.11115 8.16289C9.44004 7.94313 9.69639 7.63077 9.84776 7.26532C9.99914 6.89986 10.0387 6.49773 9.96158 6.10977C9.88441 5.72181 9.69392 5.36544 9.41422 5.08574C9.13451 4.80603 8.77815 4.61555 8.39018 4.53838C8.00222 4.46121 7.60009 4.50081 7.23464 4.65219C6.86918 4.80357 6.55683 5.05991 6.33707 5.38881C6.1173 5.71771 6 6.10439 6 6.49995C6 7.03038 6.21072 7.53909 6.58579 7.91416C6.96086 8.28924 7.46957 8.49995 8 8.49995ZM4.5 4.99995C4.5 4.86734 4.44733 4.74016 4.35356 4.6464C4.25979 4.55263 4.13261 4.49995 4 4.49995C3.71946 4.49992 3.44454 4.42122 3.20649 4.27279C2.96843 4.12435 2.77677 3.91213 2.65327 3.66022C2.52978 3.40832 2.47941 3.12683 2.50788 2.84774C2.53635 2.56864 2.64251 2.30312 2.81432 2.08134C2.98613 1.85956 3.21669 1.6904 3.47982 1.59308C3.74294 1.49577 4.02809 1.4742 4.30286 1.53081C4.57763 1.58743 4.83102 1.71997 5.03424 1.91338C5.23746 2.10679 5.38237 2.35331 5.4525 2.62495C5.48566 2.75341 5.56848 2.86345 5.68276 2.93084C5.79704 2.99824 5.93341 3.01748 6.06188 2.98432C6.19034 2.95117 6.30038 2.86835 6.36777 2.75407C6.43517 2.63979 6.45441 2.50341 6.42125 2.37495C6.32391 1.99827 6.13999 1.64951 5.88414 1.35642C5.62828 1.06333 5.30756 0.833994 4.94747 0.686668C4.58739 0.539341 4.1979 0.478088 3.80998 0.50778C3.42206 0.537473 3.04642 0.657293 2.71296 0.857706C2.37949 1.05812 2.09741 1.33359 1.88914 1.66221C1.68088 1.99083 1.55218 2.36352 1.5133 2.75062C1.47441 3.13773 1.52641 3.52857 1.66516 3.89204C1.8039 4.25552 2.02556 4.58159 2.3125 4.84432C1.63331 5.13898 1.04295 5.60609 0.600005 6.19932C0.560567 6.25185 0.531862 6.31163 0.515528 6.37526C0.499194 6.43888 0.495552 6.5051 0.504809 6.57013C0.514066 6.63516 0.53604 6.69773 0.569479 6.75426C0.602917 6.8108 0.647163 6.8602 0.699692 6.89964C0.752221 6.93907 0.812003 6.96778 0.875625 6.98411C0.939248 7.00045 1.00546 7.00409 1.07049 6.99483C1.13552 6.98558 1.19809 6.9636 1.25463 6.93016C1.31117 6.89672 1.36057 6.85248 1.4 6.79995C1.70137 6.39486 2.09364 6.06619 2.54523 5.8404C2.99682 5.6146 3.49512 5.49799 4 5.49995C4.13261 5.49995 4.25979 5.44727 4.35356 5.3535C4.44733 5.25973 4.5 5.13256 4.5 4.99995Z" fill="#797B86"/>
</svg>
