<svg width="20" height="19" viewBox="0 0 20 19" fill="none" xmlns="http://www.w3.org/2000/svg">
<path d="M0.24998 9.49993C0.251965 7.71033 0.963761 5.99459 2.2292 4.72915C3.49464 3.46371 5.21038 2.75191 6.99998 2.74993H17.1897L16.2194 1.78055C16.0786 1.63982 15.9996 1.44895 15.9996 1.24993C15.9996 1.05091 16.0786 0.860034 16.2194 0.719304C16.3601 0.578573 16.551 0.499512 16.75 0.499512C16.949 0.499512 17.1399 0.578573 17.2806 0.719304L19.5306 2.9693C19.6003 3.03896 19.6557 3.12168 19.6934 3.21272C19.7311 3.30377 19.7506 3.40137 19.7506 3.49993C19.7506 3.59849 19.7311 3.69609 19.6934 3.78713C19.6557 3.87818 19.6003 3.9609 19.5306 4.03055L17.2806 6.28055C17.1399 6.42128 16.949 6.50035 16.75 6.50035C16.551 6.50035 16.3601 6.42128 16.2194 6.28055C16.0786 6.13982 15.9996 5.94895 15.9996 5.74993C15.9996 5.55091 16.0786 5.36003 16.2194 5.2193L17.1897 4.24993H6.99998C5.60805 4.25142 4.27356 4.80502 3.28931 5.78926C2.30507 6.77351 1.75147 8.108 1.74998 9.49993C1.74998 9.69884 1.67096 9.88961 1.53031 10.0303C1.38966 10.1709 1.19889 10.2499 0.99998 10.2499C0.801067 10.2499 0.610302 10.1709 0.469649 10.0303C0.328997 9.88961 0.24998 9.69884 0.24998 9.49993ZM19 8.74993C18.8011 8.74993 18.6103 8.82895 18.4696 8.9696C18.329 9.11025 18.25 9.30102 18.25 9.49993C18.2485 10.8919 17.6949 12.2264 16.7106 13.2106C15.7264 14.1948 14.3919 14.7484 13 14.7499H2.81029L3.7806 13.7806C3.85029 13.7109 3.90556 13.6281 3.94327 13.5371C3.98099 13.4461 4.0004 13.3485 4.0004 13.2499C4.0004 13.1514 3.98099 13.0538 3.94327 12.9628C3.90556 12.8717 3.85029 12.789 3.7806 12.7193C3.71092 12.6496 3.6282 12.5943 3.53715 12.5566C3.44611 12.5189 3.34853 12.4995 3.24998 12.4995C3.15143 12.4995 3.05385 12.5189 2.96281 12.5566C2.87176 12.5943 2.78904 12.6496 2.71935 12.7193L0.469355 14.9693C0.399622 15.039 0.344303 15.1217 0.30656 15.2127C0.268816 15.3038 0.24939 15.4014 0.24939 15.4999C0.24939 15.5985 0.268816 15.6961 0.30656 15.7871C0.344303 15.8782 0.399622 15.9609 0.469355 16.0306L2.71935 18.2806C2.78904 18.3502 2.87176 18.4055 2.96281 18.4432C3.05385 18.4809 3.15143 18.5003 3.24998 18.5003C3.34853 18.5003 3.44611 18.4809 3.53715 18.4432C3.6282 18.4055 3.71092 18.3502 3.7806 18.2806C3.85029 18.2109 3.90556 18.1281 3.94327 18.0371C3.98099 17.9461 4.0004 17.8485 4.0004 17.7499C4.0004 17.6514 3.98099 17.5538 3.94327 17.4628C3.90556 17.3717 3.85029 17.289 3.7806 17.2193L2.81029 16.2499H13C14.7896 16.2479 16.5053 15.5361 17.7708 14.2707C19.0362 13.0053 19.748 11.2895 19.75 9.49993C19.75 9.30102 19.671 9.11025 19.5303 8.9696C19.3897 8.82895 19.1989 8.74993 19 8.74993Z" fill="#797B86"/>
</svg>
