<svg width="16" height="12" viewBox="0 0 16 12" fill="none" xmlns="http://www.w3.org/2000/svg">
<path d="M15.2999 6.89995C15.2474 6.93935 15.1876 6.96801 15.124 6.98431C15.0604 7.0006 14.9942 7.00421 14.9292 6.99492C14.8642 6.98564 14.8017 6.96364 14.7452 6.93019C14.6887 6.89673 14.6393 6.85248 14.5999 6.79995C14.2986 6.39486 13.9063 6.06619 13.4547 5.8404C13.0031 5.6146 12.5048 5.49799 11.9999 5.49995C11.9016 5.49994 11.8055 5.47094 11.7236 5.41658C11.6416 5.36222 11.5775 5.28491 11.5393 5.19432C11.5134 5.13281 11.5 5.06672 11.5 4.99995C11.5 4.93318 11.5134 4.86709 11.5393 4.80557C11.5775 4.71498 11.6416 4.63768 11.7236 4.58332C11.8055 4.52896 11.9016 4.49996 11.9999 4.49995C12.2805 4.49992 12.5554 4.42122 12.7935 4.27279C13.0315 4.12435 13.2232 3.91213 13.3467 3.66022C13.4702 3.40832 13.5205 3.12683 13.4921 2.84774C13.4636 2.56864 13.3574 2.30312 13.1856 2.08134C13.0138 1.85956 12.7833 1.6904 12.5201 1.59308C12.257 1.49577 11.9719 1.4742 11.6971 1.53081C11.4223 1.58743 11.1689 1.71997 10.9657 1.91338C10.7625 2.10679 10.6176 2.35331 10.5474 2.62495C10.531 2.68856 10.5022 2.74831 10.4627 2.8008C10.4232 2.85328 10.3738 2.89747 10.3172 2.93084C10.2606 2.96421 10.198 2.98611 10.1329 2.99529C10.0679 3.00446 10.0017 3.00074 9.93807 2.98432C9.87446 2.96791 9.81471 2.93913 9.76222 2.89962C9.70974 2.86011 9.66555 2.81065 9.63218 2.75407C9.5988 2.69748 9.57691 2.63487 9.56773 2.56983C9.55855 2.50478 9.56228 2.43856 9.57869 2.37495C9.67604 1.99827 9.85996 1.64951 10.1158 1.35642C10.3717 1.06333 10.6924 0.833994 11.0525 0.686668C11.4126 0.539341 11.8021 0.478088 12.19 0.50778C12.5779 0.537473 12.9535 0.657293 13.287 0.857706C13.6205 1.05812 13.9025 1.33359 14.1108 1.66221C14.3191 1.99083 14.4478 2.36352 14.4867 2.75062C14.5255 3.13773 14.4735 3.52857 14.3348 3.89204C14.196 4.25552 13.9744 4.58159 13.6874 4.84432C14.3673 5.1387 14.9584 5.60583 15.4018 6.19932C15.4412 6.25199 15.4698 6.3119 15.486 6.37564C15.5022 6.43938 15.5057 6.50569 15.4962 6.57077C15.4868 6.63585 15.4646 6.69843 15.4309 6.75492C15.3972 6.8114 15.3527 6.86069 15.2999 6.89995ZM11.9324 10.7499C11.9686 10.8069 11.9929 10.8705 12.0039 10.937C12.0148 11.0036 12.0122 11.0716 11.9961 11.1371C11.9801 11.2026 11.951 11.2642 11.9105 11.3182C11.87 11.3721 11.8191 11.4173 11.7607 11.4511C11.7023 11.4848 11.6377 11.5064 11.5708 11.5145C11.5038 11.5227 11.4359 11.5172 11.3712 11.4984C11.3064 11.4796 11.2461 11.4479 11.1939 11.4052C11.1417 11.3625 11.0987 11.3097 11.0674 11.2499C10.7525 10.7166 10.3039 10.2746 9.76596 9.96758C9.22803 9.66053 8.61934 9.49904 7.99994 9.49904C7.38055 9.49904 6.77186 9.66053 6.23393 9.96758C5.696 10.2746 5.24741 10.7166 4.93244 11.2499C4.90119 11.3097 4.85816 11.3625 4.80597 11.4052C4.75377 11.4479 4.69348 11.4796 4.62871 11.4984C4.56395 11.5172 4.49605 11.5227 4.42911 11.5145C4.36217 11.5064 4.29756 11.4848 4.23918 11.4511C4.1808 11.4173 4.12984 11.3721 4.08939 11.3182C4.04893 11.2642 4.0198 11.2026 4.00376 11.1371C3.98771 11.0716 3.98509 11.0036 3.99603 10.937C4.00698 10.8705 4.03127 10.8069 4.06744 10.7499C4.55219 9.91706 5.29131 9.26162 6.17619 8.87995C5.67827 8.49872 5.31234 7.97105 5.12982 7.37109C4.9473 6.77114 4.95738 6.12907 5.15864 5.53514C5.3599 4.94121 5.74222 4.42528 6.25186 4.05987C6.7615 3.69446 7.37284 3.49795 7.99994 3.49795C8.62705 3.49795 9.23838 3.69446 9.74803 4.05987C10.2577 4.42528 10.64 4.94121 10.8412 5.53514C11.0425 6.12907 11.0526 6.77114 10.8701 7.37109C10.6876 7.97105 10.3216 8.49872 9.82369 8.87995C10.7086 9.26162 11.4477 9.91706 11.9324 10.7499ZM7.99994 8.49995C8.39551 8.49995 8.78219 8.38265 9.11108 8.16289C9.43998 7.94313 9.69633 7.63077 9.8477 7.26532C9.99908 6.89986 10.0387 6.49773 9.96151 6.10977C9.88434 5.72181 9.69386 5.36544 9.41416 5.08574C9.13445 4.80603 8.77809 4.61555 8.39012 4.53838C8.00216 4.46121 7.60003 4.50081 7.23458 4.65219C6.86912 4.80357 6.55677 5.05991 6.337 5.38881C6.11724 5.71771 5.99994 6.10439 5.99994 6.49995C5.99994 7.03038 6.21066 7.53909 6.58573 7.91416C6.9608 8.28924 7.46951 8.49995 7.99994 8.49995ZM4.49994 4.99995C4.49994 4.86734 4.44726 4.74016 4.3535 4.6464C4.25973 4.55263 4.13255 4.49995 3.99994 4.49995C3.7194 4.49992 3.44448 4.42122 3.20642 4.27279C2.96836 4.12435 2.7767 3.91213 2.65321 3.66022C2.52972 3.40832 2.47935 3.12683 2.50782 2.84774C2.53629 2.56864 2.64245 2.30312 2.81426 2.08134C2.98607 1.85956 3.21663 1.6904 3.47976 1.59308C3.74288 1.49577 4.02803 1.4742 4.3028 1.53081C4.57757 1.58743 4.83096 1.71997 5.03418 1.91338C5.2374 2.10679 5.38231 2.35331 5.45244 2.62495C5.4856 2.75341 5.56842 2.86345 5.6827 2.93084C5.79698 2.99824 5.93335 3.01748 6.06182 2.98432C6.19028 2.95117 6.30032 2.86835 6.36771 2.75407C6.43511 2.63979 6.45435 2.50341 6.42119 2.37495C6.32385 1.99827 6.13993 1.64951 5.88408 1.35642C5.62822 1.06333 5.3075 0.833994 4.94741 0.686668C4.58733 0.539341 4.19784 0.478088 3.80992 0.50778C3.422 0.537473 3.04636 0.657293 2.7129 0.857706C2.37943 1.05812 2.09735 1.33359 1.88908 1.66221C1.68082 1.99083 1.55212 2.36352 1.51324 2.75062C1.47435 3.13773 1.52635 3.52857 1.6651 3.89204C1.80384 4.25552 2.0255 4.58159 2.31244 4.84432C1.63325 5.13898 1.04289 5.60609 0.599943 6.19932C0.560506 6.25185 0.531801 6.31163 0.515467 6.37526C0.499133 6.43888 0.495491 6.5051 0.504748 6.57013C0.514005 6.63516 0.535979 6.69773 0.569418 6.75426C0.602856 6.8108 0.647102 6.8602 0.699631 6.89964C0.75216 6.93907 0.811942 6.96778 0.875564 6.98411C0.939187 7.00045 1.0054 7.00409 1.07043 6.99483C1.13546 6.98558 1.19803 6.9636 1.25457 6.93016C1.31111 6.89672 1.36051 6.85248 1.39994 6.79995C1.70131 6.39486 2.09358 6.06619 2.54517 5.8404C2.99676 5.6146 3.49505 5.49799 3.99994 5.49995C4.13255 5.49995 4.25973 5.44727 4.3535 5.3535C4.44726 5.25973 4.49994 5.13256 4.49994 4.99995Z" fill="#B2B3BD"/>
</svg>
