<svg width="24" height="24" viewBox="0 0 24 24" fill="none" xmlns="http://www.w3.org/2000/svg">
<path d="M12.125 2C10.1225 2 8.1649 2.59382 6.49986 3.70637C4.83481 4.81892 3.53706 6.40023 2.77072 8.25033C2.00439 10.1004 1.80388 12.1362 2.19455 14.1003C2.58523 16.0643 3.54954 17.8685 4.96555 19.2845C6.38156 20.7005 8.18566 21.6648 10.1497 22.0555C12.1138 22.4461 14.1496 22.2456 15.9997 21.4793C17.8498 20.7129 19.4311 19.4152 20.5436 17.7501C21.6562 16.0851 22.25 14.1275 22.25 12.125C22.247 9.4406 21.1793 6.86699 19.2812 4.96883C17.383 3.07067 14.8094 2.00298 12.125 2ZM12.125 20C10.5675 20 9.04493 19.5381 7.74989 18.6728C6.45485 17.8075 5.44549 16.5776 4.84945 15.1386C4.25341 13.6997 4.09746 12.1163 4.40132 10.5887C4.70518 9.06106 5.4552 7.65787 6.55654 6.55653C7.65788 5.4552 9.06107 4.70517 10.5887 4.40132C12.1163 4.09746 13.6997 4.25341 15.1386 4.84945C16.5776 5.44549 17.8075 6.45485 18.6728 7.74988C19.5381 9.04492 20 10.5675 20 12.125C19.9978 14.2129 19.1674 16.2146 17.691 17.691C16.2146 19.1674 14.2129 19.9978 12.125 20Z" fill="#3D63DD"/>
</svg>
