<svg width="20" height="21" viewBox="0 0 20 21" fill="none" xmlns="http://www.w3.org/2000/svg">
<path d="M13.75 19.5C13.75 19.6989 13.671 19.8897 13.5303 20.0303C13.3897 20.171 13.1989 20.25 13 20.25H6.99999C6.80108 20.25 6.61031 20.171 6.46966 20.0303C6.32901 19.8897 6.24999 19.6989 6.24999 19.5C6.24999 19.3011 6.32901 19.1103 6.46966 18.9697C6.61031 18.829 6.80108 18.75 6.99999 18.75H13C13.1989 18.75 13.3897 18.829 13.5303 18.9697C13.671 19.1103 13.75 19.3011 13.75 19.5ZM19.3178 4.15499C18.4749 2.50748 17.2092 1.11364 15.6503 0.116239C15.567 0.0630345 15.474 0.0268168 15.3767 0.00966768C15.2794 -0.00748141 15.1796 -0.00522354 15.0831 0.0163113C14.9867 0.0378462 14.8954 0.0782334 14.8146 0.135151C14.7338 0.192069 14.6651 0.264396 14.6123 0.347973C14.5596 0.431549 14.5239 0.524729 14.5072 0.622154C14.4906 0.719579 14.4934 0.819329 14.5155 0.915669C14.5375 1.01201 14.5784 1.10304 14.6358 1.18353C14.6931 1.26402 14.7658 1.33238 14.8497 1.38468C16.1871 2.23546 17.2707 3.43076 17.9865 4.84499C18.0812 5.01593 18.2387 5.14321 18.4257 5.19974C18.6127 5.25628 18.8144 5.23761 18.9879 5.1477C19.1613 5.0578 19.2929 4.90376 19.3545 4.71836C19.4161 4.53296 19.4029 4.33083 19.3178 4.15499ZM1.3478 5.24999C1.4852 5.24993 1.61995 5.21213 1.73733 5.14071C1.85471 5.06929 1.95022 4.96699 2.01343 4.84499C2.7293 3.43076 3.81288 2.23546 5.1503 1.38468C5.23416 1.33238 5.30686 1.26402 5.36421 1.18353C5.42157 1.10304 5.46245 1.01201 5.48451 0.915669C5.50656 0.819329 5.50936 0.719579 5.49274 0.622154C5.47612 0.524729 5.4404 0.431549 5.38765 0.347973C5.3349 0.264396 5.26614 0.192069 5.18535 0.135151C5.10455 0.0782334 5.0133 0.0378462 4.91684 0.0163113C4.82038 -0.00522354 4.72062 -0.00748141 4.62328 0.00966768C4.52595 0.0268168 4.43297 0.0630345 4.34968 0.116239C2.79082 1.11364 1.52511 2.50748 0.682175 4.15499C0.62296 4.26929 0.594162 4.3969 0.59855 4.52556C0.602939 4.65421 0.640367 4.77957 0.707232 4.88957C0.774098 4.99956 0.86815 5.0905 0.980338 5.15363C1.09253 5.21675 1.21907 5.24994 1.3478 5.24999ZM18.7947 14.9944C18.9275 15.2222 18.998 15.4811 18.9989 15.7448C18.9998 16.0086 18.9311 16.2679 18.7998 16.4967C18.6685 16.7255 18.4792 16.9156 18.251 17.0478C18.0228 17.1801 17.7638 17.2498 17.5 17.25H2.49999C2.23638 17.2495 1.97757 17.1795 1.74962 17.0471C1.52167 16.9147 1.33263 16.7246 1.20155 16.4959C1.07047 16.2672 1.00197 16.008 1.00296 15.7444C1.00395 15.4808 1.07438 15.2221 1.20717 14.9944C2.05186 13.5366 2.49999 11.4637 2.49999 8.99999C2.49999 7.01087 3.29016 5.10321 4.69669 3.69669C6.10321 2.29017 8.01086 1.49999 9.99999 1.49999C11.9891 1.49999 13.8968 2.29017 15.3033 3.69669C16.7098 5.10321 17.5 7.01087 17.5 8.99999C17.5 11.4628 17.9481 13.5356 18.7947 14.9944ZM17.5 15.75C16.5025 14.0372 16 11.7666 16 8.99999C16 7.40869 15.3678 5.88257 14.2426 4.75735C13.1174 3.63213 11.5913 2.99999 9.99999 2.99999C8.40869 2.99999 6.88257 3.63213 5.75735 4.75735C4.63213 5.88257 3.99999 7.40869 3.99999 8.99999C3.99999 11.7675 3.49561 14.0381 2.49999 15.75H17.5Z" fill="#E54D51"/>
</svg>
