<svg width="9" height="15" viewBox="0 0 9 15" fill="none" xmlns="http://www.w3.org/2000/svg">
<path d="M0.219395 14.7806C0.149663 14.7109 0.0943441 14.6282 0.0566006 14.5371C0.018857 14.4461 -0.000569344 14.3485 -0.000569344 14.2499C-0.000569344 14.1514 0.018857 14.0538 0.0566006 13.9627C0.0943441 13.8717 0.149663 13.789 0.219395 13.7193L6.43971 7.49993L0.219395 1.28055C0.0786648 1.13982 -0.000397682 0.948952 -0.000397682 0.749929C-0.000397682 0.550906 0.0786648 0.360034 0.219395 0.219304C0.360126 0.0785732 0.550997 -0.00048828 0.75002 -0.000488281C0.949043 -0.000488283 1.13991 0.0785732 1.28065 0.219304L8.03065 6.9693C8.10038 7.03896 8.1557 7.12168 8.19344 7.21272C8.23118 7.30377 8.25061 7.40137 8.25061 7.49993C8.25061 7.59849 8.23118 7.69609 8.19344 7.78713C8.1557 7.87818 8.10038 7.9609 8.03065 8.03055L1.28065 14.7806C1.21099 14.8503 1.12827 14.9056 1.03723 14.9433C0.946177 14.9811 0.848582 15.0005 0.75002 15.0005C0.651459 15.0005 0.553864 14.9811 0.462815 14.9433C0.371767 14.9056 0.28905 14.8503 0.219395 14.7806Z" fill="white"/>
</svg>
