<svg width="23" height="17" viewBox="0 0 23 17" fill="none" xmlns="http://www.w3.org/2000/svg">
<path d="M23 9.74984C23 9.94876 22.921 10.1395 22.7803 10.2802C22.6397 10.4208 22.4489 10.4998 22.25 10.4998H20.75V11.9998C20.75 12.1988 20.671 12.3895 20.5303 12.5302C20.3897 12.6708 20.1989 12.7498 20 12.7498C19.8011 12.7498 19.6103 12.6708 19.4697 12.5302C19.329 12.3895 19.25 12.1988 19.25 11.9998V10.4998H17.75C17.5511 10.4998 17.3603 10.4208 17.2197 10.2802C17.079 10.1395 17 9.94876 17 9.74984C17 9.55093 17.079 9.36016 17.2197 9.21951C17.3603 9.07886 17.5511 8.99984 17.75 8.99984H19.25V7.49984C19.25 7.30093 19.329 7.11017 19.4697 6.96951C19.6103 6.82886 19.8011 6.74984 20 6.74984C20.1989 6.74984 20.3897 6.82886 20.5303 6.96951C20.671 7.11017 20.75 7.30093 20.75 7.49984V8.99984H22.25C22.4489 8.99984 22.6397 9.07886 22.7803 9.21951C22.921 9.36016 23 9.55093 23 9.74984ZM17.5747 15.267C17.7027 15.4194 17.765 15.6165 17.7478 15.8148C17.7305 16.0131 17.6352 16.1965 17.4828 16.3245C17.3304 16.4526 17.1334 16.5148 16.935 16.4976C16.7367 16.4804 16.5534 16.3851 16.4253 16.2327C14.5391 13.9864 11.9459 12.7498 9.125 12.7498C6.30406 12.7498 3.71094 13.9864 1.82469 16.2327C1.69664 16.3849 1.51334 16.4801 1.3151 16.4973C1.11687 16.5144 0.919949 16.4521 0.767657 16.3241C0.615365 16.196 0.520178 16.0127 0.503036 15.8145C0.485894 15.6162 0.548201 15.4193 0.676251 15.267C2.07688 13.6002 3.81875 12.4161 5.75469 11.7823C4.57897 11.0501 3.67374 9.95479 3.17594 8.66223C2.67814 7.36966 2.61486 5.95013 2.99567 4.61839C3.37649 3.28666 4.18067 2.11518 5.28657 1.2812C6.39246 0.447211 7.73989 -0.00390625 9.125 -0.00390625C10.5101 -0.00390625 11.8575 0.447211 12.9634 1.2812C14.0693 2.11518 14.8735 3.28666 15.2543 4.61839C15.6351 5.95013 15.5719 7.36966 15.0741 8.66223C14.5763 9.95479 13.671 11.0501 12.4953 11.7823C14.4312 12.4161 16.1731 13.6002 17.5747 15.267ZM9.125 11.2498C10.0892 11.2498 11.0317 10.9639 11.8334 10.4283C12.6351 9.89259 13.2599 9.13121 13.6289 8.24043C13.9979 7.34963 14.0944 6.36943 13.9063 5.42378C13.7182 4.47812 13.2539 3.60948 12.5721 2.9277C11.8904 2.24592 11.0217 1.78162 10.0761 1.59351C9.13041 1.40541 8.15021 1.50195 7.25942 1.87093C6.36863 2.23991 5.60726 2.86475 5.07159 3.66644C4.53591 4.46813 4.25 5.41066 4.25 6.37484C4.25149 7.66732 4.76558 8.90643 5.6795 9.82034C6.59342 10.7343 7.83253 11.2484 9.125 11.2498Z" fill="white"/>
</svg>
