<svg width="16" height="16" viewBox="0 0 16 16" fill="none" xmlns="http://www.w3.org/2000/svg">
<path d="M0.954652 8.35153L5.99371 9.75309C6.05386 9.77045 6.10863 9.80277 6.15289 9.84703C6.19716 9.8913 6.22948 9.94607 6.24684 10.0062L7.6484 15.0453C7.67023 15.1217 7.71635 15.1889 7.77978 15.2367C7.84321 15.2846 7.92051 15.3105 7.99996 15.3105C8.07942 15.3105 8.15672 15.2846 8.22015 15.2367C8.28358 15.1889 8.3297 15.1217 8.35153 15.0453L9.75309 10.0062C9.77045 9.94607 9.80277 9.8913 9.84703 9.84703C9.8913 9.80277 9.94607 9.77045 10.0062 9.75309L15.0453 8.35153C15.1217 8.3297 15.1889 8.28358 15.2367 8.22015C15.2846 8.15672 15.3105 8.07942 15.3105 7.99996C15.3105 7.92051 15.2846 7.84321 15.2367 7.77978C15.1889 7.71635 15.1217 7.67023 15.0453 7.6484L10.0062 6.24684C9.94607 6.22948 9.8913 6.19716 9.84703 6.15289C9.80277 6.10863 9.77045 6.05386 9.75309 5.99371L8.35153 0.954652C8.3297 0.87825 8.28358 0.811038 8.22015 0.763188C8.15672 0.715337 8.07942 0.689453 7.99996 0.689453C7.92051 0.689453 7.84321 0.715337 7.77978 0.763188C7.71635 0.811038 7.67023 0.87825 7.6484 0.954652L6.24684 5.99371C6.22948 6.05386 6.19716 6.10863 6.15289 6.15289C6.10863 6.19716 6.05386 6.22948 5.99371 6.24684L0.954652 7.6484C0.87825 7.67023 0.811038 7.71635 0.763188 7.77978C0.715337 7.84321 0.689453 7.92051 0.689453 7.99996C0.689453 8.07942 0.715337 8.15672 0.763188 8.22015C0.811038 8.28358 0.87825 8.3297 0.954652 8.35153Z" fill="url(#paint0_linear_420_3523)" stroke="#FCD34D" stroke-width="0.1875" stroke-linecap="round" stroke-linejoin="round"/>
<defs>
<linearGradient id="paint0_linear_420_3523" x1="4.80778" y1="2.4734" x2="11.1922" y2="13.5265" gradientUnits="userSpaceOnUse">
<stop stop-color="#FCD966"/>
<stop offset="0.5" stop-color="#FCD966"/>
<stop offset="1" stop-color="#FCCD34"/>
</linearGradient>
</defs>
</svg>
