<svg width="18" height="24" viewBox="0 0 18 24" fill="none" xmlns="http://www.w3.org/2000/svg">
<path d="M17.0484 11.7617L6.54838 23.0117C6.43711 23.1305 6.29023 23.2098 6.12992 23.2377C5.9696 23.2657 5.80455 23.2407 5.65966 23.1667C5.51476 23.0926 5.3979 22.9734 5.3267 22.827C5.2555 22.6807 5.23382 22.5152 5.26494 22.3555L6.63932 15.4808L1.23651 13.452C1.12047 13.4086 1.017 13.3372 0.935327 13.244C0.853655 13.1508 0.796331 13.0389 0.768474 12.9182C0.740617 12.7975 0.743097 12.6718 0.77569 12.5522C0.808283 12.4327 0.869975 12.3231 0.955255 12.2333L11.4553 0.983274C11.5665 0.864526 11.7134 0.785191 11.8737 0.75724C12.034 0.729289 12.1991 0.75424 12.344 0.828326C12.4889 0.902412 12.6057 1.02161 12.6769 1.16794C12.7481 1.31428 12.7698 1.47979 12.7387 1.63952L11.3606 8.52171L16.7634 10.5476C16.8786 10.5913 16.9812 10.6627 17.0622 10.7555C17.1433 10.8483 17.2002 10.9596 17.228 11.0796C17.2558 11.1996 17.2536 11.3246 17.2216 11.4436C17.1897 11.5626 17.1289 11.6718 17.0446 11.7617H17.0484Z" fill="#F6A823"/>
</svg>
