<svg width="140" height="104" viewBox="0 0 140 104" fill="none" xmlns="http://www.w3.org/2000/svg">
<path d="M70 103.761C108.66 103.761 140 101.371 140 98.4224C140 95.4741 108.66 93.084 70 93.084C31.3401 93.084 0 95.4741 0 98.4224C0 101.371 31.3401 103.761 70 103.761Z" fill="white"/>
<path d="M82.9701 99.3203H56.4429L56.0704 94.6846H83.3426L82.9701 99.3203Z" fill="#DF2126"/>
<path opacity="0.2" d="M82.9701 99.3203H56.4429L56.0704 94.6846H83.3426L82.9701 99.3203Z" fill="black"/>
<path opacity="0.2" d="M80.6074 99.3203H56.4429L56.0704 94.6846H80.9139L80.6074 99.3203Z" fill="black"/>
<path d="M72.7881 96.21H71.4865C70.8545 96.21 70.3405 97.0022 70.3405 97.9832C70.3405 98.9641 70.8545 99.7564 71.4865 99.7564H72.7881C73.42 99.7564 73.9341 98.9641 73.9341 97.9832C73.9341 97.0022 73.42 96.21 72.7881 96.21Z" fill="#263238"/>
<path opacity="0.2" d="M73.9338 97.9832C73.9338 98.9641 73.4198 99.7564 72.7879 99.7564C72.1559 99.7564 71.6419 98.9641 71.6419 97.9832C71.6419 97.0022 72.1559 96.21 72.7879 96.21C73.4198 96.21 73.9338 97.0022 73.9338 97.9832Z" fill="white"/>
<path d="M51.8639 96.21H50.5623C49.9304 96.21 49.4163 97.0022 49.4163 97.9832C49.4163 98.9641 49.9304 99.7564 50.5623 99.7564H51.8639C52.4958 99.7564 53.0052 98.9641 53.0052 97.9832C53.0052 97.0022 52.4723 96.21 51.8639 96.21Z" fill="#263238"/>
<path opacity="0.2" d="M52.981 97.9832C52.981 98.9641 52.4717 99.7564 51.8398 99.7564C51.2078 99.7564 50.6938 98.9641 50.6938 97.9832C50.6938 97.0022 51.2078 96.21 51.8398 96.21C52.4717 96.21 52.981 97.0022 52.981 97.9832Z" fill="white"/>
<path d="M85.2806 28.1115H64.5965C64.3234 28.1291 64.05 28.0822 63.7985 27.9743C63.547 27.8665 63.3244 27.7009 63.1489 27.491C62.9734 27.281 62.8499 27.0326 62.7884 26.7659C62.7269 26.4993 62.7292 26.2219 62.795 25.9563L67.5109 2.9755C67.6591 2.37123 68.0022 1.83262 68.4873 1.44302C68.9724 1.05343 69.5723 0.834569 70.1943 0.820312H90.8784C94.3211 0.820312 96.5611 3.49897 95.882 6.80484L92.7318 22.1269C92.0668 25.4328 88.7232 28.1115 85.2806 28.1115Z" fill="#DF2126"/>
<path opacity="0.2" d="M85.2806 28.1115H64.5965C64.3234 28.1291 64.05 28.0822 63.7985 27.9743C63.547 27.8665 63.3244 27.7009 63.1489 27.491C62.9734 27.281 62.8499 27.0326 62.7884 26.7659C62.7269 26.4993 62.7292 26.2219 62.795 25.9563L67.5109 2.9755C67.6591 2.37123 68.0022 1.83262 68.4873 1.44302C68.9724 1.05343 69.5723 0.834569 70.1943 0.820312H90.8784C94.3211 0.820312 96.5611 3.49897 95.882 6.80484L92.7318 22.1269C92.0668 25.4328 88.7232 28.1115 85.2806 28.1115Z" fill="white"/>
<path d="M86.7994 28.9268H60.5835C60.3107 28.9453 60.0373 28.8991 59.7857 28.7918C59.5341 28.6846 59.3115 28.5194 59.1358 28.3098C58.9602 28.1001 58.8366 27.852 58.7751 27.5855C58.7136 27.319 58.716 27.0418 58.7821 26.7764L63.8517 2.15444C64.0007 1.55104 64.3442 1.0135 64.8292 0.624818C65.3142 0.23614 65.9137 0.0179585 66.535 0.00397289H92.751C93.0238 -0.0145209 93.2972 0.0317316 93.5488 0.138962C93.8004 0.246192 94.023 0.41136 94.1987 0.621004C94.3743 0.830648 94.4979 1.07884 94.5594 1.34532C94.6208 1.6118 94.6185 1.88904 94.5524 2.15444L89.4875 26.7764C89.3383 27.3805 88.9941 27.9186 88.5081 28.3074C88.0222 28.6962 87.4216 28.9139 86.7994 28.9268Z" fill="#DF2126"/>
<path opacity="0.2" d="M93.6797 2.15389L93.2081 4.44113L88.6101 26.7758C88.5192 27.1454 88.3093 27.4749 88.0127 27.7135C87.7162 27.9521 87.3494 28.0866 86.9689 28.0963H60.7577C60.5903 28.1069 60.4227 28.078 60.2685 28.012C60.1143 27.946 59.9778 27.8446 59.8699 27.7161C59.7621 27.5876 59.6859 27.4356 59.6476 27.2722C59.6093 27.1089 59.61 26.9389 59.6495 26.7758L64.7191 2.15389C64.8111 1.78439 65.0221 1.45541 65.3195 1.21764C65.6169 0.979875 65.9843 0.846528 66.365 0.838149H92.5809C92.7479 0.826188 92.9153 0.854089 93.0694 0.919557C93.2235 0.985025 93.3599 1.08618 93.4672 1.21468C93.5745 1.34319 93.6497 1.49537 93.6867 1.65867C93.7236 1.82196 93.7213 1.9917 93.6797 2.15389Z" fill="black"/>
<path opacity="0.2" d="M93.6801 2.15503L93.2085 4.44226C84.7198 4.2772 68.6856 4.0414 68.2894 4.546C67.7754 5.22982 60.7439 28.0974 60.7439 28.0974C60.5765 28.108 60.4089 28.0792 60.2547 28.0131C60.1005 27.9471 59.964 27.8457 59.8561 27.7172C59.7483 27.5887 59.6721 27.4367 59.6338 27.2734C59.5956 27.11 59.5962 26.94 59.6357 26.777L64.7053 2.15503C64.7973 1.78553 65.0083 1.45654 65.3057 1.21878C65.6031 0.981008 65.9705 0.847662 66.3512 0.839283H92.5671C92.7352 0.82492 92.9044 0.851045 93.0603 0.915473C93.2163 0.979901 93.3546 1.08076 93.4635 1.20959C93.5725 1.33843 93.649 1.4915 93.6867 1.65599C93.7244 1.82048 93.7221 1.9916 93.6801 2.15503Z" fill="black"/>
<path d="M87.6714 30.3994L85.455 94.7201C85.4354 95.3144 85.1851 95.8776 84.7572 96.2905C84.3294 96.7034 83.7576 96.9334 83.163 96.9319H49.3309C48.7367 96.9334 48.1654 96.7032 47.7384 96.2902C47.3113 95.8772 47.062 95.314 47.0436 94.7201L44.8318 30.3994H87.6714Z" fill="#DF2126"/>
<path opacity="0.2" d="M87.6718 30.3994L85.4553 94.7201C85.4357 95.3144 85.1854 95.8776 84.7576 96.2905C84.3297 96.7034 83.7579 96.9334 83.1633 96.9319H75.3726C74.7788 96.9322 74.2082 96.7016 73.7814 96.2889C73.3546 95.8761 73.105 95.3136 73.0854 94.7201L70.8736 30.3994H87.6718Z" fill="black"/>
<path d="M53.9951 59.1652L55.7117 56.1942L56.1597 56.463L55.5749 54.1758L53.2783 54.7606L53.7876 55.0624L52.0568 58.057C51.8012 58.5007 51.6668 59.0038 51.6671 59.5158C51.6674 60.0279 51.8024 60.5308 52.0585 60.9742C52.3146 61.4176 52.6828 61.7859 53.1262 62.042C53.5696 62.2981 54.0725 62.4331 54.5846 62.4334H56.8105V60.2075H54.5657C54.4457 60.204 54.3286 60.1692 54.2261 60.1064C54.1237 60.0437 54.0394 59.9552 53.9817 59.8499C53.924 59.7445 53.8949 59.6259 53.8973 59.5058C53.8996 59.3857 53.9333 59.2683 53.9951 59.1652Z" fill="white"/>
<path d="M58.7487 51.6209C58.8705 51.6209 58.9901 51.6532 59.0953 51.7146C59.2005 51.7759 59.2876 51.864 59.3477 51.9699L61.2105 55.1909L60.7389 55.455L63.0214 56.0681L63.6345 53.7855L63.1204 54.0827L61.2954 50.8664C61.0397 50.4227 60.6717 50.0541 60.2284 49.7979C59.7851 49.5416 59.282 49.4067 58.77 49.4067C58.2579 49.4067 57.7549 49.5416 57.3115 49.7979C56.8682 50.0541 56.5002 50.4227 56.2446 50.8664L54.9666 53.0782L56.8812 54.21L58.1734 51.9793C58.2299 51.8748 58.3126 51.7867 58.4135 51.7238C58.5144 51.661 58.63 51.6255 58.7487 51.6209Z" fill="white"/>
<path d="M65.4266 58.0572L64.3231 56.1426L62.3848 57.2367L63.5025 59.1702C63.5629 59.2758 63.5945 59.3954 63.594 59.517C63.5936 59.6386 63.5612 59.758 63.5 59.8631C63.4388 59.9682 63.3511 60.0554 63.2456 60.1159C63.1401 60.1764 63.0205 60.2081 62.8989 60.2077H59.4751V59.6795L57.8057 61.349L59.4751 63.0184V62.4336H62.8989C63.4109 62.4333 63.9139 62.2984 64.3573 62.0423C64.8007 61.7861 65.1689 61.4179 65.425 60.9745C65.6811 60.5311 65.8161 60.0281 65.8164 59.5161C65.8166 59.0041 65.6822 58.5009 65.4266 58.0572Z" fill="white"/>
<path d="M87.851 28.6685H44.9265C44.5202 28.6685 44.1909 28.9978 44.1909 29.4042V33.3231C44.1909 33.7294 44.5202 34.0588 44.9265 34.0588H87.851C88.2573 34.0588 88.5867 33.7294 88.5867 33.3231V29.4042C88.5867 28.9978 88.2573 28.6685 87.851 28.6685Z" fill="#DF2126"/>
<path opacity="0.2" d="M71.3547 28.6685H44.9265C44.5202 28.6685 44.1909 28.9978 44.1909 29.4042V33.3231C44.1909 33.7294 44.5202 34.0588 44.9265 34.0588H71.3547C71.761 34.0588 72.0904 33.7294 72.0904 33.3231V29.4042C72.0904 28.9978 71.761 28.6685 71.3547 28.6685Z" fill="white"/>
<path d="M110.727 24.7401H92.1231L93.0427 23.5187C93.6671 22.6947 94.4732 22.026 95.3983 21.5646C96.3235 21.1033 97.3427 20.8618 98.3764 20.8589H104.474C105.507 20.8618 106.526 21.1033 107.45 21.5647C108.375 22.0261 109.18 22.6948 109.803 23.5187L110.727 24.7401ZM94.9055 23.4385H107.945C106.974 22.6196 105.745 22.1688 104.474 22.1652H98.3764C97.108 22.1627 95.8792 22.6068 94.9055 23.4196V23.4385Z" fill="#263238"/>
<path d="M122.395 29.6304V31.2526H80.2255V29.6304C80.2261 28.72 80.406 27.8186 80.755 26.9778C81.1039 26.1369 81.6151 25.3731 82.2593 24.7298C82.9034 24.0865 83.668 23.5763 84.5093 23.2285C85.3506 22.8807 86.2522 22.702 87.1626 22.7026H115.458C116.369 22.702 117.27 22.8807 118.112 23.2285C118.953 23.5763 119.717 24.0865 120.362 24.7298C121.006 25.3731 121.517 26.1369 121.866 26.9778C122.215 27.8186 122.395 28.72 122.395 29.6304Z" fill="#263238"/>
<path opacity="0.2" d="M122.395 29.6304V31.2526H106.271V29.6304C106.272 27.7926 107.003 26.0305 108.303 24.7314C109.603 23.4324 111.366 22.7026 113.203 22.7026H115.462C117.3 22.7026 119.063 23.4324 120.363 24.7314C121.663 26.0305 122.394 27.7926 122.395 29.6304Z" fill="black"/>
<path d="M117.693 99.3228H91.1661L90.7935 94.687H118.066L117.693 99.3228Z" fill="#263238"/>
<path opacity="0.2" d="M117.693 99.3228H91.1661L90.7935 94.687H118.066L117.693 99.3228Z" fill="black"/>
<path opacity="0.2" d="M115.331 99.3228H91.1661L90.7935 94.687H115.637L115.331 99.3228Z" fill="black"/>
<path d="M107.511 96.21H106.21C105.578 96.21 105.064 97.0022 105.064 97.9832C105.064 98.9641 105.578 99.7564 106.21 99.7564H107.511C108.143 99.7564 108.653 98.9641 108.653 97.9832C108.653 97.0022 108.143 96.21 107.511 96.21Z" fill="#263238"/>
<path opacity="0.2" d="M108.653 97.9832C108.653 98.9641 108.144 99.7564 107.512 99.7564C106.88 99.7564 106.366 98.9641 106.366 97.9832C106.366 97.0022 106.88 96.21 107.512 96.21C108.144 96.21 108.653 97.0022 108.653 97.9832Z" fill="white"/>
<path d="M86.5632 96.21H85.2616C84.6297 96.21 84.1157 97.0022 84.1157 97.9832C84.1157 98.9641 84.6297 99.7564 85.2616 99.7564H86.5632C87.1952 99.7564 87.7045 98.9641 87.7045 97.9832C87.7045 97.0022 87.1952 96.21 86.5632 96.21Z" fill="#263238"/>
<path opacity="0.2" d="M87.7048 97.9832C87.7048 98.9641 87.1955 99.7564 86.5636 99.7564C85.9316 99.7564 85.4176 98.9641 85.4176 97.9832C85.4176 97.0022 85.9316 96.21 86.5636 96.21C87.1955 96.21 87.7048 97.0022 87.7048 97.9832Z" fill="white"/>
<path d="M122.395 30.3989L120.179 94.7196C120.159 95.3139 119.909 95.8771 119.481 96.29C119.053 96.7029 118.481 96.9329 117.887 96.9314H84.0547C83.4606 96.9329 82.8893 96.7027 82.4622 96.2897C82.0351 95.8767 81.7859 95.3135 81.7674 94.7196L79.5557 30.3989H122.395Z" fill="#263238"/>
<path opacity="0.2" d="M122.395 30.3989L120.178 94.7196C120.159 95.3139 119.909 95.8771 119.481 96.29C119.053 96.7029 118.481 96.9329 117.887 96.9314H110.096C109.502 96.9317 108.931 96.7011 108.505 96.2884C108.078 95.8756 107.828 95.3131 107.809 94.7196L105.597 30.3989H122.395Z" fill="black"/>
<path d="M88.7183 59.1652L90.4349 56.1942L90.8829 56.463L90.2981 54.1758L88.0109 54.7558L88.5202 55.0577L86.7895 58.0523C86.5338 58.496 86.3994 58.9991 86.3997 59.5111C86.4 60.0232 86.535 60.5261 86.7911 60.9695C87.0472 61.4129 87.4154 61.7812 87.8588 62.0373C88.3022 62.2934 88.8052 62.4284 89.3172 62.4287H91.5431V60.2028H89.2983C89.1782 60.2004 89.0607 60.1667 88.9576 60.1048C88.8545 60.043 88.7694 59.9553 88.7108 59.8504C88.6521 59.7454 88.6219 59.627 88.6232 59.5068C88.6246 59.3866 88.6573 59.2688 88.7183 59.1652Z" fill="white"/>
<path d="M93.4724 51.6206C93.5942 51.6206 93.7138 51.6529 93.819 51.7142C93.9242 51.7755 94.0113 51.8636 94.0713 51.9696L95.9294 55.1906L95.4578 55.4547L97.7403 56.0677L98.3534 53.7852L97.8394 54.0823L95.9766 50.8566C95.721 50.4129 95.3529 50.0444 94.9096 49.7881C94.4663 49.5319 93.9632 49.397 93.4512 49.397C92.9391 49.397 92.4361 49.5319 91.9927 49.7881C91.5494 50.0444 91.1814 50.4129 90.9258 50.8566L89.6478 53.0684L91.5624 54.2002L92.8546 51.9696C92.9158 51.8605 93.0058 51.7702 93.1147 51.7087C93.2236 51.6472 93.3474 51.6167 93.4724 51.6206Z" fill="white"/>
<path d="M100.15 58.0597L99.0463 56.145L97.108 57.2391L98.2257 59.1727C98.2861 59.2782 98.3177 59.3978 98.3172 59.5194C98.3168 59.6411 98.2844 59.7604 98.2232 59.8655C98.162 59.9707 98.0743 60.0578 97.9688 60.1183C97.8633 60.1788 97.7437 60.2105 97.6221 60.2102H94.1983V59.682L92.5289 61.3514L94.1983 63.0209V62.4361H97.6079C98.12 62.4358 98.6229 62.3008 99.0663 62.0447C99.5097 61.7886 99.878 61.4203 100.134 60.9769C100.39 60.5335 100.525 60.0306 100.525 59.5185C100.526 59.0065 100.391 58.5034 100.136 58.0597H100.15Z" fill="white"/>
<path d="M122.574 28.668H79.6498C79.2435 28.668 78.9141 28.9974 78.9141 29.4037V33.3226C78.9141 33.7289 79.2435 34.0583 79.6498 34.0583H122.574C122.981 34.0583 123.31 33.7289 123.31 33.3226V29.4037C123.31 28.9974 122.981 28.668 122.574 28.668Z" fill="#263238"/>
<path opacity="0.2" d="M106.078 28.668H79.6498C79.2435 28.668 78.9141 28.9974 78.9141 29.4037V33.3226C78.9141 33.7289 79.2435 34.0583 79.6498 34.0583H106.078C106.484 34.0583 106.814 33.7289 106.814 33.3226V29.4037C106.814 28.9974 106.484 28.668 106.078 28.668Z" fill="white"/>
<path d="M45.4816 45.4411L45.9532 43.9838L43.4066 43.168L42.935 44.6205C42.8738 44.8148 42.7724 44.9941 42.6376 45.1468C42.5028 45.2995 42.3374 45.4222 42.1522 45.5071C41.9666 45.5909 41.8006 45.7127 41.6649 45.8646C41.5293 46.0164 41.427 46.1951 41.3646 46.389L38.6812 54.7503C38.6509 54.8485 38.6404 54.9517 38.6503 55.0539C38.6603 55.1562 38.6905 55.2554 38.7392 55.3459C38.788 55.4363 38.8542 55.5161 38.9341 55.5807C39.0141 55.6452 39.106 55.6932 39.2047 55.7218L42.1003 56.665C42.1972 56.6966 42.2994 56.7087 42.401 56.7006C42.5026 56.6925 42.6016 56.6645 42.6923 56.618C42.783 56.5716 42.8637 56.5076 42.9296 56.4299C42.9955 56.3522 43.0455 56.2622 43.0765 56.1651L45.7599 47.8037C45.8203 47.6098 45.8403 47.4054 45.8184 47.2034C45.7964 47.0013 45.7332 46.806 45.6325 46.6295C45.5249 46.4533 45.4558 46.2563 45.4298 46.0514C45.4038 45.8466 45.4214 45.6386 45.4816 45.4411Z" fill="#DF2126"/>
<path opacity="0.2" d="M45.4816 45.4411L45.9532 43.9838L43.4066 43.168L42.935 44.6205C42.8738 44.8148 42.7724 44.9941 42.6376 45.1468C42.5028 45.2995 42.3374 45.4222 42.1522 45.5071C41.9666 45.5909 41.8006 45.7127 41.6649 45.8646C41.5293 46.0164 41.427 46.1951 41.3646 46.389L38.6812 54.7503C38.6509 54.8485 38.6404 54.9517 38.6503 55.0539C38.6603 55.1562 38.6905 55.2554 38.7392 55.3459C38.788 55.4363 38.8542 55.5161 38.9341 55.5807C39.0141 55.6452 39.106 55.6932 39.2047 55.7218L42.1003 56.665C42.1972 56.6966 42.2994 56.7087 42.401 56.7006C42.5026 56.6925 42.6016 56.6645 42.6923 56.618C42.783 56.5716 42.8637 56.5076 42.9296 56.4299C42.9955 56.3522 43.0455 56.2622 43.0765 56.1651L45.7599 47.8037C45.8203 47.6098 45.8403 47.4054 45.8184 47.2034C45.7964 47.0013 45.7332 46.806 45.6325 46.6295C45.5249 46.4533 45.4558 46.2563 45.4298 46.0514C45.4038 45.8466 45.4214 45.6386 45.4816 45.4411Z" fill="black"/>
<path opacity="0.5" d="M45.0904 49.7986L45.7365 47.7896C45.797 47.5956 45.8169 47.3912 45.795 47.1892C45.7731 46.9872 45.7098 46.7919 45.6092 46.6153C45.5074 46.4392 45.4436 46.2438 45.4216 46.0416C45.3997 45.8394 45.4202 45.6349 45.4818 45.4411L45.9534 43.9838L43.4068 43.168L42.9352 44.6205C42.874 44.8148 42.7727 44.9941 42.6378 45.1468C42.503 45.2995 42.3376 45.4222 42.1524 45.5071C41.9668 45.5909 41.8008 45.7127 41.6652 45.8646C41.5295 46.0164 41.4272 46.1951 41.3648 46.389L40.7188 48.398L45.0904 49.7986Z" fill="white"/>
<path opacity="0.6" d="M39.7801 51.3232L38.6812 54.7517C38.6509 54.8499 38.6404 54.9531 38.6503 55.0553C38.6603 55.1576 38.6905 55.2568 38.7392 55.3473C38.788 55.4377 38.8542 55.5175 38.9341 55.5821C39.0141 55.6466 39.106 55.6946 39.2047 55.7232L42.1003 56.6664C42.1972 56.698 42.2994 56.7101 42.401 56.702C42.5026 56.6939 42.6016 56.6659 42.6923 56.6194C42.783 56.573 42.8637 56.509 42.9296 56.4313C42.9955 56.3536 43.0455 56.2636 43.0765 56.1665L44.1753 52.738L39.7801 51.3232Z" fill="white"/>
<path d="M46.0796 43.5834L43.5513 42.7726C43.4199 42.7305 43.2791 42.8028 43.237 42.9343L43.0224 43.6034C42.9802 43.7349 43.0526 43.8756 43.1841 43.9177L45.7123 44.7285C45.8438 44.7706 45.9845 44.6983 46.0267 44.5668L46.2412 43.8977C46.2834 43.7663 46.211 43.6255 46.0796 43.5834Z" fill="#DF2126"/>
<path d="M36.908 47.8468L37.3796 46.3896L34.833 45.5737L34.3614 47.0262C34.3001 47.2199 34.1987 47.3986 34.0638 47.5505C33.929 47.7024 33.7636 47.8243 33.5786 47.9081C33.3928 47.9917 33.2267 48.1134 33.091 48.2653C32.9553 48.4172 32.8531 48.596 32.791 48.79L30.1076 57.1514C30.0453 57.3465 30.063 57.5583 30.1567 57.7405C30.2504 57.9226 30.4125 58.0601 30.6075 58.1229L33.5031 59.066C33.6 59.0976 33.7022 59.1097 33.8038 59.1016C33.9054 59.0936 34.0044 59.0655 34.0951 59.0191C34.1859 58.9726 34.2665 58.9087 34.3324 58.831C34.3984 58.7532 34.4483 58.6632 34.4793 58.5662L37.1627 50.2048C37.2232 50.0108 37.2431 49.8064 37.2212 49.6044C37.1992 49.4024 37.136 49.207 37.0353 49.0305C36.9323 48.8532 36.8677 48.6561 36.8457 48.4522C36.8238 48.2483 36.845 48.042 36.908 47.8468Z" fill="#DF2126"/>
<path opacity="0.2" d="M36.908 47.8468L37.3796 46.3896L34.833 45.5737L34.3614 47.0262C34.3001 47.2199 34.1987 47.3986 34.0638 47.5505C33.929 47.7024 33.7636 47.8243 33.5786 47.9081C33.3928 47.9917 33.2267 48.1134 33.091 48.2653C32.9553 48.4172 32.8531 48.596 32.791 48.79L30.1076 57.1514C30.0453 57.3465 30.063 57.5583 30.1567 57.7405C30.2504 57.9226 30.4125 58.0601 30.6075 58.1229L33.5031 59.066C33.6 59.0976 33.7022 59.1097 33.8038 59.1016C33.9054 59.0936 34.0044 59.0655 34.0951 59.0191C34.1859 58.9726 34.2665 58.9087 34.3324 58.831C34.3984 58.7532 34.4483 58.6632 34.4793 58.5662L37.1627 50.2048C37.2232 50.0108 37.2431 49.8064 37.2212 49.6044C37.1992 49.4024 37.136 49.207 37.0353 49.0305C36.9323 48.8532 36.8677 48.6561 36.8457 48.4522C36.8238 48.2483 36.845 48.042 36.908 47.8468Z" fill="black"/>
<path opacity="0.5" d="M36.5164 52.1892L37.1577 50.1802C37.2201 49.9867 37.2414 49.7823 37.2203 49.5802C37.1991 49.378 37.1361 49.1824 37.0351 49.0059C36.9334 48.8298 36.8695 48.6344 36.8476 48.4322C36.8257 48.23 36.8462 48.0255 36.9078 47.8317L37.3794 46.3745L34.8328 45.5586L34.3612 47.0111C34.2999 47.2048 34.1985 47.3834 34.0636 47.5354C33.9287 47.6873 33.7634 47.8092 33.5783 47.893C33.3913 47.9783 33.2244 48.1023 33.0887 48.2567C32.9529 48.4111 32.8514 48.5926 32.7908 48.789L32.1306 50.7886L36.5164 52.1892Z" fill="white"/>
<path opacity="0.6" d="M31.1876 53.7139L30.0888 57.1423C30.0573 57.2389 30.0453 57.3408 30.0534 57.4421C30.0615 57.5434 30.0897 57.642 30.1361 57.7324C30.1826 57.8227 30.2466 57.9029 30.3242 57.9684C30.4019 58.0339 30.4918 58.0833 30.5887 58.1138L33.4843 59.057C33.5812 59.0886 33.6834 59.1007 33.785 59.0926C33.8866 59.0846 33.9856 59.0565 34.0763 59.01C34.1671 58.9636 34.2477 58.8997 34.3136 58.8219C34.3796 58.7442 34.4295 58.6542 34.4605 58.5571L35.5593 55.1286L31.1876 53.7139Z" fill="white"/>
<path d="M37.5077 45.9662L34.9794 45.1554C34.848 45.1133 34.7072 45.1857 34.6651 45.3171L34.4505 45.9862C34.4083 46.1177 34.4807 46.2584 34.6122 46.3005L37.1404 47.1113C37.2719 47.1535 37.4126 47.0811 37.4548 46.9496L37.6693 46.2805C37.7115 46.1491 37.6391 46.0083 37.5077 45.9662Z" fill="#DF2126"/>
<path d="M39.4642 43.6297L39.3652 42.1064L36.6959 42.2715L36.795 43.7995C36.8074 44.0019 36.7773 44.2046 36.7066 44.3947C36.636 44.5847 36.5263 44.7579 36.3847 44.903C36.2422 45.0485 36.132 45.2224 36.0613 45.4134C35.9906 45.6043 35.961 45.8081 35.9744 46.0112L36.7384 58.2444C36.7517 58.4492 36.8455 58.6404 36.9991 58.7765C37.1528 58.9125 37.354 58.9823 37.5589 58.9706L40.596 58.7773C40.6974 58.7713 40.7967 58.7453 40.888 58.7007C40.9793 58.6561 41.0609 58.5938 41.128 58.5175C41.1951 58.4412 41.2464 58.3524 41.2789 58.2561C41.3114 58.1598 41.3246 58.0581 41.3175 57.9567L40.5536 45.7283C40.5395 45.5248 40.4836 45.3265 40.3895 45.1455C40.2954 44.9646 40.165 44.805 40.0065 44.6766C39.8475 44.5501 39.717 44.3915 39.6235 44.2111C39.5301 44.0307 39.4758 43.8326 39.4642 43.6297Z" fill="#DF2126"/>
<path opacity="0.6" d="M40.7941 49.5671L40.5536 45.7283C40.5395 45.5248 40.4836 45.3265 40.3895 45.1455C40.2954 44.9646 40.165 44.805 40.0065 44.6766C39.8475 44.5501 39.717 44.3915 39.6235 44.2111C39.5301 44.0307 39.4758 43.8326 39.4642 43.6297L39.3652 42.1064L36.6959 42.2715L36.795 43.7995C36.8074 44.0019 36.7773 44.2046 36.7066 44.3947C36.636 44.5847 36.5263 44.7579 36.3847 44.903C36.2422 45.0485 36.132 45.2224 36.0613 45.4134C35.9906 45.6043 35.961 45.8081 35.9744 46.0112L36.2149 49.8547L40.7941 49.5671Z" fill="white"/>
<path opacity="0.6" d="M36.5118 54.6514L36.7382 58.245C36.7516 58.4498 36.8453 58.641 36.999 58.777C37.1527 58.9131 37.3539 58.9829 37.5588 58.9712L40.5958 58.7779C40.6973 58.7719 40.7965 58.7458 40.8878 58.7013C40.9791 58.6567 41.0607 58.5944 41.1278 58.5181C41.1949 58.4418 41.2462 58.353 41.2787 58.2567C41.3113 58.1604 41.3244 58.0587 41.3174 57.9573L41.091 54.3638L36.5118 54.6514Z" fill="white"/>
<path d="M39.3284 41.6892L36.6785 41.855C36.5408 41.8636 36.4361 41.9823 36.4447 42.1201L36.4886 42.8214C36.4972 42.9591 36.6159 43.0638 36.7536 43.0552L39.4035 42.8894C39.5413 42.8808 39.646 42.7621 39.6374 42.6244L39.5935 41.9231C39.5849 41.7853 39.4662 41.6806 39.3284 41.6892Z" fill="#DF2126"/>
<path d="M30.2966 48.3186L29.3062 47.1538L27.2689 48.8846L28.2593 50.0494C28.3899 50.2049 28.4871 50.3856 28.5447 50.5804C28.6023 50.7751 28.6192 50.9797 28.5941 51.1812C28.5663 51.3836 28.5818 51.5895 28.6395 51.7854C28.6972 51.9814 28.7959 52.1628 28.9289 52.3178L36.847 61.6742C36.9796 61.8304 37.1689 61.9276 37.3731 61.9444C37.5774 61.9612 37.78 61.8962 37.9364 61.7638L40.2519 59.7925C40.3298 59.7272 40.394 59.6471 40.4407 59.5568C40.4874 59.4665 40.5157 59.3679 40.5241 59.2665C40.5324 59.1652 40.5206 59.0633 40.4892 58.9666C40.4579 58.8698 40.4077 58.7803 40.3415 58.7031L32.4093 49.3609C32.2786 49.2053 32.1165 49.0791 31.9336 48.9905C31.7508 48.902 31.5513 48.853 31.3482 48.8468C31.1457 48.8373 30.9475 48.7854 30.7663 48.6944C30.5851 48.6034 30.4251 48.4754 30.2966 48.3186Z" fill="#DF2126"/>
<path opacity="0.6" d="M34.9135 52.2927L32.4234 49.3594C32.2927 49.2039 32.1306 49.0777 31.9478 48.9891C31.7649 48.9005 31.5654 48.8515 31.3624 48.8454C31.1585 48.8396 30.9582 48.7908 30.7745 48.7022C30.5909 48.6136 30.428 48.4872 30.2966 48.3313L29.3062 47.1665L27.2689 48.8973L28.2593 50.0621C28.3899 50.2176 28.4871 50.3983 28.5447 50.5931C28.6023 50.7878 28.6192 50.9924 28.5941 51.1939C28.5666 51.3959 28.5817 51.6014 28.6386 51.7972C28.6954 51.993 28.7927 52.1747 28.9242 52.3305L31.4189 55.2638L34.9135 52.2927Z" fill="white"/>
<path opacity="0.6" d="M34.5263 58.93L36.8843 61.6747C37.0169 61.8309 37.2062 61.9281 37.4104 61.9449C37.6147 61.9617 37.8173 61.8968 37.9737 61.7643L40.2892 59.793C40.3671 59.7277 40.4312 59.6476 40.478 59.5573C40.5247 59.467 40.553 59.3684 40.5614 59.2671C40.5697 59.1657 40.5578 59.0638 40.5265 58.9671C40.4952 58.8704 40.445 58.7808 40.3788 58.7037L38.0491 55.959L34.5263 58.93Z" fill="white"/>
<path d="M29.02 46.8592L26.996 48.5775C26.8907 48.6668 26.8778 48.8246 26.9672 48.9298L27.4219 49.4655C27.5113 49.5707 27.669 49.5836 27.7742 49.4942L29.7983 47.7759C29.9035 47.6866 29.9164 47.5288 29.8271 47.4236L29.3723 46.8879C29.283 46.7827 29.1252 46.7698 29.02 46.8592Z" fill="#DF2126"/>
<path d="M39.8459 99.7543C39.8459 99.7543 63.1049 98.8866 65.6704 98.8866C68.2359 98.8866 66.2458 96.788 66.2458 96.788C66.2458 96.788 66.6655 89.6103 66.2458 86.8845C65.826 84.1587 58.5635 64.7809 53.6118 60.2064C48.66 55.632 48.7119 53.9107 48.7119 53.9107C48.7119 53.9107 49.4948 54.0804 49.4948 52.6138C49.4948 51.298 44.194 49.1664 40.3694 48.8788C37.8039 48.6901 31.8288 50.8689 28.9097 51.0528C25.9905 51.2367 18.4167 60.9563 19.5249 62.7625C19.8975 63.3803 26.2782 61.4279 26.2782 61.4279C26.0874 64.4458 25.6474 67.4428 24.9624 70.3881C23.9296 74.3401 21.3547 81.1971 21.3547 85.0642C21.3547 88.9312 24.6182 96.6842 24.6182 96.6842C24.6182 96.6842 23.2411 97.6274 23.2411 98.3867C23.2411 99.146 27.5373 98.8206 27.5373 98.8206C27.5373 98.8206 35.7242 99.7543 39.8459 99.7543Z" fill="#263238"/>
<path opacity="0.5" d="M65.666 98.8885C63.1052 98.8885 39.8462 99.7563 39.8462 99.7563C35.7292 99.7563 27.5376 98.8131 27.5376 98.8131C27.5376 98.8131 23.2461 99.1573 23.2461 98.3792C23.2461 97.6011 24.6185 96.6768 24.6185 96.6768C24.6185 96.6768 23.4961 94.017 22.5717 91.0176C21.9162 88.9096 21.355 86.6365 21.355 85.0378C21.355 81.1707 23.9299 74.3043 24.958 70.3618C25.6455 67.4168 26.0872 64.4197 26.2785 61.4015C24.4212 61.9828 22.5316 62.4552 20.6193 62.8163C20.0346 62.8918 19.6148 62.8871 19.53 62.7456C18.4217 60.9205 25.9955 51.2198 28.9147 51.0359C31.8338 50.852 37.8089 48.6779 40.3791 48.8666C44.1943 49.1448 49.495 51.2764 49.495 52.5969C49.495 54.0635 48.7169 53.8938 48.7169 53.8938C48.7169 53.8938 48.665 55.6151 53.6168 60.1895C58.5685 64.764 65.8311 84.1182 66.2508 86.8676C66.345 87.6077 66.4001 88.3523 66.4158 89.0982C66.5101 92.3287 66.2508 96.7899 66.2508 96.7899C66.2508 96.7899 68.2315 98.8885 65.666 98.8885Z" fill="white"/>
<path opacity="0.2" d="M30.4378 55.8262C28.6552 56.8825 26.2783 61.4098 26.2783 61.4098C24.4211 61.9911 22.5315 62.4635 20.6192 62.8246C23.0951 58.9623 28.6552 56.5288 30.4378 55.8262Z" fill="black"/>
<path opacity="0.2" d="M30.9896 55.6182C30.9425 55.6182 30.7491 55.6983 30.4379 55.8257C30.6052 55.7185 30.7932 55.6478 30.9896 55.6182Z" fill="black"/>
<path opacity="0.2" d="M48.7124 53.8915C48.7124 53.8915 43.3976 51.3779 41.3037 51.0336C39.2098 50.6893 31.5417 53.3255 31.5417 53.3255C31.5417 53.3255 38.7052 49.2038 41.3037 49.7744C43.9022 50.3451 47.9673 52.2126 48.7124 53.8915Z" fill="black"/>
<path opacity="0.2" d="M65.6658 98.8885C63.105 98.8885 39.846 99.7562 39.846 99.7562C35.729 99.7562 27.5374 98.813 27.5374 98.813C27.5374 98.813 23.2459 99.1573 23.2459 98.3791C23.2459 97.601 24.6182 96.6767 24.6182 96.6767C24.6182 96.6767 23.4959 94.0169 22.5715 91.0176C27.1601 93.7104 33.7012 96.7239 40.129 96.8323C40.129 96.8323 31.4847 93.1114 29.6266 88.9473C29.6266 88.9473 42.0484 95.5496 45.1892 95.7146C48.33 95.8797 61.0583 97.1058 62.2043 95.3515C62.9211 94.2527 64.9584 91.2015 66.392 89.0746C66.4864 92.305 66.227 96.7663 66.227 96.7663C66.227 96.7663 68.2313 98.8885 65.6658 98.8885Z" fill="black"/>
</svg>
