<svg width="301" height="94" viewBox="0 0 301 94" fill="none" xmlns="http://www.w3.org/2000/svg">
<g clip-path="url(#clip0_52_910)">
<path d="M49.3209 73.4345C49.2681 84.6287 56.8991 92.9344 68.1274 93.828C77.8507 94.7948 87.2431 88.7015 90.9872 79.6702C92.1576 77.0169 92.9131 73.996 92.7761 71.3111C92.6528 65.7654 88.1943 62.4222 82.9452 62.0525C79.9292 61.835 76.9973 62.7227 74.0929 63.4246C73.4803 63.5709 70.4369 64.2391 70.658 63.132C70.8263 62.6199 71.9537 61.9595 72.5604 61.6155C73.8189 60.9117 75.046 60.2296 76.2673 59.4763C89.4743 51.7598 99.5988 38.7546 103.599 23.8712C104.77 19.8479 104.746 15.3678 103.259 11.4631C100.552 3.9601 93.4317 -0.749294 85.466 0.100848C77.1637 0.697925 69.9456 6.44528 66.8709 14.1282C66.4951 15.0199 66.1624 15.9352 65.8512 16.8566C60.8408 32.7423 55.7737 48.6202 50.8612 64.5377C49.9355 67.4321 49.2563 70.3641 49.3209 73.4048V73.4365V73.4345Z" fill="#3F71FD"/>
<path d="M55.1104 20.4943C55.1633 9.30011 47.5323 0.994416 36.3039 0.100778C26.5807 -0.866011 17.1882 5.22733 13.4441 14.2586C12.2737 16.9118 11.5183 19.9328 11.6553 22.6177C11.7786 28.1634 16.237 31.5066 21.4862 31.8763C24.5022 32.0938 27.434 31.2061 30.3385 30.5042C30.9511 30.3579 33.9945 29.6897 33.7733 30.7968C33.605 31.3089 32.4777 31.9692 31.8709 32.3133C30.6125 33.0171 29.3853 33.6992 28.164 34.4524C14.957 42.1709 4.83059 55.1761 0.830126 70.0595C-0.340265 74.0829 -0.316779 78.563 1.17068 82.4677C3.87745 89.9707 10.9977 94.6801 18.9634 93.8299C27.2657 93.2328 34.4838 87.4855 37.5585 79.8026C37.9343 78.9109 38.267 77.9955 38.5782 77.0742C43.5886 61.1884 48.6557 45.3105 53.5682 29.3931C54.4939 26.4987 55.1731 23.5667 55.1085 20.5259V20.4943H55.1104Z" fill="#3F71FD"/>
<path d="M110.377 60.8721C110.377 42.7898 125.021 27.8708 143.923 27.8708C162.825 27.8708 177.594 42.9163 177.594 60.8721C177.594 78.8279 162.951 94 143.923 94C124.895 94 110.377 79.081 110.377 60.8721ZM159.819 60.9986C159.819 52.1473 153.059 44.8143 143.923 44.8143C134.787 44.8143 128.152 52.1473 128.152 60.9986C128.152 69.85 134.787 77.183 143.923 77.183C153.059 77.183 159.819 69.85 159.819 60.9986Z" fill="#3F71FD"/>
<path d="M191.042 92.3551C190.11 92.3551 189.353 91.5919 189.353 90.6488V56.4455C189.353 40.3877 198.366 28.1219 216.765 28.1219C220.313 28.1219 224.157 28.717 227.165 29.8202C227.837 30.0673 228.281 30.7079 228.281 31.4295V45.0101C228.281 46.2022 227.091 47.0385 225.999 46.5878C223.539 45.5715 220.857 45.0634 218.393 45.0634C211.383 45.0634 207.128 49.6147 207.128 57.0761V90.6488C207.128 91.5899 206.372 92.3551 205.439 92.3551H191.042Z" fill="#3F71FD"/>
<path d="M233.785 60.8721C233.785 42.9163 248.305 27.8708 267.331 27.8708C286.356 27.8708 301.002 42.0326 301.002 60.8721V90.6508C301.002 91.5919 300.246 92.357 299.313 92.357H285.791C284.859 92.357 284.102 91.5939 284.102 90.6508V89.2688C284.102 87.8038 282.395 87.0248 281.305 87.9916C277.048 91.7738 271.319 93.998 264.45 93.998C246.426 93.998 233.783 79.079 233.783 60.8701L233.785 60.8721ZM283.225 60.9986C283.225 52.1473 276.465 44.8143 267.329 44.8143C258.193 44.8143 251.558 52.1473 251.558 60.9986C251.558 69.85 258.193 77.183 267.329 77.183C276.465 77.183 283.225 69.85 283.225 60.9986Z" fill="#3F71FD"/>
</g>
<defs>
<clipPath id="clip0_52_910">
<rect width="301" height="94" fill="white"/>
</clipPath>
</defs>
</svg>
