<svg width="104" height="92" viewBox="0 0 104 92" fill="none" xmlns="http://www.w3.org/2000/svg">
<path d="M49.1177 71.7515C49.0643 82.6891 56.664 90.8039 67.8466 91.6767C77.5309 92.6218 86.8832 86.6679 90.612 77.843C91.7767 75.2504 92.5302 72.2984 92.3936 69.6754C92.2712 64.2567 87.8313 60.9913 82.6034 60.6288C79.6005 60.4164 76.6793 61.2845 73.7871 61.969C73.1765 62.1122 70.1454 62.7648 70.366 61.6828C70.5331 61.1826 71.6563 60.5378 72.2614 60.2002C73.5148 59.5133 74.7368 58.8467 75.9533 58.11C89.1051 50.5701 99.1889 37.8629 103.173 23.3214C104.338 19.39 104.315 15.0129 102.834 11.1975C100.138 3.86684 93.0474 -0.735032 85.1149 0.0965106C76.8465 0.679135 69.6588 6.29458 66.5963 13.8026C66.2227 14.6746 65.8915 15.5676 65.5807 16.4683C60.5906 31.9892 55.544 47.5038 50.652 63.0565C49.7306 65.8856 49.0541 68.7489 49.1177 71.7212V71.7515Z" fill="#3F71FD"/>
<path d="M54.8824 20.0242C54.9358 9.08662 47.3361 0.971882 36.1535 0.0991123C26.4692 -0.845999 17.1169 5.10781 13.3881 13.9327C12.2233 16.5254 11.4699 19.4774 11.6064 22.1004C11.7289 27.519 16.1688 30.7845 21.3967 31.147C24.3995 31.3594 27.3207 30.4913 30.2129 29.8067C30.8235 29.6636 33.8546 29.011 33.6341 30.093C33.4669 30.5932 32.3438 31.238 31.7387 31.5756C30.4853 32.2625 29.2633 32.9291 28.0467 33.6657C14.895 41.2049 4.81118 53.9121 0.827273 68.4536C-0.337448 72.385 -0.314687 76.7621 1.16633 80.5775C3.8623 87.9081 10.9527 92.51 18.8852 91.6785C27.1536 91.0959 34.3413 85.4804 37.4037 77.9724C37.7773 77.1004 38.1085 76.2074 38.4193 75.3067C43.4094 59.7858 48.456 44.2712 53.348 28.7185C54.2694 25.8894 54.946 23.026 54.8824 20.0538V20.0235V20.0242Z" fill="#3F71FD"/>
</svg>
