<svg width="201" height="191" viewBox="0 0 201 191" fill="none" xmlns="http://www.w3.org/2000/svg">
<path d="M189.855 137.985C204.426 103.359 206.27 54.4242 181.159 24.0308C167.307 7.26344 145.511 1.6899 124.706 0.446143C106.057 -0.687243 86.1015 -0.224549 69.1575 8.65152C40.4466 23.6402 39.736 59.3313 18.2282 80.3902C0.886648 97.3698 -6.30377 121.566 8.50003 153.402C23.3038 185.239 50.7966 192.455 77.8664 182.268C104.936 172.08 117.202 169.957 149.771 175.051C164.739 177.394 175.601 166.137 182.17 153.975C184.982 148.767 187.567 143.427 189.855 137.985Z" fill="#3D63DD"/>
<path opacity="0.7" d="M189.855 137.985C204.426 103.359 206.27 54.4242 181.159 24.0308C167.307 7.26344 145.511 1.6899 124.706 0.446143C106.057 -0.687243 86.1015 -0.224549 69.1575 8.65152C40.4466 23.6402 39.736 59.3313 18.2282 80.3902C0.886648 97.3698 -6.30377 121.566 8.50003 153.402C23.3038 185.239 50.7966 192.455 77.8664 182.268C104.936 172.08 117.202 169.957 149.771 175.051C164.739 177.394 175.601 166.137 182.17 153.975C184.982 148.767 187.567 143.427 189.855 137.985Z" fill="white"/>
<g opacity="0.2">
<path d="M42.8078 1.09131H61.6256V26.0725H38.0621" stroke="black" stroke-linecap="round" stroke-linejoin="round"/>
<path d="M35.6004 26.0725H29.8693V1.09131H40.3461" stroke="black" stroke-linecap="round" stroke-linejoin="round"/>
<path d="M35.7529 8.34229H32.2677V11.8407H35.7529V8.34229Z" stroke="black" stroke-linecap="round" stroke-linejoin="round"/>
<path d="M40.4478 8.34229H36.9625V11.8407H40.4478V8.34229Z" stroke="black" stroke-linecap="round" stroke-linejoin="round"/>
<path d="M45.1426 8.34229H41.6573V11.8407H45.1426V8.34229Z" stroke="black" stroke-linecap="round" stroke-linejoin="round"/>
<path d="M49.8377 8.34229H46.3524V11.8407H49.8377V8.34229Z" stroke="black" stroke-linecap="round" stroke-linejoin="round"/>
<path d="M54.5366 8.34229H51.0514V11.8407H54.5366V8.34229Z" stroke="black" stroke-linecap="round" stroke-linejoin="round"/>
<path d="M59.2315 8.34229H55.7462V11.8407H59.2315V8.34229Z" stroke="black" stroke-linecap="round" stroke-linejoin="round"/>
<path d="M35.7529 13.207H32.2677V16.7054H35.7529V13.207Z" stroke="black" stroke-linecap="round" stroke-linejoin="round"/>
<path d="M40.4478 13.207H36.9625V16.7054H40.4478V13.207Z" stroke="black" stroke-linecap="round" stroke-linejoin="round"/>
<path d="M45.1426 13.207H41.6573V16.7054H45.1426V13.207Z" stroke="black" stroke-linecap="round" stroke-linejoin="round"/>
<path d="M49.8377 13.207H46.3524V16.7054H49.8377V13.207Z" stroke="black" stroke-linecap="round" stroke-linejoin="round"/>
<path d="M54.5366 13.207H51.0514V16.7054H54.5366V13.207Z" stroke="black" stroke-linecap="round" stroke-linejoin="round"/>
<path d="M59.2315 13.207H55.7462V16.7054H59.2315V13.207Z" stroke="black" stroke-linecap="round" stroke-linejoin="round"/>
<path d="M35.7529 18.0713H32.2677V21.5697H35.7529V18.0713Z" stroke="black" stroke-linecap="round" stroke-linejoin="round"/>
<path d="M40.4478 18.0713H36.9625V21.5697H40.4478V18.0713Z" stroke="black" stroke-linecap="round" stroke-linejoin="round"/>
<path d="M45.1426 18.0713H41.6573V21.5697H45.1426V18.0713Z" stroke="black" stroke-linecap="round" stroke-linejoin="round"/>
<path d="M49.8377 18.0713H46.3524V21.5697H49.8377V18.0713Z" stroke="black" stroke-linecap="round" stroke-linejoin="round"/>
<path d="M54.5366 18.0713H51.0514V21.5697H54.5366V18.0713Z" stroke="black" stroke-linecap="round" stroke-linejoin="round"/>
<path d="M59.2315 18.0713H55.7462V21.5697H59.2315V18.0713Z" stroke="black" stroke-linecap="round" stroke-linejoin="round"/>
<path d="M59.3626 4.53906H32.3986V5.75331H59.3626V4.53906Z" stroke="black" stroke-linecap="round" stroke-linejoin="round"/>
</g>
<g opacity="0.2">
<path d="M181.159 29.6421H193.032V54.6275H189.948" stroke="black" stroke-linecap="round" stroke-linejoin="round"/>
<path d="M187.838 54.6275H161.271V29.6421H178.346" stroke="black" stroke-linecap="round" stroke-linejoin="round"/>
<path d="M167.155 36.8921H163.67V40.3905H167.155V36.8921Z" stroke="black" stroke-linecap="round" stroke-linejoin="round"/>
<path d="M171.854 36.8921H168.369V40.3905H171.854V36.8921Z" stroke="black" stroke-linecap="round" stroke-linejoin="round"/>
<path d="M176.549 36.8921H173.064V40.3905H176.549V36.8921Z" stroke="black" stroke-linecap="round" stroke-linejoin="round"/>
<path d="M181.244 36.8921H177.759V40.3905H181.244V36.8921Z" stroke="black" stroke-linecap="round" stroke-linejoin="round"/>
<path d="M185.939 36.8921H182.454V40.3905H185.939V36.8921Z" stroke="black" stroke-linecap="round" stroke-linejoin="round"/>
<path d="M190.634 36.8921H187.149V40.3905H190.634V36.8921Z" stroke="black" stroke-linecap="round" stroke-linejoin="round"/>
<path d="M167.155 41.7568H163.67V45.2552H167.155V41.7568Z" stroke="black" stroke-linecap="round" stroke-linejoin="round"/>
<path d="M171.854 41.7568H168.369V45.2552H171.854V41.7568Z" stroke="black" stroke-linecap="round" stroke-linejoin="round"/>
<path d="M176.549 41.7568H173.064V45.2552H176.549V41.7568Z" stroke="black" stroke-linecap="round" stroke-linejoin="round"/>
<path d="M181.244 41.7568H177.759V45.2552H181.244V41.7568Z" stroke="black" stroke-linecap="round" stroke-linejoin="round"/>
<path d="M185.939 41.7568H182.454V45.2552H185.939V41.7568Z" stroke="black" stroke-linecap="round" stroke-linejoin="round"/>
<path d="M190.634 41.7568H187.149V45.2552H190.634V41.7568Z" stroke="black" stroke-linecap="round" stroke-linejoin="round"/>
<path d="M167.155 46.6211H163.67V50.1195H167.155V46.6211Z" stroke="black" stroke-linecap="round" stroke-linejoin="round"/>
<path d="M171.854 46.6211H168.369V50.1195H171.854V46.6211Z" stroke="black" stroke-linecap="round" stroke-linejoin="round"/>
<path d="M176.549 46.6211H173.064V50.1195H176.549V46.6211Z" stroke="black" stroke-linecap="round" stroke-linejoin="round"/>
<path d="M181.244 46.6211H177.759V50.1195H181.244V46.6211Z" stroke="black" stroke-linecap="round" stroke-linejoin="round"/>
<path d="M185.939 46.6211H182.454V50.1195H185.939V46.6211Z" stroke="black" stroke-linecap="round" stroke-linejoin="round"/>
<path d="M190.634 46.6211H187.149V50.1195H190.634V46.6211Z" stroke="black" stroke-linecap="round" stroke-linejoin="round"/>
<path d="M190.769 33.0933H163.805V34.3117H190.769V33.0933Z" stroke="black" stroke-linecap="round" stroke-linejoin="round"/>
</g>
<g opacity="0.2">
<path d="M14.1688 69.5955V56.5594C14.1666 56.3451 14.2067 56.1324 14.2869 55.9337C14.3671 55.735 14.4857 55.5542 14.636 55.4018C14.7863 55.2494 14.9651 55.1285 15.1623 55.0459C15.3594 54.9634 15.5709 54.9209 15.7845 54.9209H36.0869C36.5165 54.9209 36.9286 55.0922 37.2324 55.3971C37.5362 55.702 37.7068 56.1155 37.7068 56.5467V75.2964H14.1688V72.4183" stroke="black" stroke-linecap="round" stroke-linejoin="round"/>
<path d="M14.4604 59.3608H37.3979" stroke="black" stroke-linecap="round" stroke-linejoin="round"/>
<path d="M19.9547 63.1978H16.5203V65.8513H35.338V63.1978H23.4696" stroke="black" stroke-linecap="round" stroke-linejoin="round"/>
<path d="M35.338 68.8057H16.5203V71.4634H35.338V68.8057Z" stroke="black" stroke-linecap="round" stroke-linejoin="round"/>
</g>
<g opacity="0.2">
<path d="M111.374 164.438H131.676C132.105 164.438 132.516 164.609 132.819 164.913C133.122 165.218 133.292 165.63 133.292 166.06V184.814H109.758V166.077C109.756 165.863 109.796 165.65 109.876 165.451C109.956 165.253 110.075 165.072 110.225 164.919C110.376 164.767 110.554 164.646 110.752 164.564C110.949 164.481 111.16 164.438 111.374 164.438Z" stroke="black" stroke-linecap="round" stroke-linejoin="round"/>
<path d="M110.05 168.879H132.987" stroke="black" stroke-linecap="round" stroke-linejoin="round"/>
<path d="M130.928 172.716H112.11V175.374H130.928V172.716Z" stroke="black" stroke-linecap="round" stroke-linejoin="round"/>
<path d="M130.928 178.323H112.11V180.981H130.928V178.323Z" stroke="black" stroke-linecap="round" stroke-linejoin="round"/>
</g>
<g opacity="0.2">
<path d="M115.932 5.55687C113.408 3.14538 110.033 1.83891 106.55 1.92489C103.066 2.01086 99.7587 3.48224 97.3558 6.01532C94.953 8.54841 93.6512 11.9357 93.7369 15.4321C93.8226 18.9284 95.2886 22.2474 97.8126 24.6589" stroke="black" stroke-linecap="round" stroke-linejoin="round"/>
<path d="M99.293 25.9409C101.9 27.8774 105.129 28.7773 108.358 28.4674C111.587 28.1575 114.588 26.6597 116.782 24.2624C118.977 21.865 120.21 18.7377 120.244 15.4825C120.279 12.2273 119.112 9.07436 116.969 6.63086" stroke="black" stroke-linecap="round" stroke-linejoin="round"/>
<path d="M113.124 15.3457H107.114V25.5886" stroke="black" stroke-linecap="round" stroke-linejoin="round"/>
</g>
<g opacity="0.2">
<path d="M14.1294 24.4673C13.2178 24.6119 12.3464 24.9466 11.5715 25.4498C10.7966 25.9531 10.1354 26.6137 9.63046 27.3891C9.12551 28.1644 8.78805 29.0374 8.63983 29.9517C8.4916 30.866 8.53591 31.8013 8.76988 32.6973C9.00385 33.5934 9.4223 34.4303 9.99825 35.1541C10.5742 35.8779 11.2949 36.4726 12.1139 36.8998C12.9328 37.327 13.8319 37.5772 14.7531 37.6344C15.6743 37.6916 16.5972 37.5544 17.4624 37.2317" stroke="black" stroke-linecap="round" stroke-linejoin="round"/>
<path d="M19.6112 35.9075C20.5377 35.0502 21.2007 33.9451 21.5222 32.7222C21.8437 31.4993 21.8103 30.2097 21.4258 29.0053C21.0413 27.8008 20.3219 26.7318 19.3521 25.9241C18.3824 25.1164 17.2029 24.6036 15.9525 24.4463" stroke="black" stroke-linecap="round" stroke-linejoin="round"/>
<path d="M15.1445 27.6431V34.3967" stroke="black" stroke-miterlimit="10"/>
<path d="M18.5114 31.022H11.7778" stroke="black" stroke-miterlimit="10"/>
</g>
<g opacity="0.2">
<path d="M192.924 89.3177C196.573 89.3177 199.531 86.3491 199.531 82.6872C199.531 79.0252 196.573 76.0566 192.924 76.0566C189.276 76.0566 186.318 79.0252 186.318 82.6872C186.318 86.3491 189.276 89.3177 192.924 89.3177Z" stroke="black" stroke-linecap="round" stroke-linejoin="round"/>
<path d="M192.925 79.3086V86.0665" stroke="black" stroke-miterlimit="10"/>
<path d="M196.287 82.687H189.558" stroke="black" stroke-miterlimit="10"/>
</g>
<path d="M180.647 171.23H28.8027L28.9804 45.7808C28.9804 44.5728 29.4585 43.4143 30.3097 42.5601C31.1608 41.706 32.3151 41.2261 33.5188 41.2261H176.287C176.883 41.2255 177.473 41.3429 178.024 41.5716C178.575 41.8003 179.075 42.1358 179.497 42.5589C179.919 42.9819 180.253 43.4843 180.481 44.0371C180.709 44.59 180.826 45.1825 180.825 45.7808L180.647 171.23Z" fill="white" stroke="#263238" stroke-linecap="round" stroke-linejoin="round"/>
<path d="M70.5578 52.373H48.9993V56.8259H70.5578V52.373Z" stroke="#263238" stroke-linecap="round" stroke-linejoin="round"/>
<path d="M135.915 58.4399H175.229" stroke="#263238" stroke-linecap="round" stroke-linejoin="round"/>
<path d="M37.4099 58.4399H133.622" stroke="#263238" stroke-linecap="round" stroke-linejoin="round"/>
<path d="M176.287 41.2261H33.5189C32.3152 41.2261 31.1609 41.706 30.3097 42.5601C29.4586 43.4143 28.9805 44.5728 28.9805 45.7808V49.2489H180.825V45.7808C180.826 45.1825 180.709 44.59 180.481 44.0371C180.253 43.4843 179.919 42.9819 179.497 42.5589C179.076 42.1358 178.575 41.8003 178.024 41.5716C177.473 41.3429 176.883 41.2255 176.287 41.2261Z" fill="#263238" stroke="#263238" stroke-linecap="round" stroke-linejoin="round"/>
<path d="M37.2623 45.6798C37.2623 45.4077 37.1819 45.1418 37.0313 44.9155C36.8808 44.6893 36.6667 44.513 36.4163 44.4089C36.1659 44.3048 35.8904 44.2776 35.6245 44.3306C35.3587 44.3837 35.1145 44.5147 34.9229 44.7071C34.7312 44.8995 34.6007 45.1446 34.5478 45.4114C34.4949 45.6782 34.5221 45.9548 34.6258 46.2062C34.7295 46.4575 34.9052 46.6724 35.1305 46.8235C35.3559 46.9747 35.6209 47.0554 35.8919 47.0554C36.2554 47.0554 36.6039 46.9104 36.8609 46.6525C37.1179 46.3945 37.2623 46.0446 37.2623 45.6798Z" fill="white" stroke="#263238" stroke-linecap="round" stroke-linejoin="round"/>
<path d="M42.7311 45.6798C42.7311 45.4077 42.6507 45.1418 42.5001 44.9155C42.3495 44.6893 42.1355 44.513 41.8851 44.4089C41.6347 44.3048 41.3591 44.2776 41.0933 44.3306C40.8275 44.3837 40.5833 44.5147 40.3916 44.7071C40.2 44.8995 40.0694 45.1446 40.0166 45.4114C39.9637 45.6782 39.9908 45.9548 40.0946 46.2062C40.1983 46.4575 40.3739 46.6724 40.5993 46.8235C40.8246 46.9747 41.0896 47.0554 41.3606 47.0554C41.7241 47.0554 42.0727 46.9104 42.3297 46.6525C42.5867 46.3945 42.7311 46.0446 42.7311 45.6798Z" fill="white" stroke="#263238" stroke-linecap="round" stroke-linejoin="round"/>
<path d="M46.8382 47.0554C47.595 47.0554 48.2086 46.4395 48.2086 45.6798C48.2086 44.9201 47.595 44.3042 46.8382 44.3042C46.0813 44.3042 45.4678 44.9201 45.4678 45.6798C45.4678 46.4395 46.0813 47.0554 46.8382 47.0554Z" fill="white" stroke="#263238" stroke-linecap="round" stroke-linejoin="round"/>
<path d="M37.7444 52.6367H44.2411" stroke="#263238" stroke-linecap="round" stroke-linejoin="round"/>
<path d="M37.7444 54.3901H44.2411" stroke="#263238" stroke-linecap="round" stroke-linejoin="round"/>
<path d="M37.7444 56.1387H44.2411" stroke="#263238" stroke-linecap="round" stroke-linejoin="round"/>
<path d="M38.9539 68.1048V62.4845H37.8076V61.8521H40.798V62.4845H39.6475V68.1048H38.9539Z" fill="#263238"/>
<path d="M41.6355 66.844L41.3944 68.1175H40.7515L41.9442 61.8647H42.9509L44.1436 68.1175H43.45L43.2089 66.844H41.6355ZM41.7243 66.2455H43.1116L42.4095 62.6373L41.7243 66.2455Z" fill="#263238"/>
<path d="M47.3834 63.3502V63.52H46.7236V63.3162C46.7236 62.7517 46.5121 62.4206 46.013 62.4206C45.5139 62.4206 45.3025 62.7517 45.3025 63.3078C45.3025 64.7086 47.3919 64.8444 47.3919 66.6018C47.3919 67.5484 46.9393 68.1639 45.9877 68.1639C45.036 68.1639 44.5876 67.5484 44.5876 66.6018V66.2452H45.239V66.64C45.239 67.2003 45.4716 67.5314 45.9707 67.5314C46.4698 67.5314 46.6982 67.2003 46.6982 66.64C46.6982 65.2434 44.6173 65.1118 44.6173 63.3502C44.6173 62.3866 45.0402 61.7881 45.9961 61.7881C46.952 61.7881 47.3834 62.4036 47.3834 63.3502Z" fill="#263238"/>
<path d="M49.0585 65.388L48.6905 66.0036V68.1048H47.9968V61.8521H48.682V64.8702L50.3401 61.8521H51.0422L49.4772 64.6834L51.1056 68.0793H50.3739L49.0585 65.388Z" fill="#263238"/>
<path d="M54.2907 63.3502V63.52H53.6309V63.3162C53.6309 62.7517 53.4194 62.4206 52.9203 62.4206C52.4212 62.4206 52.2097 62.7517 52.2097 63.3078C52.2097 64.7086 54.2991 64.8444 54.2991 66.6018C54.2991 67.5484 53.8466 68.1639 52.8949 68.1639C51.9432 68.1639 51.4949 67.5484 51.4949 66.6018V66.2452H52.1462V66.64C52.1462 67.2003 52.3789 67.5314 52.878 67.5314C53.3771 67.5314 53.6055 67.2003 53.6055 66.64C53.6055 65.2434 51.5245 65.1118 51.5245 63.3502C51.5245 62.3866 51.9686 61.7881 52.9033 61.7881C53.8381 61.7881 54.2907 62.4036 54.2907 63.3502Z" fill="#263238"/>
<path d="M133.068 103.206H37.5161V128.828H133.068V103.206Z" fill="white" stroke="#263238" stroke-linecap="round" stroke-linejoin="round"/>
<path d="M111.145 109.892C111.568 109.892 111.742 110.138 111.742 110.542V110.864C111.742 111.289 111.543 111.51 111.124 111.51H110.858V112.567H110.562V109.892H111.145ZM111.124 111.242C111.344 111.242 111.45 111.14 111.45 110.886V110.529C111.45 110.283 111.361 110.16 111.145 110.16H110.858V111.242H111.124Z" fill="#263238"/>
<path d="M112.55 109.892C112.973 109.892 113.147 110.104 113.147 110.503V110.72C113.164 110.836 113.141 110.955 113.08 111.056C113.02 111.156 112.927 111.233 112.817 111.272C113.058 111.344 113.151 111.539 113.151 111.828V112.253C113.143 112.363 113.16 112.473 113.202 112.575H112.901C112.861 112.471 112.845 112.36 112.855 112.248V111.824C112.855 111.522 112.711 111.429 112.466 111.429H112.254V112.571H111.958V109.896L112.55 109.892ZM112.478 111.166C112.711 111.166 112.855 111.089 112.855 110.796V110.529C112.855 110.287 112.766 110.16 112.546 110.16H112.254V111.153L112.478 111.166Z" fill="#263238"/>
<path d="M113.451 110.529C113.451 110.104 113.654 109.854 114.06 109.854C114.466 109.854 114.673 110.117 114.673 110.529V111.913C114.68 111.997 114.67 112.083 114.642 112.163C114.615 112.244 114.571 112.318 114.513 112.381C114.456 112.443 114.386 112.493 114.308 112.527C114.231 112.562 114.147 112.579 114.062 112.579C113.977 112.579 113.893 112.562 113.816 112.527C113.738 112.493 113.668 112.443 113.611 112.381C113.553 112.318 113.509 112.244 113.482 112.163C113.454 112.083 113.444 111.997 113.451 111.913V110.529ZM113.747 111.925C113.747 112.172 113.848 112.312 114.06 112.312C114.271 112.312 114.377 112.172 114.377 111.925V110.529C114.377 110.287 114.28 110.142 114.06 110.142C113.84 110.142 113.747 110.287 113.747 110.529V111.925Z" fill="#263238"/>
<path d="M116.132 110.529V110.758H115.849V110.529C115.849 110.287 115.756 110.142 115.536 110.142C115.316 110.142 115.227 110.287 115.227 110.529V111.942C115.227 112.184 115.325 112.329 115.536 112.329C115.747 112.329 115.849 112.184 115.849 111.942V111.407H115.574V111.14H116.132V111.93C116.132 112.354 115.942 112.6 115.532 112.6C115.121 112.6 114.931 112.333 114.931 111.93V110.529C114.931 110.104 115.121 109.854 115.532 109.854C115.942 109.854 116.132 110.129 116.132 110.529Z" fill="#263238"/>
<path d="M117.008 109.892C117.431 109.892 117.6 110.104 117.6 110.503V110.72C117.618 110.836 117.594 110.955 117.534 111.056C117.474 111.156 117.381 111.233 117.27 111.272C117.516 111.344 117.604 111.539 117.604 111.828V112.253C117.596 112.363 117.615 112.474 117.659 112.575H117.359C117.317 112.472 117.3 112.36 117.308 112.248V111.824C117.308 111.522 117.169 111.429 116.919 111.429H116.712V112.571H116.412V109.896L117.008 109.892ZM116.932 111.166C117.169 111.166 117.308 111.089 117.308 110.796V110.529C117.308 110.287 117.219 110.16 117 110.16H116.712V111.153L116.932 111.166Z" fill="#263238"/>
<path d="M118.861 111.077V111.344H118.209V112.295H119.009V112.567H117.913V109.892H119.009V110.16H118.209V111.077H118.861Z" fill="#263238"/>
<path d="M120.438 110.529V110.601H120.163V110.529C120.163 110.287 120.074 110.147 119.859 110.147C119.643 110.147 119.554 110.287 119.554 110.525C119.554 111.127 120.451 111.183 120.451 111.934C120.451 112.359 120.256 112.605 119.846 112.605C119.436 112.605 119.25 112.342 119.25 111.934V111.781H119.529V111.951C119.529 112.193 119.626 112.333 119.842 112.333C120.057 112.333 120.15 112.193 120.15 111.951C120.15 111.357 119.262 111.297 119.262 110.546C119.262 110.121 119.453 109.875 119.85 109.875C120.248 109.875 120.438 110.125 120.438 110.529Z" fill="#263238"/>
<path d="M121.855 110.529V110.601H121.572V110.529C121.572 110.287 121.479 110.147 121.267 110.147C121.056 110.147 120.963 110.287 120.963 110.525C120.963 111.127 121.855 111.183 121.855 111.934C121.855 112.359 121.665 112.605 121.255 112.605C120.844 112.605 120.658 112.342 120.658 111.934V111.781H120.937V111.951C120.937 112.193 121.035 112.333 121.246 112.333C121.458 112.333 121.559 112.193 121.559 111.951C121.559 111.357 120.671 111.297 120.671 110.546C120.671 110.121 120.861 109.875 121.259 109.875C121.656 109.875 121.855 110.125 121.855 110.529Z" fill="#263238"/>
<path d="M92.0488 109.892C92.4718 109.892 92.6537 110.143 92.6537 110.554V111.905C92.6537 112.329 92.4633 112.567 92.0488 112.567H91.4229V109.892H92.0488ZM92.0488 112.295C92.2603 112.295 92.3661 112.159 92.3661 111.917V110.529C92.3661 110.283 92.2603 110.147 92.0446 110.147H91.7232V112.27L92.0488 112.295Z" fill="#263238"/>
<path d="M93.8801 111.077V111.344H93.2287V112.295H94.0281V112.567H92.9326V109.892H94.0281V110.16H93.2287V111.077H93.8801Z" fill="#263238"/>
<path d="M94.6035 112.028L94.4978 112.567H94.2271L94.7346 109.892H95.1576L95.6694 112.567H95.3691L95.2675 112.028H94.6035ZM94.6416 111.769H95.2337L94.9334 110.227L94.6416 111.769Z" fill="#263238"/>
<path d="M96.5322 109.892C96.9552 109.892 97.1371 110.143 97.1371 110.554V111.905C97.1371 112.329 96.9468 112.567 96.5322 112.567H95.9062V109.892H96.5322ZM96.5322 112.295C96.748 112.295 96.8495 112.159 96.8495 111.917V110.529C96.8495 110.283 96.748 110.147 96.528 110.147H96.2108V112.27L96.5322 112.295Z" fill="#263238"/>
<path d="M97.416 112.567V109.892H97.7121V112.295H98.4734V112.567H97.416Z" fill="#263238"/>
<path d="M99.0148 109.892V112.567H98.7188V109.892H99.0148Z" fill="#263238"/>
<path d="M99.5609 112.567H99.2944V109.892H99.6709L100.288 111.824V109.892H100.551V112.567H100.246L99.5609 110.402V112.567Z" fill="#263238"/>
<path d="M101.807 111.077V111.344H101.155V112.295H101.976V112.567H100.876V109.892H101.976V110.16H101.176V111.077H101.807Z" fill="#263238"/>
<path d="M74.5295 112.947H80.0958" stroke="#263238" stroke-linecap="round" stroke-linejoin="round"/>
<path d="M57.8394 112.947H72.529" stroke="#263238" stroke-linecap="round" stroke-linejoin="round"/>
<path d="M42.2488 112.947H55.6145" stroke="#263238" stroke-linecap="round" stroke-linejoin="round"/>
<path d="M66.2988 119.298H70.5496" stroke="#263238" stroke-linecap="round" stroke-linejoin="round"/>
<path d="M55.3904 119.298H62.7373" stroke="#263238" stroke-linecap="round" stroke-linejoin="round"/>
<path d="M50.0527 119.298H53.1658" stroke="#263238" stroke-linecap="round" stroke-linejoin="round"/>
<path d="M42.2488 119.298H48.2718" stroke="#263238" stroke-linecap="round" stroke-linejoin="round"/>
<path d="M129.528 118.115C129.527 118.646 129.316 119.155 128.942 119.53C128.568 119.906 128.06 120.117 127.531 120.119H106.573C106.044 120.119 105.535 119.908 105.16 119.532C104.785 119.156 104.574 118.646 104.573 118.115C104.575 117.583 104.786 117.073 105.161 116.697C105.536 116.321 106.043 116.109 106.573 116.106H127.531C127.794 116.106 128.054 116.158 128.296 116.259C128.539 116.36 128.759 116.508 128.944 116.695C129.13 116.881 129.277 117.103 129.377 117.346C129.477 117.59 129.528 117.851 129.528 118.115Z" fill="white" stroke="#263238" stroke-linecap="round" stroke-linejoin="round"/>
<path d="M123.281 116.106V120.119H106.573C106.044 120.119 105.535 119.908 105.16 119.532C104.785 119.156 104.574 118.646 104.573 118.115C104.575 117.583 104.786 117.073 105.161 116.697C105.536 116.321 106.043 116.109 106.573 116.106H123.281Z" fill="#3D63DD" stroke="#263238" stroke-linecap="round" stroke-linejoin="round"/>
<path d="M100.606 116.106H92.3323C91.2298 116.106 90.3359 117.004 90.3359 118.11V118.115C90.3359 119.221 91.2298 120.119 92.3323 120.119H100.606C101.708 120.119 102.602 119.221 102.602 118.115V118.11C102.602 117.004 101.708 116.106 100.606 116.106Z" fill="white" stroke="#263238" stroke-linecap="round" stroke-linejoin="round"/>
<path d="M133.068 135.896H37.5161V161.518H133.068V135.896Z" fill="white" stroke="#263238" stroke-linecap="round" stroke-linejoin="round"/>
<path d="M111.145 143.121C111.568 143.121 111.742 143.367 111.742 143.774V144.093C111.742 144.517 111.543 144.742 111.124 144.742H110.858V145.795H110.562V143.121H111.145ZM111.124 144.475C111.344 144.475 111.45 144.369 111.45 144.114V143.757C111.45 143.515 111.361 143.392 111.145 143.392H110.858V144.488L111.124 144.475Z" fill="#263238"/>
<path d="M112.55 143.121C112.973 143.121 113.147 143.333 113.147 143.732V143.949C113.147 144.246 113.045 144.428 112.817 144.5C113.058 144.573 113.151 144.772 113.151 145.057V145.481C113.142 145.591 113.16 145.702 113.202 145.804H112.901C112.861 145.701 112.845 145.591 112.855 145.481V145.057C112.855 144.751 112.711 144.658 112.466 144.658H112.254V145.8H111.958V143.125L112.55 143.121ZM112.478 144.394C112.711 144.394 112.855 144.318 112.855 144.029V143.77C112.855 143.532 112.766 143.405 112.546 143.405H112.254V144.394H112.478Z" fill="#263238"/>
<path d="M113.451 143.766C113.451 143.341 113.654 143.095 114.06 143.095C114.466 143.095 114.673 143.358 114.673 143.766V145.15C114.68 145.234 114.67 145.32 114.642 145.4C114.615 145.481 114.571 145.555 114.513 145.618C114.456 145.68 114.386 145.73 114.308 145.764C114.231 145.799 114.147 145.816 114.062 145.816C113.977 145.816 113.893 145.799 113.816 145.764C113.738 145.73 113.668 145.68 113.611 145.618C113.553 145.555 113.509 145.481 113.482 145.4C113.454 145.32 113.444 145.234 113.451 145.15V143.766ZM113.747 145.167C113.747 145.409 113.848 145.549 114.06 145.549C114.271 145.549 114.377 145.409 114.377 145.167V143.749C114.377 143.511 114.28 143.366 114.06 143.366C113.84 143.366 113.747 143.511 113.747 143.749V145.167Z" fill="#263238"/>
<path d="M116.132 143.766V143.995H115.849V143.749C115.849 143.511 115.756 143.366 115.536 143.366C115.316 143.366 115.227 143.511 115.227 143.749V145.167C115.227 145.404 115.325 145.549 115.536 145.549C115.747 145.549 115.849 145.404 115.849 145.167V144.632H115.574V144.364H116.132V145.15C116.132 145.553 115.942 145.82 115.532 145.82C115.121 145.82 114.931 145.553 114.931 145.15V143.766C114.931 143.362 115.121 143.095 115.532 143.095C115.942 143.095 116.132 143.362 116.132 143.766Z" fill="#263238"/>
<path d="M117.008 143.121C117.431 143.121 117.6 143.333 117.6 143.732V143.949C117.6 144.246 117.499 144.428 117.27 144.5C117.516 144.573 117.604 144.772 117.604 145.057V145.481C117.595 145.592 117.614 145.703 117.659 145.804H117.359C117.317 145.702 117.299 145.591 117.308 145.481V145.057C117.308 144.751 117.169 144.658 116.919 144.658H116.712V145.8H116.412V143.125L117.008 143.121ZM116.932 144.394C117.169 144.394 117.308 144.318 117.308 144.029V143.77C117.308 143.532 117.219 143.405 117 143.405H116.712V144.394H116.932Z" fill="#263238"/>
<path d="M118.861 144.305V144.573H118.209V145.524H119.009V145.795H117.913V143.121H119.009V143.392H118.209V144.305H118.861Z" fill="#263238"/>
<path d="M120.438 143.761V143.833H120.163V143.749C120.163 143.507 120.074 143.366 119.859 143.366C119.643 143.366 119.554 143.507 119.554 143.744C119.554 144.343 120.451 144.398 120.451 145.154C120.451 145.557 120.256 145.82 119.846 145.82C119.436 145.82 119.25 145.557 119.25 145.154V145.001H119.529V145.167C119.529 145.409 119.626 145.549 119.842 145.549C120.057 145.549 120.15 145.409 120.15 145.167C120.15 144.572 119.262 144.513 119.262 143.761C119.262 143.337 119.453 143.095 119.85 143.095C120.248 143.095 120.438 143.358 120.438 143.761Z" fill="#263238"/>
<path d="M121.855 143.761V143.833H121.572V143.749C121.572 143.507 121.479 143.366 121.267 143.366C121.056 143.366 120.963 143.507 120.963 143.744C120.963 144.343 121.855 144.398 121.855 145.154C121.855 145.557 121.665 145.82 121.255 145.82C120.844 145.82 120.658 145.557 120.658 145.154V145.001H120.937V145.167C120.937 145.409 121.035 145.549 121.246 145.549C121.458 145.549 121.559 145.409 121.559 145.167C121.559 144.572 120.671 144.513 120.671 143.761C120.671 143.337 120.861 143.095 121.259 143.095C121.656 143.095 121.855 143.358 121.855 143.761Z" fill="#263238"/>
<path d="M92.0488 143.121C92.4718 143.121 92.6537 143.371 92.6537 143.787V145.133C92.6537 145.558 92.4633 145.795 92.0488 145.795H91.4229V143.121H92.0488ZM92.0488 145.524C92.2603 145.524 92.3661 145.392 92.3661 145.146V143.77C92.3661 143.524 92.2603 143.392 92.0446 143.392H91.7232V145.515L92.0488 145.524Z" fill="#263238"/>
<path d="M93.8801 144.305V144.573H93.2287V145.524H94.0281V145.795H92.9326V143.121H94.0281V143.392H93.2287V144.305H93.8801Z" fill="#263238"/>
<path d="M94.6035 145.256L94.4978 145.795H94.2271L94.7346 143.121H95.1576L95.6694 145.795H95.3691L95.2675 145.256H94.6035ZM94.6416 145.001H95.2337L94.9334 143.456L94.6416 145.001Z" fill="#263238"/>
<path d="M96.5322 143.121C96.9552 143.121 97.1371 143.371 97.1371 143.787V145.133C97.1371 145.558 96.9468 145.795 96.5322 145.795H95.9062V143.121H96.5322ZM96.5322 145.524C96.748 145.524 96.8495 145.392 96.8495 145.146V143.77C96.8495 143.524 96.748 143.392 96.528 143.392H96.2108V145.515L96.5322 145.524Z" fill="#263238"/>
<path d="M97.416 145.795V143.121H97.7121V145.524H98.4734V145.795H97.416Z" fill="#263238"/>
<path d="M99.0148 143.121V145.795H98.7188V143.121H99.0148Z" fill="#263238"/>
<path d="M99.5609 145.795H99.2944V143.121H99.6709L100.288 145.052V143.121H100.551V145.795H100.246L99.5609 143.639V145.795Z" fill="#263238"/>
<path d="M101.807 144.305V144.573H101.155V145.524H101.976V145.795H100.876V143.121H101.976V143.392H101.176V144.305H101.807Z" fill="#263238"/>
<path d="M74.5295 146.177H80.0958" stroke="#263238" stroke-linecap="round" stroke-linejoin="round"/>
<path d="M57.8394 146.177H72.529" stroke="#263238" stroke-linecap="round" stroke-linejoin="round"/>
<path d="M42.2488 146.177H55.6145" stroke="#263238" stroke-linecap="round" stroke-linejoin="round"/>
<path d="M66.2988 152.532H70.5496" stroke="#263238" stroke-linecap="round" stroke-linejoin="round"/>
<path d="M55.3904 152.532H62.7373" stroke="#263238" stroke-linecap="round" stroke-linejoin="round"/>
<path d="M50.0527 152.532H53.1658" stroke="#263238" stroke-linecap="round" stroke-linejoin="round"/>
<path d="M42.2488 152.532H48.2718" stroke="#263238" stroke-linecap="round" stroke-linejoin="round"/>
<path d="M129.528 151.343C129.528 151.606 129.477 151.867 129.377 152.11C129.277 152.354 129.13 152.575 128.944 152.761C128.759 152.947 128.538 153.095 128.296 153.195C128.054 153.296 127.794 153.347 127.531 153.347H106.573C106.311 153.347 106.051 153.296 105.808 153.195C105.565 153.095 105.345 152.947 105.159 152.761C104.973 152.575 104.826 152.354 104.725 152.111C104.625 151.867 104.573 151.606 104.573 151.343C104.574 150.811 104.785 150.301 105.16 149.926C105.535 149.55 106.044 149.339 106.573 149.339H127.531C127.794 149.339 128.053 149.391 128.295 149.491C128.538 149.592 128.758 149.74 128.943 149.926C129.128 150.112 129.275 150.333 129.376 150.576C129.476 150.819 129.528 151.08 129.528 151.343Z" fill="white" stroke="#263238" stroke-linecap="round" stroke-linejoin="round"/>
<path d="M108.566 149.339V153.347H106.573C106.311 153.347 106.051 153.296 105.808 153.195C105.565 153.095 105.345 152.947 105.159 152.761C104.973 152.575 104.826 152.354 104.725 152.111C104.625 151.867 104.573 151.606 104.573 151.343C104.574 150.811 104.785 150.301 105.16 149.926C105.535 149.55 106.044 149.339 106.573 149.339H108.566Z" fill="#3D63DD" stroke="#263238" stroke-linecap="round" stroke-linejoin="round"/>
<path d="M100.601 153.347H92.3323C91.8029 153.347 91.2951 153.136 90.9207 152.76C90.5463 152.384 90.3359 151.874 90.3359 151.343C90.3359 151.08 90.3876 150.819 90.4879 150.576C90.5882 150.333 90.7353 150.112 90.9207 149.926C91.1061 149.74 91.3261 149.592 91.5684 149.491C91.8106 149.391 92.0702 149.339 92.3323 149.339H100.601C100.864 149.338 101.124 149.39 101.367 149.49C101.609 149.591 101.83 149.738 102.016 149.924C102.202 150.11 102.349 150.332 102.45 150.575C102.55 150.818 102.602 151.079 102.602 151.343C102.602 151.606 102.55 151.867 102.45 152.111C102.349 152.354 102.202 152.575 102.016 152.761C101.83 152.947 101.609 153.095 101.367 153.195C101.124 153.296 100.864 153.347 100.601 153.347Z" fill="white" stroke="#263238" stroke-linecap="round" stroke-linejoin="round"/>
<path d="M174.481 70.5249H141.054C139.951 70.5249 139.057 71.4219 139.057 72.5285V82.0116C139.057 83.1181 139.951 84.0152 141.054 84.0152H174.481C175.583 84.0152 176.477 83.1181 176.477 82.0116V72.5285C176.477 71.4219 175.583 70.5249 174.481 70.5249Z" fill="#3D63DD" stroke="#263238" stroke-linecap="round" stroke-linejoin="round"/>
<path d="M146.231 79.4388L145.99 80.7122H145.347L146.539 74.4468H147.546L148.739 80.6995H148.045L147.804 79.426L146.231 79.4388ZM146.319 78.8402H147.707L147.005 75.2321L146.319 78.8402Z" fill="white"/>
<path d="M150.74 74.4468C151.712 74.4468 152.156 75.0368 152.156 76.0004V79.1544C152.156 80.1095 151.712 80.6995 150.74 80.6995H149.28V74.4468H150.74ZM150.74 80.067C151.239 80.067 151.48 79.7529 151.48 79.1798V75.9664C151.48 75.3934 151.239 75.0835 150.731 75.0835H149.982V80.067H150.74Z" fill="white"/>
<path d="M154.267 74.4468C155.236 74.4468 155.68 75.0368 155.68 76.0004V79.1544C155.68 80.1095 155.236 80.6995 154.267 80.6995H152.808V74.4468H154.267ZM154.267 80.067C154.762 80.067 155.003 79.7529 155.003 79.1798V75.9664C155.003 75.3934 154.762 75.0835 154.254 75.0835H153.51V80.067H154.267Z" fill="white"/>
<path d="M158.619 80.6995V75.0835H157.469V74.4468H160.459V75.0835H159.313V80.6995H158.619Z" fill="white"/>
<path d="M161.305 79.4388L161.064 80.7122H160.425L161.614 74.4468H162.62L163.813 80.6995H163.115L162.878 79.426L161.305 79.4388ZM161.394 78.8402H162.781L162.079 75.2321L161.394 78.8402Z" fill="white"/>
<path d="M167.058 75.9492V76.119H166.398V75.911C166.398 75.3506 166.182 75.0195 165.687 75.0195C165.192 75.0195 164.972 75.3506 164.972 75.9025C164.972 77.3075 167.066 77.4391 167.066 79.2008C167.066 80.1474 166.609 80.7629 165.658 80.7629C164.706 80.7629 164.262 80.1474 164.262 79.2008V78.8399H164.909V79.2347C164.909 79.7993 165.141 80.1262 165.641 80.1262C166.14 80.1262 166.372 79.7993 166.372 79.2347C166.372 77.8424 164.287 77.7066 164.287 75.9492C164.287 74.9813 164.731 74.3828 165.666 74.3828C166.601 74.3828 167.058 75.0026 167.058 75.9492Z" fill="white"/>
<path d="M168.728 77.987L168.365 78.6025V80.6995H167.671V74.4468H168.381V77.4649L170.035 74.4468H170.742L169.164 77.2951L170.792 80.691H170.073L168.728 77.987Z" fill="white"/>
<path d="M144.404 16.7677C144.404 16.7677 139.489 18.9411 136.93 19.6288C134.371 20.3165 131.622 21.4074 130.932 23.5765C130.243 25.7457 127.172 34.0911 126.973 35.8867C126.774 37.6823 129.934 40.866 129.934 40.866H170.843C170.843 40.866 171.604 30.4787 169.93 26.9258C168.255 23.3728 163.162 20.3377 161.699 19.7477C160.235 19.1576 156.403 17.2601 154.847 16.9672C153.29 16.6743 146.176 16.0758 144.404 16.7677Z" fill="white" stroke="#263238" stroke-linecap="round" stroke-linejoin="round"/>
<path d="M130.843 31.1488C131.631 30.9181 132.462 30.8747 133.269 31.0221C134.077 31.1695 134.839 31.5036 135.496 31.9979" fill="white"/>
<path d="M130.843 31.1488C131.631 30.9181 132.462 30.8747 133.269 31.0221C134.077 31.1695 134.839 31.5036 135.496 31.9979" stroke="#263238" stroke-linecap="round" stroke-linejoin="round"/>
<path d="M134.121 31.998C135.063 32.0501 135.959 32.4247 136.659 33.0594L134.121 31.998Z" fill="white"/>
<path d="M134.121 31.998C135.063 32.0501 135.959 32.4247 136.659 33.0594" stroke="#263238" stroke-linecap="round" stroke-linejoin="round"/>
<path d="M138.3 27.2607C138.685 27.9221 138.851 28.6891 138.774 29.4511C138.65 30.9115 138.3 32.3436 137.738 33.696" stroke="#263238" stroke-linecap="round" stroke-linejoin="round"/>
<path d="M136.87 25.8218C137.258 26.0564 137.605 26.3533 137.898 26.7006" stroke="#263238" stroke-linecap="round" stroke-linejoin="round"/>
<path d="M139.379 27.1377C139.379 27.1377 140.17 29.5276 139.725 31.459" stroke="#263238" stroke-linecap="round" stroke-linejoin="round"/>
<path d="M160.629 28.6016C160.629 28.6016 159.647 32.0569 159.745 33.1436" stroke="#263238" stroke-linecap="round" stroke-linejoin="round"/>
<path d="M144.987 25.2357L146.793 28.4958L148.328 33.4793L150.494 28.95L152.571 25.3291L148.506 24.6924L144.987 25.2357Z" fill="#3D63DD" stroke="#263238" stroke-linecap="round" stroke-linejoin="round"/>
<path d="M146.793 28.4995L150.494 28.9495" stroke="#263238" stroke-linecap="round" stroke-linejoin="round"/>
<path d="M144.797 19.4326C144.333 20.0639 143.968 20.7624 143.714 21.5041C143.321 22.6884 142.636 26.7338 142.636 26.7338C142.636 26.7338 146.468 26.5385 147.453 26.5385C148.439 26.5385 149.991 26.6362 150.304 26.6362C150.617 26.6362 155.024 29.302 155.024 29.302C155.024 29.302 155.811 24.7599 154.927 22.196C154.043 19.6321 148.041 16.5715 144.797 19.4326Z" fill="white" stroke="#263238" stroke-linecap="round" stroke-linejoin="round"/>
<path d="M146.861 25.0321L148.417 28.3182L151.581 24.7349C151.581 24.7349 148.633 25.6307 146.861 25.0321Z" fill="white" stroke="#263238" stroke-linecap="round" stroke-linejoin="round"/>
<path d="M160.049 62.0815L158.531 64.8959C158.531 64.8959 156.653 65.2907 156.458 65.6855C155.976 66.5866 155.41 67.4394 154.766 68.2324C154.275 68.7248 153.294 69.4167 154.178 69.8115C155.062 70.2063 156.636 68.4319 156.636 68.4319L157.52 67.9353C157.583 68.7233 157.486 69.516 157.236 70.2657C156.657 71.9339 155.988 73.963 156.073 74.1752C156.496 75.2365 157.194 74.4894 157.194 74.4894L158.514 71.3948L158.746 71.2463C158.746 71.2463 158.48 74.7823 158.48 74.795C158.429 75.4445 159 76.2043 159.499 75.5379L160.679 71.7896V75.1601C160.676 75.2828 160.7 75.4047 160.751 75.5166C160.801 75.6285 160.876 75.7274 160.97 75.8059C161.064 75.8844 161.175 75.9404 161.294 75.9697C161.413 75.999 161.537 76.0008 161.656 75.9751L161.762 75.9326C162.155 75.7374 162.291 71.6198 162.291 71.6198L163.111 74.5912C163.13 74.6689 163.165 74.7417 163.214 74.8049C163.263 74.8681 163.324 74.9204 163.394 74.9584C163.465 74.9964 163.542 75.0192 163.621 75.0254C163.701 75.0316 163.781 75.0211 163.856 74.9945C163.893 74.983 163.928 74.9628 163.957 74.9356C163.985 74.9083 164.007 74.8747 164.021 74.8374C164.122 74.5445 163.826 69.8073 163.826 69.8073L163.627 64.8704L163.923 63.1937L160.049 62.0815Z" fill="white" stroke="#263238" stroke-linecap="round" stroke-linejoin="round"/>
<path d="M161.91 29.0263C161.91 29.0263 160.337 32.384 160.531 33.5684C160.726 34.7527 165.311 46.0738 165.311 46.0738L159.613 62.5482L164.139 63.6349C164.139 63.6349 171.867 52.1058 172.687 49.6268C173.137 48.2255 173.336 46.7553 173.275 45.2843C173.275 44.69 171.448 31.1997 170.365 28.8311C169.735 27.4354 168.908 26.1386 167.908 24.981" fill="white"/>
<path d="M161.91 29.0263C161.91 29.0263 160.337 32.384 160.531 33.5684C160.726 34.7527 165.311 46.0738 165.311 46.0738L159.613 62.5482L164.139 63.6349C164.139 63.6349 171.867 52.1058 172.687 49.6268C173.137 48.2255 173.336 46.7553 173.275 45.2843C173.275 44.69 171.448 31.1997 170.365 28.8311C169.735 27.4354 168.908 26.1386 167.908 24.981" stroke="#263238" stroke-linecap="round" stroke-linejoin="round"/>
<path d="M166 45.6587C166 45.6587 167.768 43.1878 168.851 41.6084" stroke="#263238" stroke-linecap="round" stroke-linejoin="round"/>
<path d="M168.555 40.7207L166.394 43.4846" stroke="#263238" stroke-linecap="round" stroke-linejoin="round"/>
<path d="M160.007 60.9487L164.824 62.1333" stroke="#263238" stroke-linecap="round" stroke-linejoin="round"/>
<path d="M128.508 33.0633C128.047 33.4662 127.639 33.927 127.294 34.4344C126.406 35.7079 126.901 38.4798 127.489 39.367C128.077 40.2542 130.45 40.8485 130.45 40.8485H149.542L149.927 37.6096H149.229C149.229 37.6096 145.791 36.5229 143.329 35.831C140.867 35.1391 136.033 33.0888 134.578 32.7747C133.466 32.5355 132.321 32.4909 131.194 32.6431" fill="white"/>
<path d="M128.508 33.0633C128.047 33.4662 127.639 33.927 127.294 34.4344C126.406 35.7079 126.901 38.4798 127.489 39.367C128.077 40.2542 130.45 40.8485 130.45 40.8485H149.542L149.927 37.6096H149.229C149.229 37.6096 145.791 36.5229 143.329 35.831C140.867 35.1391 136.033 33.0888 134.578 32.7747C133.466 32.5355 132.321 32.4909 131.194 32.6431" stroke="#263238" stroke-linecap="round" stroke-linejoin="round"/>
<path d="M152.757 40.8494L152.66 40.7263C152.66 40.7263 154.644 40.5438 154.914 40.4546C155.271 40.3718 155.633 40.3109 155.997 40.272L158.865 40.8494H161.711L161.415 40.357L158.877 38.7776L156.682 37.678C154.402 36.5317 151.666 37.9454 149.238 37.5931L149.699 37.6525L149.314 40.8494H152.757Z" fill="white" stroke="#263238" stroke-linecap="round" stroke-linejoin="round"/>
<path d="M156.72 38.6411L161.233 40.6366" stroke="#263238" stroke-linecap="round" stroke-linejoin="round"/>
<path d="M147.965 37.4658L147.847 40.7519" stroke="#263238" stroke-linecap="round" stroke-linejoin="round"/>
<path d="M144.209 13.8084C143.42 12.7057 142.943 11.4089 142.83 10.056C142.733 7.98445 143.714 7.58968 143.714 7.58968C143.714 7.58968 142.242 5.22103 145.486 3.83719C148.73 2.45336 153.649 1.66805 156.403 3.14952C159.156 4.63099 160.138 8.08209 160.04 10.4507C159.943 12.8194 158.564 15.5828 158.564 15.5828L156.403 18.2486C156.403 18.2486 155.024 18.741 154.711 18.151C154.398 17.5609 152.761 15.7823 151.886 15.7823C151.01 15.7823 148.739 15.7823 147.559 15.2857C146.379 14.789 144.209 13.8084 144.209 13.8084Z" fill="#263238" stroke="#263238" stroke-linecap="round" stroke-linejoin="round"/>
<path d="M144.01 10.8457C144.01 10.8457 143.913 16.865 143.913 18.1512C143.913 19.4374 143.913 20.6981 144.501 21.997C145.088 23.296 145.583 26.7343 148.24 26.9338C150.896 27.1334 154.728 24.3869 155.43 22.8885C156.132 21.39 156.5 18.8388 156.5 18.8388C156.5 18.8388 158.86 17.2597 159.254 15.3877C159.647 13.5157 158.86 12.6243 158.37 13.5115C157.879 14.3987 157.189 16.6697 156.893 16.865C156.597 17.0602 156.204 15.6806 156.204 15.6806C156.204 15.6806 154.728 16.2749 154.533 15.6806C154.339 15.0864 155.32 12.2295 155.32 12.2295C155.32 12.2295 152.076 13.1167 151.386 13.1167C150.649 13.0317 149.923 12.8666 149.221 12.6243L152.076 14.3987C150.83 14.9173 149.451 15.0215 148.142 14.6958C146.175 14.1015 144.699 10.8457 144.699 10.8457H144.01Z" fill="white" stroke="#263238" stroke-linecap="round" stroke-linejoin="round"/>
<path d="M146.962 17.1626V18.3469C146.962 18.3469 145.693 21.7046 145.879 22.2947C146.066 22.8847 147.846 22.5918 148.24 22.3923" fill="white"/>
<path d="M146.962 17.1626V18.3469C146.962 18.3469 145.693 21.7046 145.879 22.2947C146.066 22.8847 147.846 22.5918 148.24 22.3923" stroke="#263238" stroke-linecap="round" stroke-linejoin="round"/>
<path d="M146.764 23.2832C147.343 23.6216 147.999 23.8079 148.669 23.825C149.34 23.842 150.004 23.6893 150.6 23.3809" fill="white"/>
<path d="M146.764 23.2832C147.343 23.6216 147.999 23.8079 148.669 23.825C149.34 23.842 150.004 23.6893 150.6 23.3809" stroke="#263238" stroke-linecap="round" stroke-linejoin="round"/>
<path d="M149.614 18.8389C150.108 19.1903 150.677 19.4187 151.276 19.505C151.875 19.5914 152.485 19.5333 153.057 19.3356" fill="white"/>
<path d="M149.614 18.8389C150.108 19.1903 150.677 19.4187 151.276 19.505C151.875 19.5914 152.485 19.5333 153.057 19.3356" stroke="#263238" stroke-linecap="round" stroke-linejoin="round"/>
<path d="M149.716 17.0645C149.716 17.0645 151.886 16.2918 153.256 17.7565L149.716 17.0645Z" fill="white"/>
<path d="M149.716 17.0645C149.716 17.0645 151.886 16.2918 153.256 17.7565" stroke="#263238" stroke-linecap="round" stroke-linejoin="round"/>
<path d="M144.695 17.2598C144.695 17.2598 145.089 18.1513 146.958 18.3466L144.695 17.2598Z" fill="white"/>
<path d="M144.695 17.2598C144.695 17.2598 145.089 18.1513 146.958 18.3466" stroke="#263238" stroke-linecap="round" stroke-linejoin="round"/>
<path d="M146.569 16.2926C146.569 16.2926 145.879 15.1081 144.877 15.5029L146.569 16.2926Z" fill="white"/>
<path d="M146.569 16.2926C146.569 16.2926 145.879 15.1081 144.877 15.5029" stroke="#263238" stroke-linecap="round" stroke-linejoin="round"/>
<path d="M148.329 33.4795L145.529 58.5711L149.141 63.6437L152.478 58.5711L148.329 33.4795Z" fill="#3D63DD" stroke="#263238" stroke-linecap="round" stroke-linejoin="round"/>
<path d="M39.8372 94.6021V98.733C39.8372 98.733 81.9561 97.0051 133.067 96.1475L39.8372 94.6021Z" fill="#263238" stroke="#263238" stroke-linecap="round" stroke-linejoin="round"/>
<path d="M133.067 70.5254H37.5149V96.1476H133.067V70.5254Z" fill="white" stroke="#263238" stroke-linecap="round" stroke-linejoin="round"/>
<path d="M111.145 77.1309C111.568 77.1309 111.741 77.3771 111.741 77.7847V78.1031C111.741 78.5277 111.543 78.7484 111.124 78.7484H110.857V79.8056H110.561V77.1309H111.145ZM111.124 78.481C111.344 78.481 111.45 78.3791 111.45 78.1243V77.7677C111.45 77.5257 111.361 77.4026 111.145 77.4026H110.857V78.481H111.124Z" fill="#263238"/>
<path d="M112.549 77.1309C112.972 77.1309 113.146 77.3431 113.146 77.7422V77.9588C113.146 78.2517 113.044 78.4385 112.816 78.5107C113.057 78.5829 113.15 78.7824 113.15 79.0669V79.4914C113.142 79.6015 113.159 79.7119 113.201 79.8141H112.9C112.86 79.7102 112.844 79.5983 112.854 79.4872V79.0626C112.854 78.7612 112.71 78.6678 112.465 78.6678H112.253V79.8098H111.957V77.1351L112.549 77.1309ZM112.477 78.4045C112.71 78.4045 112.854 78.3281 112.854 78.0352V77.7804C112.854 77.5384 112.765 77.4153 112.545 77.4153H112.253V78.4045H112.477Z" fill="#263238"/>
<path d="M113.45 77.7756C113.45 77.3511 113.653 77.1006 114.059 77.1006C114.465 77.1006 114.672 77.3681 114.672 77.7756V79.1597C114.68 79.2446 114.669 79.33 114.641 79.4105C114.614 79.491 114.57 79.565 114.513 79.6276C114.455 79.6903 114.385 79.7403 114.308 79.7745C114.23 79.8087 114.146 79.8264 114.061 79.8264C113.976 79.8264 113.893 79.8087 113.815 79.7745C113.737 79.7403 113.667 79.6903 113.61 79.6276C113.553 79.565 113.509 79.491 113.481 79.4105C113.454 79.33 113.443 79.2446 113.45 79.1597V77.7756ZM113.746 79.1724C113.746 79.4187 113.848 79.5588 114.059 79.5588C114.271 79.5588 114.376 79.4187 114.376 79.1724V77.7587C114.376 77.5209 114.279 77.3723 114.059 77.3723C113.839 77.3723 113.746 77.5209 113.746 77.7587V79.1724Z" fill="#263238"/>
<path d="M116.132 77.7756V78.0049H115.848V77.7587C115.848 77.5209 115.755 77.3723 115.535 77.3723C115.315 77.3723 115.226 77.5209 115.226 77.7587V79.1724C115.226 79.4144 115.324 79.5588 115.535 79.5588C115.747 79.5588 115.848 79.4144 115.848 79.1724V78.6375H115.573V78.37H116.132V79.1597C116.132 79.5843 115.941 79.8305 115.531 79.8305C115.121 79.8305 114.93 79.563 114.93 79.1597V77.7756C114.93 77.3511 115.121 77.1006 115.531 77.1006C115.941 77.1006 116.132 77.3681 116.132 77.7756Z" fill="#263238"/>
<path d="M117.007 77.1309C117.43 77.1309 117.599 77.3431 117.599 77.7422V77.9588C117.599 78.2517 117.498 78.4385 117.27 78.5107C117.515 78.5829 117.604 78.7824 117.604 79.0669V79.4914C117.595 79.6019 117.614 79.7128 117.659 79.8141H117.358C117.316 79.7107 117.298 79.5986 117.308 79.4872V79.0626C117.308 78.7612 117.168 78.6678 116.918 78.6678H116.711V79.8098H116.411V77.1351L117.007 77.1309ZM116.931 78.4045C117.168 78.4045 117.308 78.3281 117.308 78.0352V77.7804C117.308 77.5384 117.219 77.4153 116.999 77.4153H116.711V78.4045H116.931Z" fill="#263238"/>
<path d="M118.86 78.3157V78.5832H118.208V79.5427H119.008V79.8144H117.912V77.1396H119.008V77.4199H118.208V78.3327L118.86 78.3157Z" fill="#263238"/>
<path d="M120.438 77.7714V77.8436H120.163V77.7544C120.163 77.5167 120.074 77.3723 119.858 77.3723C119.642 77.3723 119.554 77.5167 119.554 77.7544C119.554 78.353 120.45 78.4082 120.45 79.164C120.45 79.5673 120.256 79.8305 119.845 79.8305C119.435 79.8305 119.249 79.5673 119.249 79.164V79.0111H119.528V79.1767C119.528 79.4187 119.625 79.5588 119.841 79.5588C120.057 79.5588 120.15 79.4187 120.15 79.1767C120.15 78.5823 119.262 78.5229 119.262 77.7714C119.262 77.3468 119.452 77.1006 119.85 77.1006C120.247 77.1006 120.438 77.3681 120.438 77.7714Z" fill="#263238"/>
<path d="M121.854 77.7714V77.8436H121.571V77.7544C121.571 77.5167 121.478 77.3723 121.267 77.3723C121.055 77.3723 120.962 77.5167 120.962 77.7544C120.962 78.353 121.854 78.4082 121.854 79.164C121.854 79.5673 121.664 79.8305 121.254 79.8305C120.844 79.8305 120.657 79.5673 120.657 79.164V79.0111H120.937V79.1767C120.937 79.4187 121.034 79.5588 121.245 79.5588C121.457 79.5588 121.558 79.4187 121.558 79.1767C121.558 78.5823 120.67 78.5229 120.67 77.7714C120.67 77.3468 120.86 77.1006 121.258 77.1006C121.656 77.1006 121.854 77.3681 121.854 77.7714Z" fill="#263238"/>
<path d="M92.0484 77.1309C92.4713 77.1309 92.6532 77.3813 92.6532 77.7932V79.1433C92.6532 79.5678 92.4629 79.8056 92.0484 79.8056H91.4224V77.1309H92.0484ZM92.0484 79.5339C92.2598 79.5339 92.3656 79.4023 92.3656 79.156V77.7804C92.3656 77.5342 92.2598 77.4026 92.0441 77.4026H91.7227V79.5254L92.0484 79.5339Z" fill="#263238"/>
<path d="M93.8796 78.3157V78.5832H93.2282V79.5427H94.0276V79.8144H92.9321V77.1396H94.0276V77.4199H93.2282V78.3327L93.8796 78.3157Z" fill="#263238"/>
<path d="M94.6028 79.2664L94.497 79.8056H94.2263L94.7339 77.1309H95.1568L95.6686 79.8056H95.3683L95.2668 79.2664H94.6028ZM94.6408 79.0117H95.233L94.9327 77.4663L94.6408 79.0117Z" fill="#263238"/>
<path d="M96.5318 77.1309C96.9547 77.1309 97.1366 77.3813 97.1366 77.7932V79.1433C97.1366 79.5678 96.9463 79.8056 96.5318 79.8056H95.9058V77.1309H96.5318ZM96.5318 79.5339C96.7475 79.5339 96.849 79.4023 96.849 79.156V77.7804C96.849 77.5342 96.7475 77.4026 96.5275 77.4026H96.2103V79.5254L96.5318 79.5339Z" fill="#263238"/>
<path d="M97.4155 79.8056V77.1309H97.7116V79.5424H98.4729V79.8141L97.4155 79.8056Z" fill="#263238"/>
<path d="M99.0143 77.1309V79.8056H98.7183V77.1309H99.0143Z" fill="#263238"/>
<path d="M99.5599 79.8056H99.2935V77.1309H99.6699L100.287 79.0626V77.1309H100.55V79.8056H100.245L99.5599 77.6403V79.8056Z" fill="#263238"/>
<path d="M101.806 78.3157V78.5832H101.155V79.5427H101.975V79.8144H100.875V77.1396H101.975V77.4199H101.176V78.3327L101.806 78.3157Z" fill="#263238"/>
<path d="M74.5288 80.1865H80.095" stroke="#263238" stroke-linecap="round" stroke-linejoin="round"/>
<path d="M57.8384 80.1865H72.528" stroke="#263238" stroke-linecap="round" stroke-linejoin="round"/>
<path d="M42.248 80.1865H55.6138" stroke="#263238" stroke-linecap="round" stroke-linejoin="round"/>
<path d="M66.2979 86.541H70.5487" stroke="#263238" stroke-linecap="round" stroke-linejoin="round"/>
<path d="M55.3896 86.541H62.7366" stroke="#263238" stroke-linecap="round" stroke-linejoin="round"/>
<path d="M50.0518 86.541H53.1648" stroke="#263238" stroke-linecap="round" stroke-linejoin="round"/>
<path d="M42.248 86.541H48.2711" stroke="#263238" stroke-linecap="round" stroke-linejoin="round"/>
<path d="M129.527 85.3524C129.528 85.6157 129.476 85.8766 129.376 86.1199C129.276 86.3633 129.129 86.5845 128.944 86.7706C128.758 86.9568 128.538 87.1044 128.295 87.2049C128.053 87.3054 127.793 87.3569 127.531 87.3563H106.573C106.31 87.3569 106.05 87.3055 105.807 87.205C105.565 87.1046 105.344 86.957 105.158 86.7709C104.972 86.5848 104.825 86.3637 104.724 86.1203C104.624 85.8769 104.572 85.6159 104.572 85.3524C104.574 84.8205 104.786 84.311 105.16 83.9349C105.535 83.5588 106.043 83.3465 106.573 83.3442H127.531C127.793 83.3442 128.053 83.3962 128.296 83.4972C128.538 83.5981 128.758 83.7461 128.944 83.9327C129.129 84.1192 129.276 84.3406 129.376 84.5842C129.476 84.8279 129.528 85.0889 129.527 85.3524Z" fill="white" stroke="#263238" stroke-linecap="round" stroke-linejoin="round"/>
<path d="M100.6 87.3564H92.3314C91.8019 87.3564 91.2941 87.1453 90.9197 86.7695C90.5453 86.3937 90.335 85.884 90.335 85.3525C90.3383 84.8233 90.5501 84.3168 90.9242 83.9438C91.2982 83.5707 91.8041 83.3613 92.3314 83.3613H100.6C100.863 83.3613 101.123 83.4133 101.366 83.5142C101.609 83.6151 101.829 83.763 102.015 83.9495C102.201 84.136 102.348 84.3574 102.449 84.601C102.549 84.8446 102.601 85.1058 102.601 85.3695C102.597 85.8988 102.384 86.4048 102.009 86.777C101.634 87.1493 101.128 87.3576 100.6 87.3564Z" fill="white" stroke="#263238" stroke-linecap="round" stroke-linejoin="round"/>
<path d="M45.9404 100.341C45.9404 100.341 47.3531 96.6523 47.6323 96.2745C47.9114 95.8967 48.3852 94.9501 49.2353 94.9501C50.0855 94.9501 51.5913 95.0435 52.2511 94.7591C52.9109 94.4747 53.7568 94.4747 53.5707 95.0435C53.3846 95.6123 52.2511 95.7991 52.2511 95.7991L57.149 96.1811C57.149 96.1811 55.7363 97.5013 55.0765 97.7857C54.4005 98.0263 53.7078 98.2164 53.004 98.3545C52.4184 98.7503 51.7843 99.0684 51.1175 99.3011C50.4966 99.4352 49.868 99.5302 49.2353 99.5855L48.1991 101.475L45.9404 100.341Z" fill="white" stroke="#263238" stroke-linecap="round" stroke-linejoin="round"/>
<path d="M52.2555 95.7949L50.0857 96.3638" stroke="#263238" stroke-linecap="round" stroke-linejoin="round"/>
<path d="M34.2539 83.9735L32.6509 86.7199L33.5941 88.8933L36.2334 86.9067L37.5531 85.9601V80.2847L34.2539 83.9735Z" fill="white" stroke="#263238" stroke-linecap="round" stroke-linejoin="round"/>
<path d="M33.8774 85.4839C33.8774 85.4839 34.6303 81.6041 35.0068 81.1329C35.3832 80.6617 36.8932 79.5241 37.3627 79.4349C37.8322 79.3458 38.4962 79.6217 38.1198 80.1905C37.6493 80.7312 37.1104 81.2078 36.5167 81.6083C36.5167 81.6083 37.1766 83.5015 36.7029 84.5415C36.3768 85.1963 35.8486 85.7279 35.1971 86.057" fill="white"/>
<path d="M33.8774 85.4839C33.8774 85.4839 34.6303 81.6041 35.0068 81.1329C35.3832 80.6617 36.8932 79.5241 37.3627 79.4349C37.8322 79.3458 38.4962 79.6217 38.1198 80.1905C37.6493 80.7312 37.1104 81.2078 36.5167 81.6083C36.5167 81.6083 37.1766 83.5015 36.7029 84.5415C36.3768 85.1963 35.8486 85.7279 35.1971 86.057" stroke="#263238" stroke-linecap="round" stroke-linejoin="round"/>
<path d="M32.7483 85.959L34.3471 90.0256L26.15 96.2698L24.3608 89.8388L32.7483 85.959Z" fill="#3D63DD" stroke="#263238" stroke-linecap="round" stroke-linejoin="round"/>
<path d="M29.0133 154.179L29.3306 158.212C29.3306 158.212 27.2157 162.669 27.4272 166.595C27.6387 170.522 28.0617 181.877 28.0617 182.514C28.0617 183.15 27.0043 183.893 27.7444 186.546C27.9517 187.285 29.7535 186.759 31.5511 187.926C33.3487 189.093 35.5693 189.836 36.9439 189.836C38.3186 189.836 39.0588 189.836 39.0588 189.199C39.0588 188.563 37.0497 187.714 36.2038 186.865C34.8753 185.349 33.6394 183.754 32.5028 182.089C32.2913 181.665 33.243 175.404 33.8774 172.963C34.5119 170.522 36.3095 164.685 37.0497 160.546C37.7899 156.408 38.1071 153.012 38.1071 153.012L29.0133 154.179Z" fill="white" stroke="#263238" stroke-linecap="round" stroke-linejoin="round"/>
<path d="M27.7446 186.547L27.9561 189.412H29.4365L30.0709 187.077C30.0709 187.077 28.2733 186.44 27.7446 186.547Z" fill="#263238" stroke="#263238" stroke-linecap="round" stroke-linejoin="round"/>
<path d="M36.9444 189.837C38.3106 189.701 39.0592 189.837 39.0592 189.2C39.0592 188.563 37.0502 187.714 36.2042 186.865C35.0542 185.556 33.9715 184.189 32.9601 182.769C32.5239 183.111 31.9975 183.317 31.4459 183.363C29.8597 183.469 28.0621 182.514 28.0621 182.514C28.0621 183.151 27.0047 183.894 27.7449 186.547C27.9522 187.285 29.8132 187.154 31.264 188.903C32.6344 190.554 36.7372 189.858 36.9444 189.837Z" fill="#263238" stroke="#263238" stroke-linecap="round" stroke-linejoin="round"/>
<path d="M16.6417 151.102L16.8532 157.045C16.8532 157.045 14.1039 160.759 13.5752 164.367C13.0465 167.975 11.2489 182.09 11.2489 183.469C11.2489 184.849 10.403 189.306 10.8259 189.624C11.2489 189.943 16.113 189.624 16.113 189.624C16.2847 189.149 16.3567 188.643 16.3245 188.139C16.3245 187.078 15.4786 183.575 15.6901 182.726C15.9015 181.878 16.6417 179.224 16.6417 179.224C16.6417 179.224 19.9197 170.629 21.2944 167.975C22.669 165.322 23.8321 161.502 24.5723 159.167C25.3125 156.833 25.947 153.543 25.947 153.543L16.6417 151.102Z" fill="white" stroke="#263238" stroke-linecap="round" stroke-linejoin="round"/>
<path d="M15.6647 182.888C14.197 180.816 11.803 182.081 11.3335 182.357C11.2785 182.905 11.2489 183.295 11.2489 183.469C11.2489 184.849 10.403 189.306 10.8259 189.624C11.2489 189.943 16.113 189.624 16.113 189.624C16.2847 189.149 16.3567 188.643 16.3245 188.139C16.3245 187.137 15.5674 183.966 15.6647 182.888Z" fill="#263238" stroke="#263238" stroke-linecap="round" stroke-linejoin="round"/>
<path d="M16.1131 189.625C15.9016 188.988 14.4212 186.44 14.4212 186.44L11.6719 186.547C10.7203 187.608 10.826 189.625 10.826 189.625C11.249 189.943 16.1131 189.625 16.1131 189.625Z" fill="#8C8C8C" stroke="#263238" stroke-linecap="round" stroke-linejoin="round"/>
<path d="M14.4212 186.441C14.4212 186.441 13.4695 185.591 12.7293 185.91C12.3429 186.059 11.9852 186.275 11.6719 186.547L11.7776 189.731H13.681L14.4212 186.441Z" fill="#263238" stroke="#263238" stroke-linecap="round" stroke-linejoin="round"/>
<path d="M14.3155 129.983C13.75 131.552 13.429 133.198 13.3639 134.865C13.2581 137.624 13.9983 151.208 13.9983 151.208C13.9983 151.208 19.2854 154.816 28.1677 155.134C37.0499 155.453 41.1738 153.012 41.1738 153.012C41.1738 153.012 40.9624 136.669 39.9049 132.743C38.8475 128.816 36.9442 127.224 36.9442 127.224C36.9442 127.224 32.7145 128.498 26.2643 128.392C22.5986 128.364 18.9467 127.937 15.3729 127.118L14.3155 129.983Z" fill="#263238" stroke="#263238" stroke-linecap="round" stroke-linejoin="round"/>
<path d="M17.1027 97.3098C17.1027 97.3098 14.4634 102.225 14.087 105.821C13.7105 109.416 17.1958 120.385 17.1958 120.763C17.1958 121.141 13.5244 130.598 13.5244 130.598C16.4095 131.84 19.399 132.821 22.4574 133.531C27.1693 134.571 31.9742 133.909 32.9174 133.625L34.144 129.94L34.6135 133.06C34.6135 133.06 34.6135 133.154 36.1235 132.776C37.6335 132.398 39.5072 130.789 39.5072 130.789C39.5072 130.789 37.0582 125.02 35.8316 123.412C34.605 121.803 33.0993 118.118 33.0993 118.118L33.6618 113.389C33.6618 113.389 37.8915 116.887 38.2806 116.981C38.6697 117.074 44.5024 110.189 45.7248 108.185C46.9472 106.182 48.9309 101.092 48.9309 101.092L46.1435 99.6742L45.0142 100.808L38.3229 108.092C38.3229 108.092 34.2709 103.456 32.2914 102.701C30.3119 101.945 26.5433 100.808 26.5433 100.808L18.9088 99.012L19.4755 97.4032C19.4755 97.4032 19.0737 96.2698 17.1027 97.3098Z" fill="#3D63DD" stroke="#263238" stroke-linecap="round" stroke-linejoin="round"/>
<path d="M33.6911 113.39L29.436 110.881L33.3104 115.58L33.6911 113.39Z" fill="#263238" stroke="#263238" stroke-linecap="round" stroke-linejoin="round"/>
<path d="M24.7544 119.244C25.1505 119.711 25.5849 120.144 26.0529 120.539" stroke="#263238" stroke-linecap="round" stroke-linejoin="round"/>
<path d="M19.5688 110.003C19.5688 110.003 21.3876 114.706 23.8916 118.145" stroke="#263238" stroke-linecap="round" stroke-linejoin="round"/>
<path d="M21.5776 117.13C22.5941 118.8 23.7836 120.358 25.1263 121.778" stroke="#263238" stroke-linecap="round" stroke-linejoin="round"/>
<path d="M29.3558 82.462C29.7301 83.2137 30.0141 84.0074 30.2018 84.8264C30.5782 86.3375 31.8936 87.0974 32.3716 86.9997C32.8495 86.9021 32.8411 88.0397 32.5577 88.6086C32.3565 88.9889 32.103 89.3389 31.8048 89.6486C31.747 90.9785 31.6214 92.3047 31.4284 93.6218C31.145 95.3197 31.0519 96.6484 30.3921 96.6484H27.0084C27.0084 96.6484 26.725 98.1596 26.6277 99.3906C26.5304 100.622 26.5347 100.808 26.5347 100.808L18.9001 99.0128L19.7461 96.364C19.7461 96.364 14.9412 94.1906 17.2971 90.2174C19.653 86.2441 25.2065 81.2394 29.3558 82.462Z" fill="white" stroke="#263238" stroke-linecap="round" stroke-linejoin="round"/>
<path d="M27 96.6479L25.4351 96.5205L26.6701 98.69L27 96.6479Z" fill="#263238" stroke="#263238" stroke-linecap="round" stroke-linejoin="round"/>
<path d="M31.6151 91.729C31.335 91.9033 31.0156 92.0036 30.6865 92.0206C30.3574 92.0377 30.0294 91.971 29.7329 91.8267" stroke="#263238" stroke-linecap="round" stroke-linejoin="round"/>
<path d="M28.6963 85.8666C28.6963 85.8666 28.8824 84.0707 29.8256 84.1684" stroke="#263238" stroke-linecap="round" stroke-linejoin="round"/>
<path d="M30.1852 86.6179C30.3459 87.1146 30.3332 87.5604 30.1598 87.6199C29.9864 87.6793 29.7369 87.3142 29.5592 86.8175C29.3816 86.3207 29.4112 85.8749 29.5846 85.8155C29.758 85.7561 30.0287 86.1169 30.1852 86.6179Z" fill="#263238"/>
<path d="M29.3563 79.6219L29.3901 79.6643C30.3883 80.9675 30.236 82.4193 29.4493 83.7861C27.8801 86.5665 23.1048 89.1517 23.1048 91.4482C23.1048 93.7446 25.5157 93.6258 25.5157 93.6258C25.5157 93.6258 26.4801 95.6846 24.0692 97.4971C21.6583 99.3097 16.7096 99.7936 13.5754 96.5208C12.7136 95.5904 12.0857 94.4669 11.744 93.2437C10.7923 90.0601 10.657 86.5198 12.057 83.6333C13.2328 81.2137 14.5948 79.2526 17.0437 78.0343C18.9725 77.0834 22.0178 76.8457 24.1707 76.9731C25.222 77.0131 26.2547 77.2643 27.2076 77.7117C28.0445 78.197 28.7753 78.8467 29.3563 79.6219Z" fill="#263238" stroke="#263238" stroke-linecap="round" stroke-linejoin="round"/>
<path d="M22.7664 95.5789C23.2317 95.5025 23.6871 95.3744 24.1241 95.1968" stroke="#757575" stroke-linecap="round" stroke-linejoin="round"/>
<path d="M26.8817 84.9663C26.2256 85.9222 25.4048 86.7531 24.4581 87.4199C21.1336 89.7545 17.4791 92.1996 19.1414 94.4197C19.4275 94.7999 19.7958 95.11 20.2185 95.3269C20.6411 95.5438 21.1073 95.6618 21.5819 95.6719" stroke="#757575" stroke-linecap="round" stroke-linejoin="round"/>
<path d="M28.3325 81.6387C28.199 82.2968 27.9844 82.9357 27.6938 83.5407" stroke="#757575" stroke-linecap="round" stroke-linejoin="round"/>
<path d="M20.406 88.1797C19.8646 88.931 19.1836 89.814 18.3673 90.7521C16.041 93.4221 16.3709 98.8641 21.5776 98.4226" stroke="#757575" stroke-linecap="round" stroke-linejoin="round"/>
<path d="M21.9075 85.8628C21.9075 85.8628 21.6622 86.3341 21.1885 87.0473" stroke="#757575" stroke-linecap="round" stroke-linejoin="round"/>
<path d="M158.032 138.74C159.14 139.224 161.839 139.165 161.839 139.165C161.839 139.165 161.255 137.382 161.204 137.276C160.608 136.028 158.73 133.969 157.203 134.177C156.95 134.218 156.708 134.312 156.493 134.453C156.279 134.594 156.096 134.779 155.957 134.996C155.819 135.213 155.728 135.456 155.689 135.711C155.651 135.966 155.667 136.226 155.736 136.474C156.002 137.535 157.089 138.324 158.032 138.74Z" fill="#263238"/>
<path d="M193.515 129.487C191.98 129.322 190.157 131.431 189.598 132.696C189.548 132.803 188.985 134.598 189.015 134.598H189.048C188.757 134.929 188.448 135.286 188.122 135.685C187.521 136.423 186.853 137.268 186.181 138.232C185.447 139.264 184.775 140.338 184.167 141.449C183.48 142.69 182.905 143.99 182.45 145.333C182.45 145.333 182.45 145.367 182.45 145.38C182.45 144.926 182.45 143.657 182.429 143.563C182.251 142.192 181.105 139.645 179.587 139.361C179.333 139.321 179.073 139.335 178.824 139.402C178.576 139.469 178.345 139.588 178.145 139.751C177.945 139.914 177.782 140.117 177.666 140.348C177.55 140.578 177.484 140.831 177.472 141.089C177.383 142.175 178.17 143.266 178.94 143.954C179.785 144.731 182.209 145.482 182.399 145.541C181.966 146.919 181.627 148.324 181.384 149.748C181.236 150.576 181.114 151.416 180.999 152.261C180.999 151.866 180.999 151.518 180.999 151.467C180.822 150.096 179.675 147.549 178.157 147.269C177.903 147.228 177.644 147.242 177.395 147.308C177.147 147.375 176.915 147.494 176.716 147.656C176.516 147.819 176.353 148.022 176.237 148.252C176.121 148.483 176.054 148.735 176.042 148.993C175.953 150.084 176.74 151.174 177.51 151.862C178.28 152.55 180.323 153.242 180.864 153.416C180.826 153.738 180.779 154.061 180.741 154.384C180.559 155.941 180.382 157.491 180.158 159.006C180.082 159.541 179.984 160.068 179.891 160.59C179.891 160.242 179.891 159.949 179.891 159.902C179.714 158.531 178.567 155.988 177.049 155.704C176.795 155.664 176.536 155.677 176.288 155.744C176.039 155.811 175.808 155.93 175.609 156.092C175.409 156.255 175.246 156.458 175.13 156.688C175.014 156.918 174.947 157.17 174.934 157.427C174.845 158.518 175.632 159.609 176.402 160.297C177.172 160.984 179.016 161.608 179.659 161.821C179.549 162.351 179.434 162.886 179.303 163.4C179.202 163.748 179.13 164.087 179.011 164.431C178.893 164.775 178.796 165.115 178.686 165.45C178.453 166.091 178.22 166.753 177.979 167.369C177.814 167.793 177.645 168.218 177.48 168.642C177.565 168.112 177.709 167.067 177.709 166.978C177.691 165.762 177.364 164.571 176.757 163.519C176.762 163.377 176.754 163.234 176.732 163.094C176.7 162.839 176.615 162.593 176.482 162.373C176.349 162.152 176.172 161.963 175.961 161.816C175.75 161.67 175.511 161.569 175.259 161.522C175.007 161.474 174.748 161.481 174.498 161.54C173.01 161.94 172.062 164.567 171.994 165.947C171.994 166.027 172.041 166.915 172.083 167.475C172.007 167.152 171.939 166.834 171.859 166.499C171.703 165.836 171.525 165.183 171.339 164.478L171.03 163.451C170.937 163.107 170.793 162.759 170.671 162.406C170.374 161.596 170.04 160.789 169.681 159.987C170.256 159.847 172.299 159.325 173.12 158.692C173.94 158.06 174.811 157.037 174.811 155.941C174.818 155.684 174.771 155.429 174.673 155.191C174.575 154.954 174.428 154.74 174.242 154.563C174.056 154.386 173.836 154.25 173.594 154.164C173.352 154.079 173.096 154.045 172.84 154.065C171.305 154.231 169.973 156.684 169.693 158.038C169.693 158.123 169.588 159.117 169.55 159.664C169.33 159.185 169.127 158.701 168.873 158.221C168.188 156.837 167.452 155.453 166.724 154.074L166.06 152.8C166.267 152.749 168.708 152.185 169.626 151.476C170.442 150.848 171.318 149.816 171.318 148.725C171.325 148.468 171.278 148.212 171.181 147.974C171.083 147.736 170.936 147.522 170.75 147.345C170.564 147.168 170.343 147.032 170.101 146.947C169.859 146.861 169.602 146.828 169.347 146.849C167.811 147.014 166.483 149.468 166.204 150.822C166.204 150.924 166.052 152.355 166.039 152.72C165.557 151.786 165.083 150.852 164.652 149.914C164.067 148.646 163.564 147.341 163.146 146.008C163.243 145.987 165.794 145.406 166.733 144.68C167.553 144.052 168.425 143.024 168.425 141.929C168.431 141.672 168.384 141.417 168.286 141.179C168.188 140.941 168.041 140.727 167.855 140.55C167.67 140.373 167.449 140.238 167.207 140.152C166.966 140.066 166.709 140.033 166.454 140.053C164.918 140.218 163.59 142.672 163.311 144.026C163.29 144.132 163.15 145.673 163.146 145.953C163.121 145.877 163.087 145.8 163.066 145.724C162.685 144.374 162.423 142.994 162.283 141.598C162.199 140.83 162.16 140.091 162.139 139.369C162.622 139.31 164.842 139.013 165.76 138.457C166.678 137.901 167.617 136.992 167.727 135.91C167.762 135.655 167.743 135.396 167.672 135.149C167.6 134.902 167.478 134.673 167.312 134.476C167.146 134.28 166.941 134.121 166.71 134.01C166.479 133.898 166.228 133.837 165.971 133.83C164.428 133.83 162.837 136.118 162.41 137.434C162.389 137.502 162.232 138.257 162.131 138.809C162.131 138.482 162.131 138.147 162.131 137.833C162.131 136.661 162.207 135.591 162.279 134.641C162.325 134.102 162.376 133.613 162.431 133.159C162.88 132.854 164.664 131.589 165.21 130.684C165.756 129.78 166.187 128.528 165.785 127.513C165.7 127.271 165.564 127.049 165.387 126.863C165.211 126.677 164.997 126.53 164.76 126.432C164.523 126.333 164.268 126.286 164.012 126.294C163.756 126.301 163.504 126.362 163.273 126.473C161.902 127.187 161.539 129.954 161.767 131.321C161.788 131.44 162.304 133.248 162.33 133.231H162.355C162.296 133.656 162.237 134.135 162.182 134.649C162.084 135.6 161.987 136.67 161.962 137.846C161.919 139.113 161.949 140.381 162.051 141.645C162.161 143.059 162.396 144.461 162.753 145.834C162.753 145.834 162.753 145.868 162.753 145.885C162.507 145.503 161.792 144.455 161.729 144.378C160.828 143.334 158.472 141.831 157.076 142.451C156.843 142.558 156.635 142.713 156.466 142.906C156.297 143.099 156.169 143.325 156.093 143.571C156.016 143.816 155.992 144.075 156.021 144.33C156.051 144.586 156.134 144.832 156.264 145.053C156.789 146.013 158.045 146.488 159.064 146.637C160.215 146.802 162.63 146.098 162.825 146.042C163.221 147.431 163.71 148.791 164.288 150.113C164.622 150.886 164.982 151.654 165.35 152.418C165.13 152.096 164.927 151.807 164.897 151.769C163.996 150.725 161.64 149.222 160.219 149.842C159.986 149.949 159.779 150.104 159.61 150.297C159.441 150.49 159.314 150.717 159.238 150.962C159.162 151.207 159.138 151.466 159.168 151.721C159.198 151.977 159.28 152.223 159.411 152.444C159.936 153.403 161.192 153.878 162.211 154.027C163.231 154.176 165.316 153.603 165.866 153.462C166.009 153.755 166.149 154.048 166.289 154.341C166.987 155.738 167.693 157.13 168.34 158.518C168.573 159.006 168.763 159.499 168.987 159.987C168.793 159.698 168.623 159.46 168.594 159.427C167.693 158.378 165.337 156.88 163.92 157.495C163.687 157.602 163.479 157.757 163.31 157.95C163.14 158.143 163.013 158.369 162.936 158.615C162.86 158.86 162.836 159.119 162.865 159.374C162.895 159.63 162.977 159.876 163.108 160.097C163.632 161.057 164.889 161.532 165.908 161.681C166.927 161.829 168.814 161.324 169.461 161.146C169.664 161.651 169.884 162.16 170.032 162.661C170.142 163.005 170.273 163.332 170.362 163.684C170.451 164.036 170.552 164.372 170.649 164.711C170.806 165.374 170.975 166.057 171.11 166.707C171.212 167.156 171.297 167.589 171.385 168.022C171.161 167.534 170.709 166.583 170.662 166.511C169.926 165.34 167.824 163.51 166.331 163.892C166.084 163.962 165.855 164.084 165.658 164.249C165.462 164.413 165.302 164.618 165.189 164.849C165.077 165.08 165.014 165.333 165.005 165.59C164.996 165.847 165.042 166.103 165.138 166.341C165.51 167.369 166.682 168.039 167.676 168.332C168.763 168.663 171.161 168.358 171.483 168.332C171.626 169.054 171.758 169.754 171.872 170.417C172.049 171.414 172.193 172.339 172.316 173.18H170.793V189.909H177.434V173.142H176.554C176.816 172.539 177.087 171.898 177.37 171.21C177.654 170.523 177.941 169.78 178.216 169.016C178.504 169.075 180.881 169.559 181.989 169.309C182.992 169.079 184.21 168.511 184.658 167.513C184.774 167.282 184.841 167.028 184.852 166.769C184.864 166.51 184.82 166.252 184.724 166.011C184.629 165.77 184.483 165.552 184.298 165.372C184.112 165.192 183.89 165.054 183.647 164.966C182.188 164.474 179.955 166.138 179.134 167.25C179.088 167.318 178.643 168.099 178.369 168.579C178.487 168.269 178.601 167.963 178.72 167.64C178.952 166.999 179.168 166.367 179.401 165.667L179.705 164.639C179.815 164.3 179.887 163.926 179.98 163.565C180.179 162.716 180.34 161.867 180.483 161.018C181.042 161.222 183.021 161.918 184.062 161.842C185.102 161.765 186.379 161.392 186.972 160.475C187.119 160.265 187.221 160.025 187.27 159.772C187.32 159.52 187.315 159.26 187.257 159.009C187.199 158.758 187.089 158.522 186.934 158.317C186.78 158.112 186.583 157.942 186.358 157.818C184.988 157.109 182.526 158.416 181.553 159.393C181.49 159.456 180.868 160.242 180.534 160.666C180.614 160.144 180.699 159.622 180.767 159.091C180.957 157.555 181.101 155.997 181.253 154.422C181.3 153.946 181.35 153.471 181.401 152.996C181.596 153.072 183.939 153.951 185.102 153.866C186.126 153.794 187.416 153.416 188.008 152.499C188.156 152.288 188.257 152.049 188.307 151.796C188.356 151.544 188.351 151.283 188.293 151.033C188.236 150.782 188.126 150.546 187.971 150.341C187.816 150.136 187.619 149.965 187.395 149.842C186.024 149.133 183.567 150.44 182.59 151.416C182.518 151.493 181.621 152.613 181.41 152.911C181.52 151.862 181.638 150.822 181.799 149.799C182.005 148.418 182.302 147.053 182.687 145.711C182.78 145.745 185.225 146.671 186.409 146.59C187.437 146.518 188.723 146.136 189.319 145.223C189.465 145.012 189.566 144.773 189.615 144.52C189.663 144.268 189.658 144.008 189.601 143.758C189.543 143.507 189.433 143.272 189.279 143.067C189.125 142.861 188.93 142.691 188.706 142.566C187.331 141.853 184.874 143.164 183.897 144.141C183.821 144.217 182.86 145.414 182.7 145.656C182.725 145.575 182.738 145.495 182.763 145.418C183.184 144.082 183.725 142.786 184.379 141.547C184.73 140.859 185.102 140.218 185.479 139.603C185.902 139.824 187.932 140.804 189.006 140.851C190.08 140.898 191.366 140.668 192.068 139.819C192.238 139.627 192.366 139.4 192.442 139.154C192.519 138.909 192.543 138.65 192.513 138.394C192.483 138.138 192.4 137.892 192.268 137.671C192.137 137.45 191.961 137.259 191.751 137.111C190.482 136.262 187.877 137.285 186.802 138.147C186.743 138.194 186.198 138.737 185.808 139.136C185.986 138.86 186.16 138.576 186.333 138.317C186.976 137.34 187.627 136.487 188.211 135.736C188.545 135.311 188.858 134.934 189.15 134.585C189.696 134.585 191.878 134.509 192.834 134.059C193.79 133.609 194.83 132.786 195.055 131.729C195.114 131.479 195.12 131.22 195.073 130.967C195.025 130.715 194.926 130.476 194.781 130.265C194.636 130.053 194.448 129.875 194.23 129.741C194.012 129.607 193.768 129.521 193.515 129.487ZM176.524 170.858C176.169 171.686 175.822 172.446 175.497 173.146H173.179C173.035 172.259 172.862 171.278 172.65 170.213C172.506 169.483 172.337 168.706 172.159 167.908C172.883 167.617 173.589 167.284 174.274 166.91C175.065 167.759 177.087 168.774 177.349 168.901C177.07 169.58 176.795 170.238 176.524 170.858Z" fill="#263238"/>
<path d="M185.428 139.339C185.453 139.339 185.923 137.531 185.94 137.412C186.13 136.041 185.694 133.282 184.303 132.611C184.069 132.506 183.816 132.451 183.56 132.45C183.304 132.449 183.05 132.502 182.816 132.606C182.582 132.711 182.372 132.863 182.2 133.054C182.029 133.245 181.899 133.47 181.82 133.715C181.448 134.742 181.917 136.003 182.48 136.869C183.135 137.888 185.428 139.335 185.428 139.339Z" fill="#263238"/>
<path d="M194.47 189.79H199.833" stroke="#263238" stroke-linecap="round" stroke-linejoin="round"/>
<path d="M189.889 189.79H192.004" stroke="#263238" stroke-linecap="round" stroke-linejoin="round"/>
<path d="M3.15381 189.791H188.362" stroke="#263238" stroke-linecap="round" stroke-linejoin="round"/>
</svg>
