<svg width="181" height="176" viewBox="0 0 181 176" fill="none" xmlns="http://www.w3.org/2000/svg">
<path d="M143.398 10.7868C143.424 10.7868 144.222 8.68398 144.258 8.55923C144.663 6.94199 144.489 3.5783 142.921 2.5937C142.653 2.44209 142.357 2.34762 142.051 2.31627C141.744 2.28492 141.435 2.31736 141.142 2.41155C140.849 2.50574 140.579 2.65962 140.348 2.8635C140.117 3.06738 139.932 3.31684 139.802 3.59612C139.219 4.78121 139.629 6.3539 140.19 7.46771C140.823 8.75081 143.398 10.7824 143.398 10.7868Z" fill="#3D63DD"/>
<path d="M180.362 26.2063C179.057 24.8697 175.738 25.4222 174.245 26.1662C174.116 26.2286 172.214 27.4627 172.241 27.5028L172.267 27.5295C171.746 27.6141 171.18 27.7077 170.57 27.8235C169.443 28.0507 168.168 28.3136 166.805 28.7146C165.328 29.1059 163.876 29.5864 162.457 30.1536C160.863 30.7766 159.327 31.54 157.868 32.4347L157.819 32.4703C158.175 32.056 159.129 30.8575 159.196 30.7595C160.087 29.3472 160.978 26.0994 159.77 24.6692C159.562 24.441 159.308 24.2587 159.025 24.134C158.742 24.0092 158.436 23.9448 158.126 23.9448C157.817 23.9448 157.511 24.0092 157.228 24.134C156.945 24.2587 156.691 24.441 156.482 24.6692C155.56 25.6137 155.458 27.231 155.645 28.4651C155.859 29.8507 157.521 32.4035 157.654 32.6084C156.192 33.5522 154.796 34.5941 153.475 35.7271C152.7 36.3864 151.943 37.0636 151.19 37.7676C151.484 37.3978 151.747 37.0681 151.778 37.0146C152.669 35.6023 153.56 32.3545 152.357 30.9244C152.148 30.6961 151.894 30.5138 151.611 30.3891C151.328 30.2644 151.022 30.1999 150.713 30.1999C150.404 30.1999 150.098 30.2644 149.815 30.3891C149.532 30.5138 149.278 30.6961 149.069 30.9244C148.147 31.8689 148.044 33.4906 148.231 34.7202C148.419 35.9498 149.795 38.173 150.165 38.7299L149.31 39.5363C147.942 40.8372 146.583 42.1426 145.211 43.3811C144.73 43.8267 144.235 44.2321 143.745 44.6464C144.008 44.3167 144.226 44.0405 144.257 43.996C145.148 42.5837 146.039 39.3358 144.832 37.9012C144.625 37.6715 144.372 37.4875 144.09 37.3609C143.808 37.2342 143.502 37.1677 143.193 37.1656C142.884 37.1635 142.577 37.2259 142.293 37.3487C142.01 37.4715 141.754 37.6521 141.544 37.8789C140.626 38.8234 140.519 40.4451 140.707 41.6748C140.894 42.9044 142.141 44.9137 142.578 45.6043C142.065 46.0142 141.549 46.424 141.032 46.7983C140.671 47.0433 140.341 47.3062 139.967 47.5334L138.88 48.2284C138.172 48.6427 137.445 49.0749 136.746 49.467C136.26 49.7387 135.792 49.9882 135.325 50.2466C135.81 49.8011 136.741 48.9546 136.813 48.8744C137.734 47.731 138.348 46.3705 138.595 44.9226C138.704 44.801 138.799 44.668 138.88 44.5261C139.043 44.2634 139.149 43.9697 139.192 43.6636C139.236 43.3576 139.215 43.0459 139.131 42.7484C139.047 42.4508 138.902 42.174 138.706 41.9355C138.509 41.697 138.265 41.502 137.989 41.3629C136.701 40.7704 134.723 41.6124 133.351 42.5881C133.409 41.6391 133.382 41.0555 133.382 41.0555L133.021 41.0912L133.284 40.463C133.462 40.0709 133.596 39.6343 133.752 39.2155C134.099 38.2354 134.402 37.224 134.688 36.2038C135.334 36.5157 137.637 37.6072 138.889 37.6517C140.141 37.6963 141.731 37.4111 142.564 36.3865C142.766 36.1517 142.917 35.8775 143.007 35.5813C143.096 35.2851 143.123 34.9734 143.086 34.6662C143.049 34.3589 142.948 34.0628 142.79 33.7967C142.632 33.5307 142.42 33.3004 142.168 33.1208C140.609 32.0961 137.481 33.348 136.18 34.3905C136.1 34.4573 135.249 35.3127 134.794 35.7894C134.959 35.1746 135.129 34.5598 135.276 33.9272C135.699 32.1139 136.073 30.2605 136.456 28.4161C136.572 27.8503 136.697 27.2889 136.817 26.7231C137.044 26.8389 139.758 28.1933 141.157 28.2423C142.404 28.2869 143.999 28.0017 144.832 26.977C145.033 26.7424 145.183 26.4685 145.272 26.1727C145.362 25.877 145.389 25.5659 145.351 25.2592C145.314 24.9525 145.213 24.6569 145.056 24.3912C144.898 24.1255 144.687 23.8955 144.436 23.7158C142.876 22.6867 139.749 23.9386 138.448 24.9856C138.35 25.0613 137.111 26.2909 136.839 26.6206C137.102 25.3821 137.383 24.148 137.704 22.9406C138.129 21.3122 138.662 19.7137 139.299 18.1557C139.406 18.2092 142.23 19.6348 143.665 19.6839C144.908 19.7329 146.507 19.4433 147.34 18.4186C147.541 18.1836 147.691 17.9095 147.78 17.6136C147.869 17.3176 147.895 17.0064 147.858 16.6997C147.82 16.393 147.719 16.0975 147.561 15.8319C147.403 15.5664 147.191 15.3367 146.939 15.1574C145.38 14.1282 142.257 15.3801 140.956 16.4271C140.854 16.5073 139.544 17.8305 139.321 18.0889C139.361 17.9998 139.388 17.9018 139.428 17.8127C140.105 16.2574 140.92 14.7663 141.865 13.3575C142.377 12.5778 142.907 11.856 143.442 11.1699C143.941 11.4907 146.235 12.9253 147.523 13.1169C148.811 13.3084 150.374 13.1837 151.314 12.2615C151.54 12.05 151.719 11.7938 151.841 11.5092C151.962 11.2247 152.023 10.918 152.019 10.6087C152.015 10.2994 151.947 9.99422 151.819 9.7127C151.691 9.43118 151.505 9.17944 151.274 8.97352C149.84 7.77953 146.596 8.68394 145.188 9.57943C145.113 9.62399 144.387 10.2076 143.852 10.6353C144.097 10.3324 144.342 10.0116 144.583 9.722C145.474 8.63493 146.365 7.69488 147.176 6.87066C147.621 6.42514 148.067 5.97962 148.454 5.60984C149.109 5.66776 151.742 5.86824 152.949 5.45391C154.157 5.03957 155.516 4.20199 155.921 2.94562C156.024 2.65418 156.065 2.34446 156.042 2.03619C156.019 1.72792 155.932 1.42784 155.787 1.15504C155.641 0.882234 155.441 0.642684 155.198 0.451625C154.955 0.260567 154.675 0.122181 154.375 0.0452766C152.548 -0.351237 150.085 1.94765 149.247 3.38669C149.176 3.51143 148.271 5.59202 148.303 5.61429H148.343C147.951 5.97071 147.536 6.36277 147.091 6.79493C146.271 7.60577 145.358 8.528 144.418 9.60171C143.404 10.7456 142.458 11.9475 141.584 13.2015C140.6 14.6077 139.743 16.0986 139.022 17.6567L138.996 17.7147C139.067 17.1711 139.205 15.6474 139.201 15.5271C139.165 13.8609 138.114 10.6621 136.323 10.1274C136.024 10.0496 135.712 10.0347 135.407 10.0837C135.102 10.1327 134.811 10.2445 134.552 10.4121C134.293 10.5797 134.071 10.7993 133.901 11.0571C133.731 11.3149 133.617 11.6051 133.565 11.9095C133.32 13.2015 134.126 14.6094 134.964 15.5361C135.904 16.5786 138.702 17.7637 138.924 17.8839C138.227 19.4755 137.639 21.1129 137.165 22.7847C136.88 23.7604 136.626 24.7494 136.381 25.7474C136.425 25.2751 136.461 24.8564 136.456 24.794C136.421 23.1277 135.369 19.9289 133.578 19.3943C133.28 19.3171 132.969 19.3028 132.664 19.3521C132.36 19.4015 132.069 19.5134 131.81 19.6809C131.552 19.8484 131.33 20.0678 131.161 20.3252C130.991 20.5827 130.877 20.8725 130.825 21.1764C130.575 22.4684 131.386 23.8762 132.219 24.8029C133.052 25.7296 135.432 26.8167 136.06 27.0973C135.971 27.4805 135.877 27.8592 135.788 28.2423C135.365 30.0823 134.955 31.9223 134.492 33.7089C134.331 34.3415 134.148 34.9563 133.97 35.5711C134.006 35.1568 134.033 34.8004 134.033 34.7469C133.997 33.0807 132.946 29.8818 131.155 29.3472C130.856 29.2701 130.545 29.2557 130.241 29.3051C129.936 29.3544 129.646 29.4664 129.387 29.6339C129.128 29.8014 128.907 30.0208 128.737 30.2782C128.567 30.5356 128.453 30.8254 128.401 31.1293C128.152 32.4258 128.958 33.8336 129.796 34.7603C130.633 35.687 132.776 36.6671 133.52 36.9879C133.32 37.6161 133.115 38.2398 132.888 38.8368C132.727 39.2422 132.598 39.6432 132.411 40.0397L131.899 41.1892C131.502 41.256 131.043 41.3451 130.531 41.4609C130.397 39.7813 129.769 37.7319 128.49 37.126C128.206 37.0037 127.899 36.9421 127.589 36.9451C127.279 36.9481 126.973 37.0158 126.691 37.1436C126.409 37.2715 126.157 37.4568 125.95 37.6878C125.744 37.9187 125.588 38.1902 125.492 38.4849C125.046 39.7279 125.639 41.2426 126.325 42.2807C126.425 42.4383 126.539 42.5873 126.664 42.7262C124.474 43.6192 122.505 44.9784 120.894 46.7092C116.274 51.8772 116.622 59.7273 116.622 59.7273C116.622 59.7273 123.175 59.2818 127.831 55.2721C129.261 54.5949 131.11 53.6949 133.226 52.5589C134.019 52.1401 134.857 51.6678 135.712 51.1822C135.939 51.4629 137.779 53.744 139.005 54.3632C140.118 54.929 141.678 55.3345 142.872 54.7553C143.151 54.6264 143.401 54.4408 143.606 54.2104C143.81 53.98 143.964 53.7098 144.059 53.4167C144.154 53.1237 144.186 52.8142 144.155 52.5078C144.124 52.2014 144.03 51.9048 143.879 51.6366C142.894 50.0506 139.53 49.8813 137.913 50.3001C137.82 50.3268 136.813 50.701 136.18 50.9461C136.528 50.7456 136.871 50.554 137.227 50.3402C137.935 49.9258 138.63 49.4937 139.379 49.0303L140.453 48.313C140.813 48.0814 141.17 47.7918 141.531 47.5289C142.359 46.9052 143.17 46.228 143.972 45.533C144.338 46.1523 145.661 48.3309 146.677 49.0571C147.692 49.7833 149.18 50.4248 150.441 50.0328C150.739 49.9477 151.015 49.8016 151.253 49.6037C151.491 49.4059 151.685 49.1606 151.823 48.8835C151.961 48.6064 152.04 48.3036 152.054 47.9945C152.069 47.6853 152.019 47.3766 151.907 47.0879C151.176 45.3726 147.875 44.691 146.218 44.8603C146.111 44.8603 144.935 45.1142 144.289 45.2612C144.765 44.838 145.246 44.4147 145.719 43.9737C147.055 42.6906 148.392 41.354 149.728 40.0264C150.138 39.6165 150.553 39.2155 150.962 38.8145C151.087 39.0328 152.606 41.6614 153.747 42.4767C154.758 43.2029 156.251 43.84 157.507 43.448C157.805 43.3633 158.081 43.2177 158.319 43.0203C158.557 42.823 158.752 42.5782 158.89 42.3016C159.028 42.025 159.107 41.7226 159.123 41.4138C159.138 41.1049 159.088 40.7963 158.977 40.5075C158.242 38.7878 154.968 38.1106 153.284 38.2799C153.159 38.2799 151.466 38.6452 151.056 38.7566C151.947 37.8656 152.874 36.9745 153.805 36.1681C155.06 35.0433 156.388 34.0015 157.779 33.0495C157.837 33.152 159.41 35.9008 160.577 36.734C161.588 37.4602 163.081 38.1017 164.337 37.7052C164.634 37.6206 164.911 37.4749 165.149 37.2776C165.387 37.0802 165.582 36.8354 165.72 36.5588C165.858 36.2822 165.937 35.9799 165.952 35.671C165.967 35.3621 165.918 35.0535 165.807 34.7648C165.072 33.045 161.775 32.3678 160.113 32.5371C159.984 32.5371 158.162 32.9337 157.832 33.0272C157.917 32.9693 157.993 32.9069 158.073 32.8535C159.494 31.9371 160.994 31.1499 162.555 30.5011C163.41 30.1313 164.248 29.8239 165.072 29.5477C165.313 30.0868 166.435 32.5505 167.407 33.4193C168.378 34.288 169.746 35.0499 171.038 34.8004C171.343 34.7488 171.634 34.6341 171.893 34.4636C172.151 34.2931 172.371 34.0706 172.539 33.8102C172.707 33.5499 172.818 33.2574 172.867 32.9515C172.915 32.6457 172.899 32.3331 172.82 32.0337C172.276 30.2516 169.073 29.2091 167.407 29.1824C167.313 29.1824 166.391 29.2626 165.718 29.3383C166.092 29.218 166.475 29.0844 166.836 28.9774C168.173 28.5676 169.452 28.278 170.574 28.0285C171.211 27.8904 171.791 27.779 172.356 27.6854C172.869 28.0908 174.958 29.7125 176.192 30.0333C177.426 30.3541 179.021 30.4031 180.055 29.5878C180.319 29.4018 180.54 29.1606 180.701 28.881C180.863 28.6013 180.962 28.2898 180.991 27.9681C181.02 27.6465 180.979 27.3223 180.871 27.0181C180.762 26.7138 180.589 26.4368 180.362 26.2063ZM132.736 51.552C131.765 52.0465 130.847 52.4965 130.001 52.8886C131.434 50.8095 132.419 48.4546 132.892 45.9741C133.146 46.0364 133.404 46.0899 133.663 46.1389C133.739 47.5423 134.857 50.0372 134.999 50.358C134.224 50.7857 133.462 51.2045 132.736 51.552Z" fill="#3D63DD"/>
<path d="M167.206 27.7301C168.436 26.6029 170.151 23.7204 169.371 22.0096C169.232 21.7335 169.037 21.4894 168.799 21.2928C168.56 21.0962 168.283 20.9514 167.986 20.8676C167.688 20.7838 167.377 20.7628 167.071 20.806C166.765 20.8492 166.471 20.9556 166.208 21.1185C165.072 21.7868 164.542 23.3194 164.399 24.5579C164.23 26.0103 165.255 29.1245 165.255 29.1245C165.255 29.1245 167.104 27.8281 167.206 27.7301Z" fill="#3D63DD"/>
<path d="M113.254 13.8652C113.254 13.8652 103.742 23.5152 103.693 35.473C103.644 47.4308 113.049 57.1565 113.049 57.1565C113.049 57.1565 122.57 47.5065 122.61 35.5532C122.65 23.5999 113.254 13.8652 113.254 13.8652Z" fill="#3D63DD"/>
<path d="M92.3452 41.2114C92.3452 41.2114 92.2873 49.0704 97.0945 54.0647C101.902 59.059 109.752 59.2996 109.752 59.2996C109.752 59.2996 109.814 51.4406 105.007 46.4463C100.2 41.452 92.3452 41.2114 92.3452 41.2114Z" fill="#3D63DD"/>
<g opacity="0.5">
<path d="M143.398 10.7868C143.424 10.7868 144.222 8.68398 144.258 8.55923C144.663 6.94199 144.489 3.5783 142.921 2.5937C142.653 2.44209 142.357 2.34762 142.051 2.31627C141.744 2.28492 141.435 2.31736 141.142 2.41155C140.849 2.50574 140.579 2.65962 140.348 2.8635C140.117 3.06738 139.932 3.31684 139.802 3.59612C139.219 4.78121 139.629 6.3539 140.19 7.46771C140.823 8.75081 143.398 10.7824 143.398 10.7868Z" fill="white"/>
<path d="M180.363 26.2063C179.057 24.8697 175.738 25.4222 174.245 26.1662C174.116 26.2286 172.214 27.4627 172.241 27.5028L172.267 27.5295C171.746 27.6141 171.18 27.7077 170.57 27.8235C169.443 28.0507 168.169 28.3136 166.805 28.7146C165.328 29.1059 163.876 29.5864 162.457 30.1536C160.863 30.7766 159.327 31.54 157.868 32.4347L157.819 32.4703C158.176 32.056 159.129 30.8575 159.196 30.7595C160.087 29.3472 160.978 26.0994 159.771 24.6692C159.562 24.441 159.308 24.2587 159.025 24.134C158.742 24.0092 158.436 23.9448 158.127 23.9448C157.817 23.9448 157.511 24.0092 157.228 24.134C156.945 24.2587 156.691 24.441 156.483 24.6692C155.56 25.6137 155.458 27.231 155.645 28.4651C155.859 29.8507 157.521 32.4035 157.654 32.6084C156.192 33.5522 154.796 34.5941 153.475 35.7271C152.7 36.3864 151.943 37.0636 151.19 37.7676C151.484 37.3978 151.747 37.0681 151.778 37.0146C152.669 35.6023 153.56 32.3545 152.357 30.9244C152.148 30.6961 151.894 30.5138 151.611 30.3891C151.328 30.2644 151.022 30.1999 150.713 30.1999C150.404 30.1999 150.098 30.2644 149.815 30.3891C149.532 30.5138 149.278 30.6961 149.069 30.9244C148.147 31.8689 148.044 33.4906 148.232 34.7202C148.419 35.9498 149.795 38.173 150.165 38.7299L149.31 39.5363C147.942 40.8372 146.583 42.1426 145.211 43.3811C144.73 43.8267 144.235 44.2321 143.745 44.6464C144.008 44.3167 144.226 44.0405 144.257 43.996C145.149 42.5837 146.04 39.3358 144.832 37.9012C144.625 37.6715 144.372 37.4875 144.09 37.3609C143.808 37.2342 143.502 37.1677 143.193 37.1656C142.884 37.1635 142.577 37.2259 142.294 37.3487C142.01 37.4715 141.755 37.6521 141.544 37.8789C140.626 38.8234 140.52 40.4451 140.707 41.6748C140.894 42.9044 142.141 44.9137 142.578 45.6043C142.066 46.0142 141.549 46.424 141.032 46.7983C140.671 47.0433 140.341 47.3062 139.967 47.5334L138.88 48.2284C138.172 48.6427 137.445 49.0749 136.746 49.467C136.26 49.7387 135.793 49.9882 135.325 50.2466C135.81 49.8011 136.742 48.9546 136.813 48.8744C137.735 47.731 138.348 46.3705 138.595 44.9226C138.704 44.801 138.799 44.668 138.88 44.5261C139.043 44.2634 139.149 43.9697 139.193 43.6636C139.236 43.3576 139.215 43.0459 139.131 42.7484C139.047 42.4508 138.902 42.174 138.706 41.9355C138.509 41.697 138.265 41.502 137.989 41.3629C136.701 40.7704 134.723 41.6124 133.351 42.5881C133.409 41.6391 133.382 41.0555 133.382 41.0555L133.021 41.0912L133.284 40.463C133.462 40.0709 133.596 39.6343 133.752 39.2155C134.1 38.2354 134.403 37.224 134.688 36.2038C135.334 36.5157 137.637 37.6072 138.889 37.6517C140.141 37.6963 141.731 37.4111 142.564 36.3865C142.766 36.1517 142.917 35.8775 143.007 35.5813C143.096 35.2851 143.124 34.9734 143.086 34.6662C143.049 34.3589 142.948 34.0628 142.79 33.7967C142.632 33.5307 142.42 33.3004 142.168 33.1208C140.609 32.0961 137.481 33.348 136.18 34.3905C136.1 34.4573 135.249 35.3127 134.795 35.7894C134.959 35.1746 135.129 34.5598 135.276 33.9272C135.699 32.1139 136.073 30.2605 136.456 28.4161C136.572 27.8503 136.697 27.2889 136.817 26.7231C137.044 26.8389 139.758 28.1933 141.157 28.2423C142.404 28.2869 143.999 28.0017 144.832 26.977C145.033 26.7424 145.183 26.4685 145.273 26.1727C145.362 25.877 145.389 25.5659 145.352 25.2592C145.314 24.9525 145.214 24.6569 145.056 24.3912C144.898 24.1255 144.687 23.8955 144.436 23.7158C142.876 22.6867 139.749 23.9386 138.448 24.9856C138.35 25.0613 137.111 26.2909 136.84 26.6206C137.102 25.3821 137.383 24.148 137.704 22.9406C138.129 21.3122 138.662 19.7137 139.299 18.1557C139.406 18.2092 142.23 19.6348 143.665 19.6839C144.908 19.7329 146.507 19.4433 147.34 18.4186C147.541 18.1836 147.691 17.9095 147.78 17.6136C147.869 17.3176 147.896 17.0064 147.858 16.6997C147.82 16.393 147.719 16.0975 147.561 15.8319C147.403 15.5664 147.191 15.3367 146.939 15.1574C145.38 14.1282 142.257 15.3801 140.956 16.4271C140.854 16.5073 139.544 17.8305 139.321 18.0889C139.361 17.9998 139.388 17.9018 139.428 17.8127C140.105 16.2574 140.92 14.7663 141.865 13.3575C142.377 12.5778 142.908 11.856 143.442 11.1699C143.941 11.4907 146.236 12.9253 147.523 13.1169C148.811 13.3084 150.374 13.1837 151.315 12.2615C151.54 12.05 151.719 11.7938 151.841 11.5092C151.962 11.2247 152.023 10.918 152.019 10.6087C152.015 10.2994 151.947 9.99422 151.819 9.7127C151.691 9.43118 151.505 9.17944 151.274 8.97352C149.84 7.77953 146.596 8.68394 145.189 9.57943C145.113 9.62399 144.387 10.2076 143.852 10.6353C144.097 10.3324 144.342 10.0116 144.583 9.722C145.474 8.63493 146.365 7.69488 147.176 6.87066C147.621 6.42514 148.067 5.97962 148.454 5.60984C149.109 5.66776 151.742 5.86824 152.95 5.45391C154.157 5.03957 155.516 4.20199 155.921 2.94562C156.024 2.65418 156.066 2.34446 156.042 2.03619C156.019 1.72792 155.932 1.42784 155.787 1.15504C155.641 0.882234 155.441 0.642684 155.198 0.451625C154.955 0.260567 154.675 0.122181 154.375 0.0452766C152.549 -0.351237 150.085 1.94765 149.247 3.38669C149.176 3.51143 148.272 5.59202 148.303 5.61429H148.343C147.951 5.97071 147.537 6.36277 147.091 6.79493C146.271 7.60577 145.358 8.528 144.418 9.60171C143.404 10.7456 142.458 11.9475 141.584 13.2015C140.6 14.6077 139.743 16.0986 139.023 17.6567L138.996 17.7147C139.067 17.1711 139.205 15.6474 139.201 15.5271C139.165 13.8609 138.114 10.6621 136.323 10.1274C136.024 10.0496 135.712 10.0347 135.407 10.0837C135.103 10.1327 134.811 10.2445 134.552 10.4121C134.293 10.5797 134.071 10.7993 133.901 11.0571C133.731 11.3149 133.617 11.6051 133.565 11.9095C133.32 13.2015 134.126 14.6094 134.964 15.5361C135.904 16.5786 138.702 17.7637 138.925 17.8839C138.227 19.4755 137.639 21.1129 137.165 22.7847C136.88 23.7604 136.626 24.7494 136.381 25.7474C136.425 25.2751 136.461 24.8564 136.456 24.794C136.421 23.1277 135.369 19.9289 133.578 19.3943C133.28 19.3171 132.969 19.3028 132.664 19.3521C132.36 19.4015 132.069 19.5134 131.81 19.6809C131.552 19.8484 131.33 20.0678 131.161 20.3252C130.991 20.5827 130.877 20.8725 130.825 21.1764C130.576 22.4684 131.386 23.8762 132.219 24.8029C133.053 25.7296 135.432 26.8167 136.06 27.0973C135.971 27.4805 135.877 27.8592 135.788 28.2423C135.365 30.0823 134.955 31.9223 134.492 33.7089C134.331 34.3415 134.149 34.9563 133.97 35.5711C134.006 35.1568 134.033 34.8004 134.033 34.7469C133.997 33.0807 132.946 29.8818 131.155 29.3472C130.856 29.2701 130.545 29.2557 130.241 29.3051C129.936 29.3544 129.646 29.4664 129.387 29.6339C129.128 29.8014 128.907 30.0208 128.737 30.2782C128.568 30.5356 128.453 30.8254 128.401 31.1293C128.152 32.4258 128.958 33.8336 129.796 34.7603C130.633 35.687 132.776 36.6671 133.52 36.9879C133.32 37.6161 133.115 38.2398 132.888 38.8368C132.727 39.2422 132.598 39.6432 132.411 40.0397L131.899 41.1892C131.502 41.256 131.043 41.3451 130.531 41.4609C130.397 39.7813 129.769 37.7319 128.49 37.126C128.206 37.0037 127.899 36.9421 127.589 36.9451C127.279 36.9481 126.974 37.0158 126.691 37.1436C126.409 37.2715 126.157 37.4568 125.95 37.6878C125.744 37.9187 125.588 38.1902 125.492 38.4849C125.047 39.7279 125.639 41.2426 126.325 42.2807C126.426 42.4383 126.539 42.5873 126.664 42.7262C124.474 43.6192 122.505 44.9784 120.894 46.7092C116.274 51.8772 116.622 59.7273 116.622 59.7273C116.622 59.7273 123.175 59.2818 127.831 55.2721C129.261 54.5949 131.11 53.6949 133.226 52.5589C134.019 52.1401 134.857 51.6678 135.712 51.1822C135.94 51.4629 137.78 53.744 139.005 54.3632C140.119 54.929 141.678 55.3345 142.872 54.7553C143.152 54.6264 143.401 54.4408 143.606 54.2104C143.81 53.98 143.965 53.7098 144.059 53.4167C144.154 53.1237 144.187 52.8142 144.156 52.5078C144.124 52.2014 144.03 51.9048 143.879 51.6366C142.894 50.0506 139.53 49.8813 137.913 50.3001C137.82 50.3268 136.813 50.701 136.18 50.9461C136.528 50.7456 136.871 50.554 137.227 50.3402C137.936 49.9258 138.631 49.4937 139.379 49.0303L140.453 48.313C140.814 48.0814 141.17 47.7918 141.531 47.5289C142.36 46.9052 143.17 46.228 143.972 45.533C144.338 46.1523 145.661 48.3309 146.677 49.0571C147.692 49.7833 149.18 50.4248 150.441 50.0328C150.739 49.9477 151.015 49.8016 151.253 49.6037C151.491 49.4059 151.686 49.1606 151.823 48.8835C151.961 48.6064 152.04 48.3036 152.054 47.9945C152.069 47.6853 152.019 47.3766 151.907 47.0879C151.176 45.3726 147.875 44.691 146.218 44.8603C146.111 44.8603 144.935 45.1142 144.289 45.2612C144.765 44.838 145.247 44.4147 145.719 43.9737C147.055 42.6906 148.392 41.354 149.728 40.0264C150.138 39.6165 150.553 39.2155 150.963 38.8145C151.087 39.0328 152.607 41.6614 153.747 42.4767C154.758 43.2029 156.251 43.84 157.507 43.448C157.805 43.3633 158.081 43.2177 158.319 43.0203C158.557 42.823 158.752 42.5782 158.89 42.3016C159.028 42.025 159.108 41.7226 159.123 41.4138C159.138 41.1049 159.088 40.7963 158.977 40.5075C158.242 38.7878 154.968 38.1106 153.284 38.2799C153.159 38.2799 151.466 38.6452 151.056 38.7566C151.947 37.8656 152.874 36.9745 153.805 36.1681C155.06 35.0433 156.388 34.0015 157.779 33.0495C157.837 33.152 159.41 35.9008 160.577 36.734C161.588 37.4602 163.081 38.1017 164.337 37.7052C164.635 37.6206 164.911 37.4749 165.149 37.2776C165.387 37.0802 165.582 36.8354 165.72 36.5588C165.858 36.2822 165.937 35.9799 165.952 35.671C165.968 35.3621 165.918 35.0535 165.807 34.7648C165.072 33.045 161.775 32.3678 160.114 32.5371C159.984 32.5371 158.162 32.9337 157.832 33.0272C157.917 32.9693 157.993 32.9069 158.073 32.8535C159.494 31.9371 160.994 31.1499 162.555 30.5011C163.41 30.1313 164.248 29.8239 165.072 29.5477C165.313 30.0868 166.436 32.5505 167.407 33.4193C168.378 34.288 169.746 35.0499 171.038 34.8004C171.343 34.7488 171.634 34.6341 171.893 34.4636C172.151 34.2931 172.371 34.0706 172.539 33.8102C172.707 33.5499 172.818 33.2574 172.867 32.9515C172.915 32.6457 172.899 32.3331 172.82 32.0337C172.276 30.2516 169.073 29.2091 167.407 29.1824C167.313 29.1824 166.391 29.2626 165.718 29.3383C166.092 29.218 166.476 29.0844 166.836 28.9774C168.173 28.5676 169.452 28.278 170.574 28.0285C171.212 27.8904 171.791 27.779 172.356 27.6854C172.869 28.0908 174.958 29.7125 176.192 30.0333C177.427 30.3541 179.021 30.4031 180.055 29.5878C180.319 29.4018 180.54 29.1606 180.701 28.881C180.863 28.6013 180.962 28.2898 180.991 27.9681C181.02 27.6465 180.979 27.3223 180.871 27.0181C180.762 26.7138 180.589 26.4368 180.363 26.2063ZM132.736 51.552C131.765 52.0465 130.847 52.4965 130.001 52.8886C131.434 50.8095 132.419 48.4546 132.892 45.9741C133.146 46.0364 133.405 46.0899 133.663 46.1389C133.739 47.5423 134.857 50.0372 135 50.358C134.224 50.7857 133.462 51.2045 132.736 51.552Z" fill="white"/>
<path d="M167.206 27.7301C168.436 26.6029 170.151 23.7204 169.372 22.0096C169.232 21.7335 169.037 21.4894 168.799 21.2928C168.56 21.0962 168.284 20.9514 167.986 20.8676C167.689 20.7838 167.377 20.7628 167.071 20.806C166.765 20.8492 166.471 20.9556 166.208 21.1185C165.072 21.7868 164.542 23.3194 164.399 24.5579C164.23 26.0103 165.255 29.1245 165.255 29.1245C165.255 29.1245 167.104 27.8281 167.206 27.7301Z" fill="white"/>
<path d="M113.254 13.8652C113.254 13.8652 103.742 23.5152 103.693 35.473C103.644 47.4308 113.049 57.1565 113.049 57.1565C113.049 57.1565 122.569 47.5065 122.61 35.5532C122.65 23.5999 113.254 13.8652 113.254 13.8652Z" fill="white"/>
<path d="M92.3454 41.2114C92.3454 41.2114 92.2875 49.0704 97.0946 54.0647C101.902 59.059 109.752 59.2996 109.752 59.2996C109.752 59.2996 109.814 51.4406 105.007 46.4463C100.2 41.452 92.3454 41.2114 92.3454 41.2114Z" fill="white"/>
</g>
<path d="M119.232 46.3081L118.929 45.916L113.334 50.3089L113.378 40.6455L121.153 33.7667L120.823 33.3969L113.378 39.9817L113.427 29.3694L118.662 24.834L118.341 24.4597L113.427 28.71L113.494 13.8652H113L112.902 35.7359L106.744 26.7319L106.335 27.0081L112.861 36.5467L112.902 36.52L112.861 45.6086L105.475 38.9659L105.145 39.3357L112.857 46.2724V46.268L112.812 57.1565L113.307 57.161L113.334 50.9371L119.232 46.3081Z" fill="white"/>
<path d="M133.56 41.1668L133.195 40.8372L124.962 50.0416L125.71 44.0939L125.22 44.036L124.383 50.6832H124.387L121.077 54.3855L120.453 48.8922L119.963 48.9456L120.636 54.88L116.457 59.5491L116.827 59.8787L119.201 57.2279L123.492 57.4863L123.518 56.9918L119.62 56.7556L123.18 52.7771L129.154 52.7816V52.2871L123.621 52.2781L127.537 47.9031L131.507 47.9521L131.516 47.4576L127.978 47.4131L133.56 41.1668Z" fill="white"/>
<path d="M108.041 52.305L107.551 52.2382L107.025 56.1098L103.323 52.2605L103.777 46.3038L103.283 46.2682L102.864 51.7838L98.7876 47.5513L99.1351 43.5951L98.6405 43.555L98.3331 47.0791L92.5235 41.0422L92.1671 41.3853L100.73 50.2823L94.8581 49.0884L94.76 49.574L101.327 50.9061V50.8972L104.771 54.4792L99.2464 54.6886L99.2643 55.1831L105.23 54.9559L109.574 59.469L109.93 59.1259L107.466 56.5642L108.041 52.305Z" fill="white"/>
<path d="M111.654 170.457L168.543 149.112L168.953 144.563L112.483 165.904L111.654 170.457Z" fill="#3D63DD" stroke="#2E353A" stroke-width="1.13593" stroke-linecap="round" stroke-linejoin="round"/>
<path d="M102.075 95.0037C101.076 94.996 100.11 94.6435 99.3399 94.0057C98.3728 93.208 97.7375 92.0788 97.5578 90.8381C97.5353 90.6165 97.5988 90.3947 97.7352 90.2185C97.8715 90.0424 98.0703 89.9254 98.2905 89.8916C98.5107 89.8579 98.7354 89.91 98.9183 90.0372C99.1011 90.1644 99.2281 90.357 99.273 90.5752C99.3893 91.3889 99.8037 92.1305 100.436 92.6558C100.711 92.8929 101.034 93.0675 101.383 93.1676C101.732 93.2676 102.099 93.2906 102.457 93.2352C102.816 93.1797 103.159 93.0469 103.461 92.8461C103.764 92.6453 104.019 92.3813 104.209 92.0722C104.341 91.8903 104.537 91.7662 104.758 91.7259C104.979 91.6856 105.206 91.7322 105.393 91.8559C105.58 91.9797 105.712 92.171 105.762 92.3899C105.811 92.6087 105.773 92.8381 105.657 93.0301C105.332 93.5401 104.902 93.975 104.396 94.3061C103.89 94.6372 103.319 94.8567 102.721 94.9502C102.508 94.986 102.292 95.0039 102.075 95.0037Z" fill="#2E353A"/>
<path d="M93.8645 97.5387C91.6681 97.5387 89.7034 95.7923 89.3336 93.3776C89.3158 93.2652 89.3204 93.1504 89.3471 93.0399C89.3738 92.9293 89.4221 92.8251 89.4891 92.7332C89.5562 92.6413 89.6407 92.5636 89.7379 92.5044C89.835 92.4453 89.9429 92.4059 90.0553 92.3885C90.2825 92.3586 90.5126 92.4173 90.6976 92.5525C90.8826 92.6878 91.0084 92.8891 91.0488 93.1147C91.3072 94.8121 92.7374 96.0061 94.2299 95.7878C94.5881 95.7294 94.9299 95.5956 95.2325 95.3951C95.5352 95.1946 95.7917 94.9321 95.9852 94.625C96.1165 94.4431 96.313 94.319 96.5336 94.2787C96.7543 94.2384 96.982 94.285 97.1691 94.4088C97.3562 94.5325 97.4881 94.7238 97.5373 94.9427C97.5866 95.1615 97.5492 95.3909 97.4332 95.5829C97.108 96.0929 96.678 96.5279 96.1718 96.8589C95.6656 97.19 95.0948 97.4096 94.4972 97.5031C94.2876 97.5323 94.076 97.5442 93.8645 97.5387Z" fill="#2E353A"/>
<path d="M86.3531 100.421C85.3541 100.414 84.388 100.063 83.6176 99.4276C82.6515 98.6291 82.0164 97.5002 81.8355 96.26C81.813 96.0383 81.8765 95.8165 82.0129 95.6404C82.1492 95.4643 82.348 95.3472 82.5682 95.3135C82.7884 95.2798 83.0131 95.3319 83.196 95.4591C83.3788 95.5863 83.5059 95.7789 83.5508 95.9971C83.667 96.8108 84.0814 97.5523 84.7136 98.0777C84.9914 98.3104 85.315 98.4823 85.6634 98.582C86.0118 98.6818 86.3773 98.7073 86.7362 98.6569C87.0939 98.5984 87.435 98.4645 87.7369 98.264C88.0388 98.0635 88.2945 97.801 88.4871 97.494C88.6328 97.3529 88.8222 97.2657 89.0241 97.2469C89.2261 97.228 89.4284 97.2785 89.5977 97.3902C89.767 97.5018 89.8931 97.6679 89.9553 97.8609C90.0174 98.054 90.0119 98.2625 89.9395 98.4519C89.613 98.9617 89.1821 99.3964 88.6752 99.7274C88.1684 100.058 87.5971 100.278 86.9991 100.372C86.7855 100.406 86.5694 100.423 86.3531 100.421Z" fill="#2E353A"/>
<path d="M78.1419 102.774C75.9455 102.774 73.9807 101.023 73.6109 98.6124C73.588 98.4975 73.5885 98.3791 73.6125 98.2644C73.6365 98.1497 73.6835 98.041 73.7506 97.9449C73.8177 97.8488 73.9035 97.7673 74.0029 97.7052C74.1024 97.6432 74.2133 97.6019 74.3291 97.5838C74.4449 97.5658 74.5632 97.5714 74.6768 97.6002C74.7903 97.6291 74.8969 97.6806 74.9901 97.7517C75.0832 97.8229 75.161 97.9121 75.2188 98.0141C75.2766 98.116 75.3131 98.2286 75.3262 98.3451C75.5891 100.043 77.0147 101.237 78.5072 101.018C78.8649 100.96 79.2063 100.826 79.5088 100.627C79.8113 100.427 80.0682 100.166 80.2626 99.8599C80.3212 99.7563 80.4005 99.666 80.4955 99.5944C80.5905 99.5227 80.6992 99.4714 80.8149 99.4435C80.9306 99.4156 81.0507 99.4118 81.1679 99.4323C81.2851 99.4527 81.3969 99.4971 81.4962 99.5625C81.5956 99.6279 81.6805 99.7131 81.7456 99.8127C81.8107 99.9122 81.8547 100.024 81.8748 100.141C81.8948 100.259 81.8906 100.379 81.8624 100.494C81.8341 100.61 81.7824 100.719 81.7105 100.813C81.3847 101.323 80.9547 101.758 80.4486 102.09C79.9426 102.422 79.372 102.643 78.7745 102.738C78.5648 102.765 78.3534 102.777 78.1419 102.774Z" fill="#2E353A"/>
<path d="M69.7351 106.115C67.5431 106.115 65.5783 104.369 65.2041 101.954C65.2177 101.752 65.2998 101.56 65.437 101.411C65.5741 101.261 65.7581 101.163 65.9585 101.133C66.1589 101.102 66.3638 101.141 66.5393 101.242C66.7148 101.344 66.8504 101.502 66.9238 101.691C67.1822 103.388 68.6123 104.578 70.1048 104.364C70.4628 104.305 70.8043 104.171 71.1068 103.97C71.4093 103.77 71.666 103.508 71.8602 103.201C71.9914 103.019 72.188 102.895 72.4086 102.855C72.6293 102.815 72.857 102.861 73.0441 102.985C73.2311 103.109 73.3631 103.3 73.4123 103.519C73.4615 103.738 73.4242 103.967 73.3081 104.159C72.9823 104.669 72.5522 105.103 72.0461 105.434C71.54 105.765 70.9695 105.985 70.3722 106.079C70.1609 106.106 69.948 106.118 69.7351 106.115Z" fill="#2E353A"/>
<path d="M61.5954 109.095C60.5963 109.089 59.63 108.738 58.8599 108.102C57.8938 107.303 57.2587 106.175 57.0778 104.934C57.0553 104.713 57.1188 104.491 57.2552 104.315C57.3915 104.139 57.5903 104.022 57.8105 103.988C58.0307 103.954 58.2555 104.006 58.4383 104.133C58.6212 104.261 58.7482 104.453 58.7931 104.671C58.9093 105.485 59.3237 106.227 59.9559 106.752C60.2308 106.989 60.554 107.164 60.903 107.264C61.252 107.364 61.6186 107.387 61.9774 107.331C62.3362 107.276 62.6787 107.143 62.9812 106.942C63.2837 106.742 63.539 106.477 63.7294 106.168C63.8751 106.027 64.0645 105.94 64.2665 105.921C64.4684 105.902 64.6707 105.953 64.84 106.064C65.0093 106.176 65.1354 106.342 65.1976 106.535C65.2597 106.728 65.2542 106.937 65.1818 107.126C64.8553 107.636 64.4244 108.071 63.9176 108.402C63.4107 108.733 62.8394 108.952 62.2414 109.046C62.0278 109.081 61.8117 109.097 61.5954 109.095Z" fill="#2E353A"/>
<path d="M113.213 167.682L160.292 150.337" stroke="#2E353A" stroke-width="0.567964" stroke-linecap="round" stroke-linejoin="round"/>
<path d="M111.975 169.129L142.119 157.978" stroke="#2E353A" stroke-width="0.567964" stroke-linecap="round" stroke-linejoin="round"/>
<path d="M54.9705 107.095V112.473L111.654 170.457L112.483 165.904L54.9705 107.095Z" fill="#3D63DD" stroke="#2E353A" stroke-width="1.13593" stroke-linecap="round" stroke-linejoin="round"/>
<path d="M55.8125 111.314L89.4716 144.969" stroke="#2E353A" stroke-width="0.567964" stroke-linecap="round" stroke-linejoin="round"/>
<path d="M71.7131 125.767L106.811 161.694" stroke="#2E353A" stroke-width="0.567964" stroke-linecap="round" stroke-linejoin="round"/>
<path d="M54.9705 107.095L112.483 165.904L168.953 144.563L110.424 88.4722L54.9705 107.095Z" fill="white" stroke="#2E353A" stroke-width="1.13593" stroke-linecap="round" stroke-linejoin="round"/>
<path d="M54.2665 106.168L1 56.4527L55.563 39.4382L110.006 87.5857L54.2665 106.168Z" fill="#3D63DD" stroke="#2E353A" stroke-width="1.13593" stroke-linecap="round" stroke-linejoin="round"/>
<path d="M9.15308 56.7825L24.7463 51.9263" stroke="#2E353A" stroke-width="1.21052" stroke-linecap="round" stroke-linejoin="round"/>
<path d="M11.4564 58.5735L27.0497 53.7173" stroke="#2E353A" stroke-width="1.21052" stroke-linecap="round" stroke-linejoin="round"/>
<path d="M64.4512 107.514C64.2817 107.515 64.1157 107.465 63.9745 107.371C63.7865 107.241 63.6558 107.044 63.6093 106.82C63.5629 106.596 63.6043 106.363 63.725 106.168C64.1702 105.477 64.3417 104.645 64.2062 103.834C64.1306 103.219 63.8737 102.641 63.4683 102.173C63.0628 101.705 62.5272 101.368 61.9296 101.205C61.7139 101.146 61.5292 101.006 61.4141 100.814C61.299 100.623 61.2623 100.394 61.3117 100.176C61.3611 99.9574 61.4927 99.7667 61.6792 99.6431C61.8656 99.5195 62.0926 99.4727 62.3127 99.5122C63.2504 99.7525 64.0951 100.267 64.7388 100.99C65.3824 101.713 65.7958 102.612 65.9259 103.571C66.1295 104.811 65.8626 106.082 65.1774 107.135C65.0955 107.252 64.9868 107.347 64.8604 107.413C64.7341 107.479 64.5938 107.513 64.4512 107.514Z" fill="#2E353A"/>
<path d="M72.5819 104.533C72.4123 104.535 72.2463 104.485 72.1052 104.391C72.0097 104.328 71.9276 104.247 71.8635 104.153C71.7995 104.059 71.7548 103.952 71.732 103.841C71.7092 103.729 71.7088 103.613 71.7308 103.501C71.7528 103.389 71.7968 103.283 71.8601 103.188C72.3033 102.496 72.4746 101.664 72.3413 100.853C72.2657 100.239 72.0088 99.6605 71.6034 99.1924C71.1979 98.7243 70.6623 98.3875 70.0647 98.2249C69.9481 98.2056 69.8367 98.1627 69.7372 98.0988C69.6378 98.035 69.5524 97.9515 69.4864 97.8535C69.4203 97.7555 69.3749 97.6451 69.353 97.529C69.331 97.4129 69.333 97.2935 69.3588 97.1782C69.3846 97.0628 69.4337 96.954 69.503 96.8583C69.5723 96.7625 69.6604 96.682 69.7619 96.6215C69.8635 96.561 69.9763 96.5218 70.0934 96.5064C70.2106 96.491 70.3297 96.4997 70.4434 96.5319C71.3811 96.7722 72.2258 97.2868 72.8694 98.0098C73.5131 98.7328 73.9264 99.6314 74.0566 100.591C74.2602 101.83 73.9932 103.102 73.3081 104.155C73.2261 104.271 73.1174 104.367 72.9911 104.433C72.8647 104.498 72.7244 104.533 72.5819 104.533Z" fill="#2E353A"/>
<path d="M104.931 93.422C104.779 93.4143 104.631 93.3676 104.501 93.2862C104.372 93.2049 104.266 93.0917 104.193 92.9575C104.12 92.8233 104.083 92.6726 104.085 92.5199C104.087 92.3672 104.129 92.2176 104.205 92.0855C104.651 91.3961 104.822 90.5649 104.686 89.7554C104.611 89.1399 104.355 88.5607 103.949 88.0917C103.544 87.6227 103.008 87.2852 102.41 87.1223C102.298 87.0981 102.193 87.0521 102.1 86.9869C102.007 86.9216 101.927 86.8385 101.866 86.7424C101.805 86.6462 101.764 86.5389 101.745 86.4267C101.726 86.3145 101.729 86.1996 101.755 86.0887C101.81 85.8665 101.948 85.674 102.142 85.5513C102.335 85.4285 102.568 85.3848 102.793 85.4294C103.73 85.6697 104.575 86.1842 105.219 86.9072C105.862 87.6303 106.276 88.5288 106.406 89.4881C106.61 90.7285 106.341 92.0003 105.653 93.0522C105.572 93.1685 105.464 93.263 105.338 93.3276C105.213 93.3921 105.073 93.4245 104.931 93.422Z" fill="#2E353A"/>
<path d="M96.7069 95.9483C96.5373 95.9493 96.3713 95.8996 96.2302 95.8057C96.1347 95.7431 96.0526 95.6623 95.9885 95.5678C95.9245 95.4733 95.8798 95.3671 95.857 95.2553C95.8342 95.1435 95.8338 95.0282 95.8558 94.9162C95.8778 94.8042 95.9217 94.6977 95.9851 94.6028C96.4286 93.9109 96.6001 93.0792 96.4663 92.2683C96.3907 91.6536 96.1338 91.0753 95.7284 90.6072C95.3229 90.1391 94.7873 89.8023 94.1897 89.6397C94.0731 89.6204 93.9617 89.5775 93.8622 89.5136C93.7628 89.4498 93.6774 89.3663 93.6114 89.2683C93.5453 89.1703 93.4999 89.0599 93.478 88.9438C93.456 88.8276 93.458 88.7083 93.4838 88.5929C93.5096 88.4776 93.5587 88.3688 93.628 88.2731C93.6973 88.1773 93.7854 88.0968 93.8869 88.0363C93.9885 87.9758 94.1013 87.9366 94.2184 87.9212C94.3356 87.9058 94.4547 87.9145 94.5684 87.9467C95.5066 88.1859 96.352 88.7001 96.9958 89.4234C97.6396 90.1466 98.0526 91.0457 98.1816 92.0054C98.3852 93.2452 98.1182 94.5164 97.4331 95.5696C97.3511 95.6862 97.2424 95.7814 97.1161 95.8473C96.9897 95.9132 96.8494 95.9478 96.7069 95.9483Z" fill="#2E353A"/>
<path d="M89.1954 98.8441C89.0254 98.8435 88.8595 98.7923 88.7187 98.6971C88.5307 98.5669 88.3999 98.3694 88.3535 98.1455C88.3071 97.9216 88.3485 97.6884 88.4692 97.4941C88.9167 96.8038 89.0899 95.9711 88.9548 95.1596C88.8792 94.5449 88.6223 93.9667 88.2169 93.4986C87.8114 93.0304 87.2758 92.6936 86.6782 92.531C86.5616 92.5117 86.4502 92.4688 86.3508 92.405C86.2513 92.3411 86.166 92.2577 86.0999 92.1597C86.0338 92.0617 85.9884 91.9513 85.9665 91.8351C85.9446 91.719 85.9466 91.5996 85.9724 91.4843C85.9982 91.369 86.0472 91.2601 86.1165 91.1644C86.1858 91.0687 86.2739 90.9881 86.3755 90.9276C86.477 90.8671 86.5898 90.828 86.707 90.8126C86.8241 90.7972 86.9432 90.8058 87.0569 90.8381C87.9946 91.0784 88.8393 91.5929 89.483 92.3159C90.1266 93.0389 90.5399 93.9375 90.6701 94.8968C90.8737 96.1366 90.6067 97.4077 89.9216 98.4609C89.8402 98.5783 89.7317 98.6744 89.6053 98.7411C89.4789 98.8078 89.3383 98.8431 89.1954 98.8441Z" fill="#2E353A"/>
<path d="M80.9844 101.192C80.8152 101.191 80.6498 101.141 80.5077 101.049C80.4122 100.987 80.3301 100.906 80.2661 100.812C80.202 100.717 80.1573 100.611 80.1345 100.499C80.1117 100.387 80.1113 100.272 80.1333 100.16C80.1553 100.048 80.1993 99.9414 80.2627 99.8465C80.7058 99.1544 80.8772 98.3229 80.7438 97.512C80.6682 96.8973 80.4113 96.3191 80.0059 95.8509C79.6004 95.3828 79.0648 95.046 78.4672 94.8834C78.3337 94.8835 78.2019 94.8535 78.0815 94.7958C77.9611 94.738 77.8552 94.6539 77.7717 94.5498C77.6882 94.4456 77.6291 94.324 77.5989 94.1939C77.5687 94.0639 77.5681 93.9287 77.5972 93.7983C77.6263 93.668 77.6843 93.5459 77.7669 93.441C77.8495 93.3361 77.9546 93.2511 78.0745 93.1923C78.1944 93.1335 78.326 93.1025 78.4595 93.1013C78.593 93.1002 78.7251 93.1292 78.8459 93.186C79.7845 93.4246 80.6301 93.9387 81.274 94.662C81.9179 95.3853 82.3307 96.2848 82.4591 97.2447C82.6631 98.4845 82.3961 99.7558 81.7106 100.809C81.6292 100.926 81.5207 101.022 81.3943 101.089C81.2679 101.156 81.1273 101.191 80.9844 101.192Z" fill="#2E353A"/>
<path d="M158.082 143.205L160.274 142.398" stroke="#2E353A" stroke-width="0.567964" stroke-linecap="round" stroke-linejoin="round"/>
<path d="M114.808 159.19L156.09 143.944" stroke="#2E353A" stroke-width="0.567964" stroke-linecap="round" stroke-linejoin="round"/>
<path d="M115.967 152.298L155.364 137.747" stroke="#2E353A" stroke-width="0.567964" stroke-linecap="round" stroke-linejoin="round"/>
<path d="M109.899 154.539L113.347 153.264" stroke="#2E353A" stroke-width="0.567964" stroke-linecap="round" stroke-linejoin="round"/>
<path d="M104.989 149.887L150.459 133.096" stroke="#2E353A" stroke-width="0.567964" stroke-linecap="round" stroke-linejoin="round"/>
<path d="M100.084 145.241L145.549 128.449" stroke="#2E353A" stroke-width="0.567964" stroke-linecap="round" stroke-linejoin="round"/>
<path d="M138.733 124.502L140.64 123.798" stroke="#2E353A" stroke-width="0.567964" stroke-linecap="round" stroke-linejoin="round"/>
<path d="M95.1743 140.589L136.006 125.509" stroke="#2E353A" stroke-width="0.567964" stroke-linecap="round" stroke-linejoin="round"/>
<path d="M90.2646 135.938L135.735 119.146" stroke="#2E353A" stroke-width="0.567964" stroke-linecap="round" stroke-linejoin="round"/>
<path d="M85.355 131.291L130.825 114.5" stroke="#2E353A" stroke-width="0.567964" stroke-linecap="round" stroke-linejoin="round"/>
<path d="M80.4497 126.64L125.915 109.848" stroke="#2E353A" stroke-width="0.567964" stroke-linecap="round" stroke-linejoin="round"/>
<path d="M75.5402 121.989L121.006 105.197" stroke="#2E353A" stroke-width="0.567964" stroke-linecap="round" stroke-linejoin="round"/>
<path d="M114.488 101.143L116.1 100.546" stroke="#2E353A" stroke-width="0.567964" stroke-linecap="round" stroke-linejoin="round"/>
<path d="M70.6305 117.338L113.089 101.66" stroke="#2E353A" stroke-width="0.567964" stroke-linecap="round" stroke-linejoin="round"/>
<path d="M79.296 107.674L111.191 95.8992" stroke="#2E353A" stroke-width="0.567964" stroke-linecap="round" stroke-linejoin="round"/>
<path d="M65.7252 112.691L74.5064 109.448" stroke="#2E353A" stroke-width="0.567964" stroke-linecap="round" stroke-linejoin="round"/>
<g style="mix-blend-mode:multiply">
<path d="M81.4968 124.715C86.0991 125.317 85.6936 117.44 84.5264 114.798C83.6748 115.774 83.0402 116.92 82.6646 118.159C82.2891 119.399 82.1811 120.704 82.3478 121.989C82.3962 122.589 82.6056 123.164 82.9537 123.655C83.1301 123.898 83.3743 124.083 83.6556 124.188C83.937 124.293 84.243 124.312 84.5353 124.243C84.9542 124.065 85.3087 123.764 85.5511 123.379C86.3976 122.256 86.9589 120.866 87.85 119.837C89.084 120.67 93.468 122.096 92.8353 119.03C92.4878 117.337 93.3299 117.529 94.2343 118.358C94.6085 118.696 95.1966 118.514 95.6599 118.309L100.115 116.348C100.682 116.059 101.296 115.874 101.928 115.8C104.067 115.694 105.466 117.681 107.564 116.277C108.455 115.689 108.66 114.094 109.792 113.488C110.598 113.043 111.547 113.016 112.465 112.891C115.619 112.472 117.232 110.806 120.146 109.3" stroke="#3D63DD" stroke-width="1.13593" stroke-linecap="round" stroke-linejoin="round"/>
</g>
<g style="mix-blend-mode:multiply">
<path d="M85.0698 129.638C86.794 129.933 88.2687 128.36 89.7923 127.856C91.7393 127.206 92.5858 126.413 94.457 125.607C96.9296 124.546 99.8344 124.056 99.3176 120.318C98.9656 121.655 98.9255 123.125 98.6538 124.524C100.659 125.517 101.198 123.811 101.403 122.296C102.076 122.279 102.74 122.145 103.367 121.9C103.367 122.18 103.456 122.497 103.452 122.764C104.414 123.152 104.789 122.889 104.989 122.038C106.054 121.837 106.433 120.839 107.333 120.594C107.56 123.094 108.197 125.281 108.05 127.839C106.343 128.284 106.076 125.339 106.508 124.118C106.954 122.826 108.237 122.136 108.709 120.786C108.807 120.951 108.731 121.142 108.785 121.321C110.932 120.037 113.686 120.385 115.815 118.884C116.484 118.411 116.96 117.467 117.669 117.137C119.21 116.424 119.669 117.262 120.818 115.582" stroke="#3D63DD" stroke-width="1.13593" stroke-linecap="round" stroke-linejoin="round"/>
</g>
<g style="mix-blend-mode:multiply">
<path d="M100.592 144.318C103.688 143.427 105.047 135.733 104.156 132.909C103.113 129.491 101.679 133.238 101.345 135.074C101.077 136.544 100.65 140.42 102.022 141.538C105.065 144.006 106.923 138.932 107.297 136.638C107.431 138.072 106.566 139.841 106.918 141.387C109.382 141.676 110.603 139.627 110.447 137.511C110.753 137.804 110.96 138.184 111.04 138.6C111.12 139.016 111.068 139.447 110.892 139.832C113.245 139.667 112.857 135.698 113.12 134.098C112.986 135.216 113.089 136.526 113.842 137.431C114.47 138.179 115.668 138.509 116.457 137.93C117.245 137.35 117.089 135.827 116.132 135.626V145.272C116.162 145.551 116.106 145.832 115.971 146.078C115.655 146.524 114.88 146.43 114.519 146.002C114.201 145.536 114.052 144.975 114.096 144.412C114.051 141.253 115.027 136.927 117.473 134.771C117.598 135.078 117.64 135.413 117.593 135.742C117.827 135.651 118.039 135.51 118.213 135.329C118.388 135.149 118.521 134.932 118.604 134.695C118.765 135.403 119.183 136.295 119.901 136.17C120.139 136.107 120.357 135.985 120.533 135.813C121.71 134.842 122.984 134.201 123.772 132.819C123.884 133.167 123.999 133.514 124.115 133.866C124.302 133.194 124.944 132.753 125.572 132.45C126.531 131.999 127.567 131.738 128.624 131.679C129.515 131.634 130.486 131.728 131.297 131.345C131.656 131.153 132 130.934 132.326 130.69C133.249 130.081 134.318 129.731 135.423 129.674" stroke="#3D63DD" stroke-width="1.13593" stroke-linecap="round" stroke-linejoin="round"/>
</g>
<path d="M63.8854 59.7093C63.8854 59.7093 70.9915 50.7544 73.3973 47.5511C75.8031 44.3478 77.5451 41.884 77.5451 41.884C77.5451 41.884 78.8282 42.8954 78.4361 44.0448C78.0441 45.1943 69.5926 56.7377 67.7125 59.6692C65.8324 62.6008 66.0952 66.312 66.2333 67.5906C66.3714 68.8693 62.6424 64.6903 63.8854 59.7093Z" fill="white" stroke="#2E353A" stroke-width="1.27267" stroke-linecap="round" stroke-linejoin="round"/>
<path d="M77.5451 41.8841C77.5451 41.8841 81.9691 35.7315 85.2526 30.608C88.5361 25.4845 93.3299 17.7903 94.4704 16.7656C95.611 15.7409 95.8872 18.4141 95.5174 20.2051C95.1476 21.996 91.2226 26.9948 88.5717 31.0936C85.9209 35.1924 84.2814 38.1417 82.0003 40.8327C79.7192 43.5236 79.8529 43.6528 78.4361 44.0449C77.0194 44.437 77.2956 43.0336 77.5451 41.8841Z" fill="#2E353A" stroke="#2E353A" stroke-width="1.27267" stroke-linecap="round" stroke-linejoin="round"/>
<path d="M62.3572 60.6094C62.8473 57.2902 63.9566 51.1599 66.4917 49.2307C69.0267 47.3016 76.6986 48.7852 77.3356 48.9011C77.9727 49.0169 88.0683 51.2534 91.1468 53.1469C94.2254 55.0403 96.2926 60.5113 97.0812 63.679C97.8697 66.8467 99.5627 72.2107 99.8166 72.5894C99.8166 72.5894 102.378 73.7166 103.782 73.5829C105.185 73.4493 107.052 66.9268 110.981 63.0731C114.911 59.2193 116.951 58.6936 121.291 59.0634C125.63 59.4332 142.114 63.9018 143.785 65.5457C145.456 67.1897 146.498 70.892 146.137 73.5651C145.777 76.2382 146.302 79.1787 146.302 79.6866C146.302 80.1945 147.848 81.8474 147.474 83.2507C147.1 84.6541 146.868 87.706 145.723 88.1114C144.578 88.5168 136.153 88.303 129.898 87.452C123.643 86.6011 114.942 82.8275 109.181 80.19C103.421 77.5525 100.61 76.4165 96.3995 76.4476C92.1893 76.4788 84.0274 76.657 76.4892 74.9195C68.9509 73.182 63.8274 70.0188 62.4107 68.6332C60.9939 67.2476 61.8716 63.9329 62.3572 60.6094ZM107.497 76.2561C109.56 79.3079 117.874 82.3152 122.347 83.5582C126.82 84.8012 137.548 87.0288 140.346 85.4828C143.144 83.9369 144.614 74.7368 144.355 71.5469C144.097 68.357 142.792 66.5838 142.792 66.5838C137.281 63.1756 120.034 59.5891 116.47 61.0192C112.906 62.4494 109.498 67.0605 108.246 70.7672C106.994 74.474 107.497 76.2561 107.497 76.2561ZM71.486 71.0123C76.9926 74.2913 85.6758 75.2536 89.1197 75.3606C92.5636 75.4675 95.8693 73.6587 95.9718 69.7024C96.0743 65.7462 93.9892 59.1258 93.2096 57.2279C92.4299 55.3299 89.8726 54.1894 89.8726 54.1894C86.4198 52.5543 72.1052 48.9501 69.6816 49.351C67.258 49.752 65.1373 53.432 64.6427 58.8095C64.1482 64.1869 65.9793 67.7332 71.486 71.0123Z" fill="#2E353A" stroke="#2E353A" stroke-width="1.27267" stroke-linecap="round" stroke-linejoin="round"/>
<path d="M145.919 79.5751C145.919 79.5751 147.336 81.7359 148.347 80.1988C149.359 78.6618 162.403 64.0309 162.403 64.0309C162.403 64.0309 162.911 63.8972 162.791 64.9219C162.671 65.9466 149.016 84.2798 148.508 85.1753C148 86.0708 145.835 86.3426 145.327 85.9639C144.819 85.5852 145.919 79.5751 145.919 79.5751Z" fill="white" stroke="#2E353A" stroke-width="1.27267" stroke-linecap="round" stroke-linejoin="round"/>
<path d="M161.512 64.5434C162.258 63.2164 162.93 61.8496 163.526 60.4491C164.907 57.3795 165.754 51.3783 165.977 45.1232C166.199 38.8681 166.422 35.1702 167.576 36.3108C168.73 37.4513 167.741 43.5861 167.527 48.4289C167.313 53.2718 165.807 58.1369 165.442 60.6941C165.166 62.6233 163.687 65.6795 162.666 65.684C161.646 65.6884 161.775 65.4345 161.512 64.5434Z" fill="#2E353A" stroke="#2E353A" stroke-width="1.27267" stroke-linecap="round" stroke-linejoin="round"/>
<path d="M77.3355 144.515L82.9446 150.863L74.6044 148.983L15.261 112.678L17.9965 108.209L77.3355 144.515Z" fill="white" stroke="#2E353A" stroke-width="1.4364" stroke-linecap="round" stroke-linejoin="round"/>
<g style="mix-blend-mode:multiply" opacity="0.5">
<path d="M77.3355 144.515L82.9446 150.863L74.6044 148.983L15.261 112.678L17.9965 108.209L77.3355 144.515Z" fill="#3D63DD"/>
<path d="M77.3355 144.515L82.9446 150.863L74.6044 148.983L15.261 112.678L17.9965 108.209L77.3355 144.515Z" stroke="#2E353A" stroke-width="1.4364" stroke-linecap="round" stroke-linejoin="round"/>
</g>
<path d="M17.3753 109.226L15.8849 111.662L75.2268 147.97L76.7173 145.534L17.3753 109.226Z" stroke="#2E353A" stroke-width="0.718198" stroke-linecap="round" stroke-linejoin="round"/>
<path d="M77.349 144.528L74.6179 148.988L82.9447 150.863L77.349 144.528Z" fill="white" stroke="#2E353A" stroke-width="1.4364" stroke-linecap="round" stroke-linejoin="round"/>
<path d="M78.7791 149.923L82.9447 150.863L80.1468 147.696L78.7791 149.923Z" fill="#3D63DD" stroke="#2E353A" stroke-width="1.4364" stroke-linecap="round" stroke-linejoin="round"/>
<path d="M9.98607 106.378C9.80611 106.671 9.68571 106.997 9.63176 107.336C9.5778 107.676 9.59135 108.023 9.67164 108.357C9.75192 108.691 9.89735 109.007 10.0996 109.285C10.3019 109.563 10.557 109.798 10.8504 109.978L15.261 112.678L17.9965 108.222L13.5859 105.522C12.9948 105.159 12.284 105.046 11.6091 105.206C10.9343 105.366 10.3506 105.788 9.98607 106.378Z" fill="white" stroke="#2E353A" stroke-width="1.4364" stroke-linecap="round" stroke-linejoin="round"/>
<path d="M9.98607 106.378C9.80611 106.671 9.68571 106.997 9.63176 107.336C9.5778 107.676 9.59135 108.023 9.67164 108.357C9.75192 108.691 9.89735 109.007 10.0996 109.285C10.3019 109.563 10.557 109.798 10.8504 109.978L12.9622 111.27L15.6976 106.815L13.5859 105.522C12.9949 105.159 12.284 105.046 11.6091 105.206C10.9343 105.366 10.3506 105.788 9.98607 106.378Z" fill="#2E353A" stroke="#2E353A" stroke-width="1.4364" stroke-linecap="round" stroke-linejoin="round"/>
<path d="M129.738 85.1043L128.174 84.0039C127.932 83.8342 127.655 83.7212 127.363 83.6734C127.072 83.6255 126.773 83.6441 126.49 83.7277C124.837 84.2088 121.718 85.434 120.827 86.4008C119.669 87.5948 119.304 89.7556 119.861 90.7713C120.417 91.7871 122.703 93.0836 122.703 93.0836L132.277 87.2562L129.738 85.1043Z" fill="white" stroke="#2E353A" stroke-width="0.9473" stroke-miterlimit="10"/>
<g style="mix-blend-mode:multiply" opacity="0.5">
<path d="M129.738 85.1043L128.174 84.0039C127.932 83.8342 127.655 83.7212 127.363 83.6734C127.072 83.6255 126.773 83.6441 126.49 83.7277C124.837 84.2088 121.718 85.434 120.827 86.4008C119.669 87.5948 119.304 89.7556 119.861 90.7713C120.417 91.7871 122.703 93.0836 122.703 93.0836L132.277 87.2562L129.738 85.1043Z" fill="#3D63DD"/>
<path d="M129.738 85.1043L128.174 84.0039C127.932 83.8342 127.655 83.7212 127.363 83.6734C127.072 83.6255 126.773 83.6441 126.49 83.7277C124.837 84.2088 121.718 85.434 120.827 86.4008C119.669 87.5948 119.304 89.7556 119.861 90.7713C120.417 91.7871 122.703 93.0836 122.703 93.0836L132.277 87.2562L129.738 85.1043Z" stroke="#2E353A" stroke-width="0.9473" stroke-miterlimit="10"/>
</g>
<path d="M130.713 84.6544L123.139 88.1161C123.139 88.1161 120.578 89.564 121.389 93.997L165.74 126.654C165.74 126.654 167.282 127.776 170.066 126.827C172.851 125.878 175.702 122.595 176.304 119.819C176.905 117.044 174.967 116.171 174.606 115.863C174.245 115.556 132.21 84.9841 132.21 84.9841C131.766 84.7006 131.236 84.5837 130.713 84.6544Z" fill="white" stroke="#2E353A" stroke-width="0.9473" stroke-miterlimit="10"/>
<g style="mix-blend-mode:multiply" opacity="0.5">
<path d="M130.713 84.6544L123.139 88.1161C123.139 88.1161 120.578 89.564 121.389 93.997L165.74 126.654C165.74 126.654 167.282 127.776 170.066 126.827C172.851 125.878 175.702 122.595 176.304 119.819C176.905 117.044 174.967 116.171 174.606 115.863C174.245 115.556 132.21 84.9841 132.21 84.9841C131.766 84.7006 131.236 84.5837 130.713 84.6544Z" fill="#3D63DD"/>
<path d="M130.713 84.6544L123.139 88.1161C123.139 88.1161 120.578 89.564 121.389 93.997L165.74 126.654C165.74 126.654 167.282 127.776 170.066 126.827C172.851 125.878 175.702 122.595 176.304 119.819C176.905 117.044 174.967 116.171 174.606 115.863C174.245 115.556 132.21 84.9841 132.21 84.9841C131.766 84.7006 131.236 84.5837 130.713 84.6544Z" stroke="#2E353A" stroke-width="0.9473" stroke-miterlimit="10"/>
</g>
<path d="M173.319 124.524C170.525 127.13 167.144 128.048 165.745 126.569C164.346 125.09 165.5 121.771 168.293 119.16C171.086 116.549 174.468 115.636 175.867 117.115C177.266 118.594 176.108 121.913 173.319 124.524Z" fill="white" stroke="#2E353A" stroke-width="0.9473" stroke-miterlimit="10"/>
<g style="mix-blend-mode:multiply">
<path d="M173.319 124.524C170.525 127.13 167.144 128.048 165.745 126.569C164.346 125.09 165.5 121.771 168.293 119.16C171.086 116.549 174.468 115.636 175.867 117.115C177.266 118.594 176.108 121.913 173.319 124.524Z" fill="#3D63DD"/>
<path d="M173.319 124.524C170.525 127.13 167.144 128.048 165.745 126.569C164.346 125.09 165.5 121.771 168.293 119.16C171.086 116.549 174.468 115.636 175.867 117.115C177.266 118.594 176.108 121.913 173.319 124.524Z" stroke="#2E353A" stroke-width="0.9473" stroke-miterlimit="10"/>
</g>
<path d="M132.206 84.9841C131.763 84.7016 131.234 84.5848 130.713 84.6544L123.139 88.1161C123.139 88.1161 120.578 89.564 121.389 93.997L152.058 116.58C151.84 115.538 151.88 114.014 153.052 112.205C154.139 110.517 159.022 107.795 161.659 106.414C149.176 97.3295 132.206 84.9841 132.206 84.9841Z" fill="#2E353A" stroke="#2E353A" stroke-width="1.27267" stroke-linecap="round" stroke-linejoin="round"/>
<path d="M167.398 119.08L151.198 107.34C150.956 107.165 150.762 106.931 150.633 106.661C150.505 106.391 150.447 106.092 150.464 105.794C150.481 105.495 150.574 105.205 150.732 104.952C150.891 104.698 151.111 104.488 151.372 104.342L153.88 102.974C154.175 102.815 154.508 102.742 154.842 102.763C155.176 102.784 155.498 102.899 155.769 103.095L172.895 115.498" fill="white"/>
<path d="M167.398 119.08L151.198 107.34C150.956 107.165 150.762 106.931 150.633 106.661C150.505 106.391 150.447 106.092 150.464 105.794C150.481 105.495 150.574 105.205 150.732 104.952C150.891 104.698 151.111 104.488 151.372 104.342L153.88 102.974C154.175 102.815 154.508 102.742 154.842 102.763C155.176 102.784 155.498 102.899 155.769 103.095L172.895 115.498" stroke="#2E353A" stroke-width="0.9473" stroke-miterlimit="10"/>
<g style="mix-blend-mode:multiply" opacity="0.5">
<path d="M167.398 119.08L151.198 107.34C150.956 107.165 150.762 106.931 150.633 106.661C150.505 106.391 150.447 106.092 150.464 105.794C150.481 105.495 150.574 105.205 150.732 104.952C150.891 104.698 151.111 104.488 151.372 104.342L153.88 102.974C154.175 102.815 154.508 102.742 154.842 102.763C155.176 102.784 155.498 102.899 155.769 103.095L172.895 115.498" fill="#3D63DD"/>
<path d="M167.398 119.08L151.198 107.34C150.956 107.165 150.762 106.931 150.633 106.661C150.505 106.391 150.447 106.092 150.464 105.794C150.481 105.495 150.574 105.205 150.732 104.952C150.891 104.698 151.111 104.488 151.372 104.342L153.88 102.974C154.175 102.815 154.508 102.742 154.842 102.763C155.176 102.784 155.498 102.899 155.769 103.095L172.895 115.498" stroke="#2E353A" stroke-width="0.9473" stroke-miterlimit="10"/>
</g>
</svg>
