<svg width="17" height="21" viewBox="0 0 17 21" fill="none" xmlns="http://www.w3.org/2000/svg">
<path d="M15.25 1.99986H11.8506C11.4292 1.52804 10.9129 1.15054 10.3355 0.892075C9.7581 0.633607 9.13262 0.5 8.5 0.5C7.86738 0.5 7.2419 0.633607 6.6645 0.892075C6.08709 1.15054 5.57079 1.52804 5.14937 1.99986H1.75C1.35218 1.99986 0.970644 2.1579 0.68934 2.4392C0.408035 2.72051 0.25 3.10204 0.25 3.49986V19.2499C0.25 19.6477 0.408035 20.0292 0.68934 20.3105C0.970644 20.5918 1.35218 20.7499 1.75 20.7499H15.25C15.6478 20.7499 16.0294 20.5918 16.3107 20.3105C16.592 20.0292 16.75 19.6477 16.75 19.2499V3.49986C16.75 3.10204 16.592 2.72051 16.3107 2.4392C16.0294 2.1579 15.6478 1.99986 15.25 1.99986ZM8.5 1.99986C9.29565 1.99986 10.0587 2.31593 10.6213 2.87854C11.1839 3.44115 11.5 4.20421 11.5 4.99986H5.5C5.5 4.20421 5.81607 3.44115 6.37868 2.87854C6.94129 2.31593 7.70435 1.99986 8.5 1.99986ZM11.5 13.9999H5.5C5.30109 13.9999 5.11032 13.9208 4.96967 13.7802C4.82902 13.6395 4.75 13.4488 4.75 13.2499C4.75 13.051 4.82902 12.8602 4.96967 12.7195C5.11032 12.5789 5.30109 12.4999 5.5 12.4999H11.5C11.6989 12.4999 11.8897 12.5789 12.0303 12.7195C12.171 12.8602 12.25 13.051 12.25 13.2499C12.25 13.4488 12.171 13.6395 12.0303 13.7802C11.8897 13.9208 11.6989 13.9999 11.5 13.9999ZM11.5 10.9999H5.5C5.30109 10.9999 5.11032 10.9208 4.96967 10.7802C4.82902 10.6395 4.75 10.4488 4.75 10.2499C4.75 10.051 4.82902 9.86019 4.96967 9.71953C5.11032 9.57888 5.30109 9.49986 5.5 9.49986H11.5C11.6989 9.49986 11.8897 9.57888 12.0303 9.71953C12.171 9.86019 12.25 10.051 12.25 10.2499C12.25 10.4488 12.171 10.6395 12.0303 10.7802C11.8897 10.9208 11.6989 10.9999 11.5 10.9999Z" fill="#3D63DD"/>
</svg>
